ISO-10303-21;
HEADER;
FILE_DESCRIPTION (( 'STEP AP214' ),
    '1' );
FILE_NAME ('piezaT.STEP',
    '2026-03-27T02:49:30',
    ( '' ),
    ( '' ),
    'SwSTEP 2.0',
    'SolidWorks 2025',
    '' );
FILE_SCHEMA (( 'AUTOMOTIVE_DESIGN' ));
ENDSEC;

DATA;
#1 = EDGE_CURVE ( 'NONE', #379, #45, #99, .T. ) ;
#2 = AXIS2_PLACEMENT_3D ( 'NONE', #340, #112, #271 ) ;
#3 = DIRECTION ( 'NONE',  ( 1.000000000000000000, 0.000000000000000000, 0.000000000000000000 ) ) ;
#4 = DIRECTION ( 'NONE',  ( 0.000000000000000000, 0.000000000000000000, -1.000000000000000000 ) ) ;
#5 = LINE ( 'NONE', #231, #278 ) ;
#6 = DIRECTION ( 'NONE',  ( 0.000000000000000000, 0.000000000000000000, -1.000000000000000000 ) ) ;
#7 = ORIENTED_EDGE ( 'NONE', *, *, #337, .T. ) ;
#8 = DIRECTION ( 'NONE',  ( -1.000000000000000000, 0.000000000000000000, 0.000000000000000000 ) ) ;
#9 = VERTEX_POINT ( 'NONE', #387 ) ;
#10 = CARTESIAN_POINT ( 'NONE',  ( 0.000000000000000000, 0.000000000000000000, -127.3988629815590059 ) ) ;
#11 = CARTESIAN_POINT ( 'NONE',  ( 2.900000000000018119, 178.6478055186229881, -127.3988629815590059 ) ) ;
#12 = CARTESIAN_POINT ( 'NONE',  ( 5.000000000000002665, 148.2478055186229824, -127.3988629815590059 ) ) ;
#13 = CARTESIAN_POINT ( 'NONE',  ( 0.000000000000000000, 143.2478055186229824, -127.3988629815590059 ) ) ;
#14 = DIRECTION ( 'NONE',  ( 0.000000000000000000, -1.000000000000000000, 0.000000000000000000 ) ) ;
#15 = EDGE_CURVE ( 'NONE', #371, #358, #51, .T. ) ;
#16 = ORIENTED_EDGE ( 'NONE', *, *, #98, .F. ) ;
#17 = APPLICATION_PROTOCOL_DEFINITION ( 'draft international standard', 'automotive_design', 1998, #161 ) ;
#18 = DIRECTION ( 'NONE',  ( -1.000000000000000000, 0.000000000000000000, 0.000000000000000000 ) ) ;
#19 = AXIS2_PLACEMENT_3D ( 'NONE', #392, #148, #233 ) ;
#20 = PRODUCT_DEFINITION_SHAPE ( 'NONE', 'NONE',  #414 ) ;
#21 = CARTESIAN_POINT ( 'NONE',  ( 10.00000000000000000, 183.6478055186230165, -127.3988629815590059 ) ) ;
#22 = ORIENTED_EDGE ( 'NONE', *, *, #286, .T. ) ;
#23 = DIRECTION ( 'NONE',  ( 0.000000000000000000, 1.000000000000000000, 0.000000000000000000 ) ) ;
#24 = EDGE_CURVE ( 'NONE', #133, #250, #581, .T. ) ;
#25 = DIRECTION ( 'NONE',  ( -1.000000000000000000, 0.000000000000000000, 0.000000000000000000 ) ) ;
#26 = VECTOR ( 'NONE', #332, 1000.000000000000000 ) ;
#27 = ORIENTED_EDGE ( 'NONE', *, *, #507, .T. ) ;
#28 = AXIS2_PLACEMENT_3D ( 'NONE', #83, #191, #319 ) ;
#29 = CARTESIAN_POINT ( 'NONE',  ( 2.900000000000001688, 163.4478055186229710, -124.3988629815590201 ) ) ;
#30 = ORIENTED_EDGE ( 'NONE', *, *, #488, .T. ) ;
#31 = LINE ( 'NONE', #265, #508 ) ;
#32 = EDGE_CURVE ( 'NONE', #593, #599, #234, .T. ) ;
#33 = LINE ( 'NONE', #89, #254 ) ;
#34 = ORIENTED_EDGE ( 'NONE', *, *, #126, .F. ) ;
#35 = LINE ( 'NONE', #29, #310 ) ;
#36 = DIRECTION ( 'NONE',  ( 0.000000000000000000, 0.000000000000000000, -1.000000000000000000 ) ) ;
#37 = FACE_BOUND ( 'NONE', #268, .T. ) ;
#38 = ORIENTED_EDGE ( 'NONE', *, *, #108, .F. ) ;
#39 = PRODUCT_RELATED_PRODUCT_CATEGORY ( 'part', '', ( #68 ) ) ;
#40 = VECTOR ( 'NONE', #204, 1000.000000000000000 ) ;
#41 = CARTESIAN_POINT ( 'NONE',  ( 5.000000000000002665, 148.2478055186229824, -124.3988629815590201 ) ) ;
#42 = CARTESIAN_POINT ( 'NONE',  ( 0.000000000000000000, 183.6478055186230165, -127.3988629815590059 ) ) ;
#43 = ORIENTED_EDGE ( 'NONE', *, *, #108, .T. ) ;
#44 = UNCERTAINTY_MEASURE_WITH_UNIT (LENGTH_MEASURE( 1.000000000000000082E-05 ), #335, 'distance_accuracy_value', 'NONE');
#45 = VERTEX_POINT ( 'NONE', #149 ) ;
#46 = LINE ( 'NONE', #583, #430 ) ;
#47 = ADVANCED_FACE ( 'NONE', ( #339 ), #535, .F. ) ;
#48 = LINE ( 'NONE', #226, #78 ) ;
#49 = ORIENTED_EDGE ( 'NONE', *, *, #611, .T. ) ;
#50 = CARTESIAN_POINT ( 'NONE',  ( 7.099999999999996980, 163.4478055186229710, -124.3988629815590201 ) ) ;
#51 = CIRCLE ( 'NONE', #103, 3.099999999999992095 ) ;
#52 = VECTOR ( 'NONE', #216, 1000.000000000000000 ) ;
#53 = AXIS2_PLACEMENT_3D ( 'NONE', #114, #498, #394 ) ;
#54 = ORIENTED_EDGE ( 'NONE', *, *, #126, .T. ) ;
#55 = DIRECTION ( 'NONE',  ( -1.000000000000000000, 0.000000000000000000, 0.000000000000000000 ) ) ;
#56 = ORIENTED_EDGE ( 'NONE', *, *, #252, .F. ) ;
#57 = EDGE_CURVE ( 'NONE', #129, #203, #543, .T. ) ;
#58 = FACE_OUTER_BOUND ( 'NONE', #158, .T. ) ;
#59 = CARTESIAN_POINT ( 'NONE',  ( 4.999999999999999112, 163.4478055186229710, -135.3988629815590059 ) ) ;
#60 = ORIENTED_EDGE ( 'NONE', *, *, #1, .T. ) ;
#61 = FACE_OUTER_BOUND ( 'NONE', #87, .T. ) ;
#62 = DIRECTION ( 'NONE',  ( -1.000000000000000000, 0.000000000000000000, -0.000000000000000000 ) ) ;
#63 = VECTOR ( 'NONE', #501, 1000.000000000000000 ) ;
#64 = EDGE_LOOP ( 'NONE', ( #304, #118 ) ) ;
#65 = CIRCLE ( 'NONE', #432, 2.099999999999982769 ) ;
#66 = CARTESIAN_POINT ( 'NONE',  ( 1.900000000000007239, 163.4478055186229710, -131.3988629815590059 ) ) ;
#67 = VERTEX_POINT ( 'NONE', #540 ) ;
#68 = PRODUCT ( 'piezaT', 'piezaT', '', ( #327 ) ) ;
#69 = EDGE_CURVE ( 'NONE', #94, #442, #208, .T. ) ;
#70 = CARTESIAN_POINT ( 'NONE',  ( 2.900000000000030553, 148.2478055186229824, -127.3988629815590059 ) ) ;
#71 =( GEOMETRIC_REPRESENTATION_CONTEXT ( 3 ) GLOBAL_UNCERTAINTY_ASSIGNED_CONTEXT ( ( #423 ) ) GLOBAL_UNIT_ASSIGNED_CONTEXT ( ( #179, #580, #321 ) ) REPRESENTATION_CONTEXT ( 'NONE', 'WORKASPACE' ) );
#72 = COLOUR_RGB ( '',0.03529411764705882304, 1.000000000000000000, 0.03529411764705882304 ) ;
#73 = ORIENTED_EDGE ( 'NONE', *, *, #57, .T. ) ;
#74 = CARTESIAN_POINT ( 'NONE',  ( 5.000000000000002665, 148.2478055186229824, -127.3988629815590059 ) ) ;
#75 = CYLINDRICAL_SURFACE ( 'NONE', #217, 2.099999999999997868 ) ;
#76 = ORIENTED_EDGE ( 'NONE', *, *, #496, .F. ) ;
#77 = DIRECTION ( 'NONE',  ( -1.000000000000000000, 0.000000000000000000, 0.000000000000000000 ) ) ;
#78 = VECTOR ( 'NONE', #420, 1000.000000000000000 ) ;
#79 = ORIENTED_EDGE ( 'NONE', *, *, #376, .T. ) ;
#80 = CIRCLE ( 'NONE', #365, 2.099999999999997868 ) ;
#81 = CARTESIAN_POINT ( 'NONE',  ( 4.999999999999999112, 163.4478055186229710, -124.3988629815590201 ) ) ;
#82 = EDGE_CURVE ( 'NONE', #379, #320, #582, .T. ) ;
#83 = CARTESIAN_POINT ( 'NONE',  ( 4.999999999999999112, 163.4478055186229710, -131.3988629815590059 ) ) ;
#84 = ORIENTED_EDGE ( 'NONE', *, *, #134, .T. ) ;
#85 = CARTESIAN_POINT ( 'NONE',  ( 7.099999999999983658, 178.6478055186229881, -124.3988629815590201 ) ) ;
#86 = CARTESIAN_POINT ( 'NONE',  ( 10.00000000000000000, 173.4478055186229994, -135.3988629815590059 ) ) ;
#87 = EDGE_LOOP ( 'NONE', ( #588, #256, #564, #113 ) ) ;
#88 = DIRECTION ( 'NONE',  ( -1.000000000000000000, 0.000000000000000000, 0.000000000000000000 ) ) ;
#89 = CARTESIAN_POINT ( 'NONE',  ( 0.000000000000000000, 0.000000000000000000, -135.3988629815590059 ) ) ;
#90 = ORIENTED_EDGE ( 'NONE', *, *, #596, .F. ) ;
#91 = CARTESIAN_POINT ( 'NONE',  ( 0.000000000000000000, 183.6478055186230165, -127.3988629815590059 ) ) ;
#92 = EDGE_LOOP ( 'NONE', ( #43, #546 ) ) ;
#93 = EDGE_CURVE ( 'NONE', #468, #270, #487, .T. ) ;
#94 = VERTEX_POINT ( 'NONE', #272 ) ;
#95 = ORIENTED_EDGE ( 'NONE', *, *, #556, .T. ) ;
#96 = VECTOR ( 'NONE', #495, 1000.000000000000000 ) ;
#97 = CARTESIAN_POINT ( 'NONE',  ( 8.099999999999992539, 163.4478055186229710, -135.3988629815590059 ) ) ;
#98 = EDGE_CURVE ( 'NONE', #285, #67, #612, .T. ) ;
#99 = LINE ( 'NONE', #294, #408 ) ;
#100 = DIRECTION ( 'NONE',  ( -1.000000000000000000, 0.000000000000000000, 0.000000000000000000 ) ) ;
#101 = DIRECTION ( 'NONE',  ( -1.000000000000000000, 0.000000000000000000, 0.000000000000000000 ) ) ;
#102 = EDGE_LOOP ( 'NONE', ( #537, #555, #276, #90 ) ) ;
#103 = AXIS2_PLACEMENT_3D ( 'NONE', #433, #4, #491 ) ;
#104 = DIRECTION ( 'NONE',  ( 0.000000000000000000, 0.000000000000000000, -1.000000000000000000 ) ) ;
#105 = ORIENTED_EDGE ( 'NONE', *, *, #185, .T. ) ;
#106 = LINE ( 'NONE', #494, #240 ) ;
#107 = AXIS2_PLACEMENT_3D ( 'NONE', #567, #417, #311 ) ;
#108 = EDGE_CURVE ( 'NONE', #523, #405, #65, .T. ) ;
#109 = LINE ( 'NONE', #202, #183 ) ;
#110 = EDGE_LOOP ( 'NONE', ( #136, #383 ) ) ;
#111 = DIRECTION ( 'NONE',  ( -0.000000000000000000, -0.000000000000000000, -1.000000000000000000 ) ) ;
#112 = DIRECTION ( 'NONE',  ( 0.000000000000000000, 0.000000000000000000, -1.000000000000000000 ) ) ;
#113 = ORIENTED_EDGE ( 'NONE', *, *, #337, .F. ) ;
#114 = CARTESIAN_POINT ( 'NONE',  ( 5.000000000000002665, 148.2478055186229824, -127.3988629815590059 ) ) ;
#115 = EDGE_CURVE ( 'NONE', #445, #9, #517, .T. ) ;
#116 = EDGE_LOOP ( 'NONE', ( #141, #236, #577, #219 ) ) ;
#117 = FACE_BOUND ( 'NONE', #377, .T. ) ;
#118 = ORIENTED_EDGE ( 'NONE', *, *, #69, .F. ) ;
#119 = CARTESIAN_POINT ( 'NONE',  ( 7.099999999999996980, 163.4478055186229710, -131.3988629815590059 ) ) ;
#120 = ORIENTED_EDGE ( 'NONE', *, *, #481, .T. ) ;
#121 = EDGE_CURVE ( 'NONE', #371, #285, #48, .T. ) ;
#122 = CARTESIAN_POINT ( 'NONE',  ( 0.000000000000000000, 0.000000000000000000, -127.3988629815590059 ) ) ;
#123 = VECTOR ( 'NONE', #174, 1000.000000000000000 ) ;
#124 = FACE_OUTER_BOUND ( 'NONE', #422, .T. ) ;
#125 = ORIENTED_EDGE ( 'NONE', *, *, #82, .T. ) ;
#126 = EDGE_CURVE ( 'NONE', #599, #445, #617, .T. ) ;
#127 = CARTESIAN_POINT ( 'NONE',  ( 0.000000000000000000, 173.4478055186229994, -135.3988629815590059 ) ) ;
#128 = CYLINDRICAL_SURFACE ( 'NONE', #28, 3.099999999999992095 ) ;
#129 = VERTEX_POINT ( 'NONE', #592 ) ;
#130 = DIRECTION ( 'NONE',  ( -0.000000000000000000, -0.000000000000000000, -1.000000000000000000 ) ) ;
#131 = DIRECTION ( 'NONE',  ( 0.000000000000000000, 0.000000000000000000, -1.000000000000000000 ) ) ;
#132 = FACE_OUTER_BOUND ( 'NONE', #178, .T. ) ;
#133 = VERTEX_POINT ( 'NONE', #395 ) ;
#134 = EDGE_CURVE ( 'NONE', #94, #405, #382, .T. ) ;
#135 = PLANE ( 'NONE',  #541 ) ;
#136 = ORIENTED_EDGE ( 'NONE', *, *, #434, .T. ) ;
#137 = AXIS2_PLACEMENT_3D ( 'NONE', #242, #104, #18 ) ;
#138 = AXIS2_PLACEMENT_3D ( 'NONE', #606, #170, #509 ) ;
#139 = FILL_AREA_STYLE ('',( #186 ) ) ;
#140 = AXIS2_PLACEMENT_3D ( 'NONE', #425, #36, #466 ) ;
#141 = ORIENTED_EDGE ( 'NONE', *, *, #469, .F. ) ;
#142 = ORIENTED_EDGE ( 'NONE', *, *, #1, .F. ) ;
#143 = ADVANCED_FACE ( 'NONE', ( #293, #145 ), #584, .T. ) ;
#144 = SURFACE_SIDE_STYLE ('',( #330 ) ) ;
#145 = FACE_OUTER_BOUND ( 'NONE', #361, .T. ) ;
#146 = ORIENTED_EDGE ( 'NONE', *, *, #194, .F. ) ;
#147 = FACE_OUTER_BOUND ( 'NONE', #110, .T. ) ;
#148 = DIRECTION ( 'NONE',  ( 0.000000000000000000, 0.000000000000000000, -1.000000000000000000 ) ) ;
#149 = CARTESIAN_POINT ( 'NONE',  ( 0.000000000000000000, 153.4478055186229994, -135.3988629815590059 ) ) ;
#150 = FACE_OUTER_BOUND ( 'NONE', #316, .T. ) ;
#151 = CARTESIAN_POINT ( 'NONE',  ( 0.000000000000000000, 153.4478055186229994, -135.3988629815590059 ) ) ;
#152 = ORIENTED_EDGE ( 'NONE', *, *, #169, .T. ) ;
#153 = CARTESIAN_POINT ( 'NONE',  ( 7.099999999999983658, 178.6478055186229881, -127.3988629815590059 ) ) ;
#154 = ORIENTED_EDGE ( 'NONE', *, *, #397, .F. ) ;
#155 = EDGE_CURVE ( 'NONE', #619, #250, #349, .T. ) ;
#156 = VECTOR ( 'NONE', #366, 1000.000000000000000 ) ;
#157 = DIRECTION ( 'NONE',  ( -1.000000000000000000, 0.000000000000000000, 0.000000000000000000 ) ) ;
#158 = EDGE_LOOP ( 'NONE', ( #325, #616, #7, #152 ) ) ;
#159 = ORIENTED_EDGE ( 'NONE', *, *, #369, .F. ) ;
#160 = ADVANCED_FACE ( 'NONE', ( #241, #545, #297, #530 ), #281, .F. ) ;
#161 = APPLICATION_CONTEXT ( 'automotive_design' ) ;
#162 = CARTESIAN_POINT ( 'NONE',  ( 10.00000000000000000, 153.4478055186229994, -135.3988629815590059 ) ) ;
#163 = ORIENTED_EDGE ( 'NONE', *, *, #403, .T. ) ;
#164 = CARTESIAN_POINT ( 'NONE',  ( 5.000000000000002665, 148.2478055186229824, -127.3988629815590059 ) ) ;
#165 = CYLINDRICAL_SURFACE ( 'NONE', #406, 2.099999999999971667 ) ;
#166 = ORIENTED_EDGE ( 'NONE', *, *, #220, .F. ) ;
#167 = DIRECTION ( 'NONE',  ( 0.000000000000000000, 0.000000000000000000, -1.000000000000000000 ) ) ;
#168 = ORIENTED_EDGE ( 'NONE', *, *, #566, .T. ) ;
#169 = EDGE_CURVE ( 'NONE', #67, #285, #489, .T. ) ;
#170 = DIRECTION ( 'NONE',  ( 0.000000000000000000, 1.000000000000000000, 0.000000000000000000 ) ) ;
#171 = LINE ( 'NONE', #188, #123 ) ;
#172 = ORIENTED_EDGE ( 'NONE', *, *, #24, .T. ) ;
#173 = FACE_OUTER_BOUND ( 'NONE', #344, .T. ) ;
#174 = DIRECTION ( 'NONE',  ( -0.000000000000000000, -0.000000000000000000, 1.000000000000000000 ) ) ;
#175 = ORIENTED_EDGE ( 'NONE', *, *, #57, .F. ) ;
#176 = ADVANCED_FACE ( 'NONE', ( #235 ), #437, .F. ) ;
#177 = CARTESIAN_POINT ( 'NONE',  ( 2.900000000000001688, 163.4478055186229710, -124.3988629815590201 ) ) ;
#178 = EDGE_LOOP ( 'NONE', ( #184, #209, #401, #154 ) ) ;
#179 =( LENGTH_UNIT ( ) NAMED_UNIT ( * ) SI_UNIT ( .MILLI., .METRE. ) );
#180 = DIRECTION ( 'NONE',  ( -1.000000000000000000, 0.000000000000000000, 0.000000000000000000 ) ) ;
#181 = AXIS2_PLACEMENT_3D ( 'NONE', #288, #389, #62 ) ;
#182 = AXIS2_PLACEMENT_3D ( 'NONE', #10, #193, #391 ) ;
#183 = VECTOR ( 'NONE', #14, 1000.000000000000000 ) ;
#184 = ORIENTED_EDGE ( 'NONE', *, *, #134, .F. ) ;
#185 = EDGE_CURVE ( 'NONE', #468, #484, #244, .T. ) ;
#186 = FILL_AREA_STYLE_COLOUR ( '', #72 ) ;
#187 = ORIENTED_EDGE ( 'NONE', *, *, #607, .F. ) ;
#188 = CARTESIAN_POINT ( 'NONE',  ( 0.000000000000000000, 183.6478055186230165, -127.3988629815590059 ) ) ;
#189 = EDGE_LOOP ( 'NONE', ( #273, #264, #505, #532 ) ) ;
#190 =( GEOMETRIC_REPRESENTATION_CONTEXT ( 3 ) GLOBAL_UNCERTAINTY_ASSIGNED_CONTEXT ( ( #44 ) ) GLOBAL_UNIT_ASSIGNED_CONTEXT ( ( #335, #569, #522 ) ) REPRESENTATION_CONTEXT ( 'NONE', 'WORKASPACE' ) );
#191 = DIRECTION ( 'NONE',  ( -0.000000000000000000, -0.000000000000000000, -1.000000000000000000 ) ) ;
#192 = EDGE_LOOP ( 'NONE', ( #289, #84, #38, #166 ) ) ;
#193 = DIRECTION ( 'NONE',  ( 1.000000000000000000, -0.000000000000000000, 0.000000000000000000 ) ) ;
#194 = EDGE_CURVE ( 'NONE', #250, #270, #106, .T. ) ;
#195 = DIRECTION ( 'NONE',  ( -0.000000000000000000, -0.000000000000000000, 1.000000000000000000 ) ) ;
#196 = CARTESIAN_POINT ( 'NONE',  ( 4.999999999999999112, 163.4478055186229710, -131.3988629815590059 ) ) ;
#197 = ORIENTED_EDGE ( 'NONE', *, *, #93, .F. ) ;
#198 = SHAPE_DEFINITION_REPRESENTATION ( #20, #329 ) ;
#199 = AXIS2_PLACEMENT_3D ( 'NONE', #315, #446, #298 ) ;
#200 = DIRECTION ( 'NONE',  ( -0.000000000000000000, -0.000000000000000000, -1.000000000000000000 ) ) ;
#201 = ADVANCED_FACE ( 'NONE', ( #37, #124 ), #135, .T. ) ;
#202 = CARTESIAN_POINT ( 'NONE',  ( 10.00000000000000000, 0.000000000000000000, -135.3988629815590059 ) ) ;
#203 = VERTEX_POINT ( 'NONE', #370 ) ;
#204 = DIRECTION ( 'NONE',  ( 0.000000000000000000, -1.000000000000000000, 0.000000000000000000 ) ) ;
#205 = CARTESIAN_POINT ( 'NONE',  ( 5.000000000000002665, 148.2478055186229824, -124.3988629815590201 ) ) ;
#206 = ORIENTED_EDGE ( 'NONE', *, *, #93, .T. ) ;
#207 = FACE_OUTER_BOUND ( 'NONE', #470, .T. ) ;
#208 = CIRCLE ( 'NONE', #2, 2.099999999999982769 ) ;
#209 = ORIENTED_EDGE ( 'NONE', *, *, #69, .T. ) ;
#210 = VECTOR ( 'NONE', #8, 1000.000000000000000 ) ;
#211 = LINE ( 'NONE', #554, #63 ) ;
#212 = EDGE_CURVE ( 'NONE', #476, #457, #80, .T. ) ;
#213 = VERTEX_POINT ( 'NONE', #618 ) ;
#214 = DIRECTION ( 'NONE',  ( -0.000000000000000000, -0.000000000000000000, 1.000000000000000000 ) ) ;
#215 = ORIENTED_EDGE ( 'NONE', *, *, #295, .F. ) ;
#216 = DIRECTION ( 'NONE',  ( 0.000000000000000000, 1.000000000000000000, 0.000000000000000000 ) ) ;
#217 = AXIS2_PLACEMENT_3D ( 'NONE', #308, #130, #25 ) ;
#218 = DIRECTION ( 'NONE',  ( 0.000000000000000000, 0.000000000000000000, -1.000000000000000000 ) ) ;
#219 = ORIENTED_EDGE ( 'NONE', *, *, #474, .F. ) ;
#220 = EDGE_CURVE ( 'NONE', #442, #523, #267, .T. ) ;
#221 = FACE_OUTER_BOUND ( 'NONE', #227, .T. ) ;
#222 = DIRECTION ( 'NONE',  ( 1.000000000000000000, 0.000000000000000000, 0.000000000000000000 ) ) ;
#223 = DIRECTION ( 'NONE',  ( -0.000000000000000000, -0.000000000000000000, 1.000000000000000000 ) ) ;
#224 = ORIENTED_EDGE ( 'NONE', *, *, #24, .F. ) ;
#225 = CARTESIAN_POINT ( 'NONE',  ( 0.000000000000000000, 0.000000000000000000, 0.000000000000000000 ) ) ;
#226 = CARTESIAN_POINT ( 'NONE',  ( 8.099999999999990763, 163.4478055186229710, -131.3988629815590059 ) ) ;
#227 = EDGE_LOOP ( 'NONE', ( #413, #159, #243, #575 ) ) ;
#228 = AXIS2_PLACEMENT_3D ( 'NONE', #513, #214, #557 ) ;
#229 = AXIS2_PLACEMENT_3D ( 'NONE', #529, #284, #336 ) ;
#230 = DIRECTION ( 'NONE',  ( -1.000000000000000000, 0.000000000000000000, 0.000000000000000000 ) ) ;
#231 = CARTESIAN_POINT ( 'NONE',  ( 7.099999999999974776, 148.2478055186229824, -127.3988629815590059 ) ) ;
#232 = CARTESIAN_POINT ( 'NONE',  ( 4.999999999999999112, 163.4478055186229710, -131.3988629815590059 ) ) ;
#233 = DIRECTION ( 'NONE',  ( -1.000000000000000000, 0.000000000000000000, -0.000000000000000000 ) ) ;
#234 = LINE ( 'NONE', #436, #574 ) ;
#235 = FACE_OUTER_BOUND ( 'NONE', #480, .T. ) ;
#236 = ORIENTED_EDGE ( 'NONE', *, *, #444, .T. ) ;
#237 = EDGE_CURVE ( 'NONE', #45, #593, #33, .T. ) ;
#238 = CIRCLE ( 'NONE', #291, 2.099999999999997868 ) ;
#239 = DIRECTION ( 'NONE',  ( 0.000000000000000000, -1.000000000000000000, 0.000000000000000000 ) ) ;
#240 = VECTOR ( 'NONE', #579, 1000.000000000000000 ) ;
#241 = FACE_BOUND ( 'NONE', #431, .T. ) ;
#242 = CARTESIAN_POINT ( 'NONE',  ( 5.000000000000000888, 178.6478055186229881, -124.3988629815590201 ) ) ;
#243 = ORIENTED_EDGE ( 'NONE', *, *, #115, .F. ) ;
#244 = LINE ( 'NONE', #547, #277 ) ;
#245 = EDGE_CURVE ( 'NONE', #442, #94, #398, .T. ) ;
#246 = VECTOR ( 'NONE', #239, 1000.000000000000000 ) ;
#247 = DIRECTION ( 'NONE',  ( -1.000000000000000000, 0.000000000000000000, 0.000000000000000000 ) ) ;
#248 = ORIENTED_EDGE ( 'NONE', *, *, #237, .F. ) ;
#249 = CARTESIAN_POINT ( 'NONE',  ( 0.000000000000000000, 173.4478055186229994, -135.3988629815590059 ) ) ;
#250 = VERTEX_POINT ( 'NONE', #478 ) ;
#251 = DIRECTION ( 'NONE',  ( 0.000000000000000000, 0.000000000000000000, -1.000000000000000000 ) ) ;
#252 = EDGE_CURVE ( 'NONE', #445, #515, #171, .T. ) ;
#253 = CARTESIAN_POINT ( 'NONE',  ( 0.000000000000000000, 183.6478055186230165, -127.3988629815590059 ) ) ;
#254 = VECTOR ( 'NONE', #435, 1000.000000000000000 ) ;
#255 = AXIS2_PLACEMENT_3D ( 'NONE', #122, #251, #565 ) ;
#256 = ORIENTED_EDGE ( 'NONE', *, *, #121, .T. ) ;
#257 = AXIS2_PLACEMENT_3D ( 'NONE', #12, #195, #393 ) ;
#258 = CARTESIAN_POINT ( 'NONE',  ( 10.00000000000000000, 173.4478055186229994, -127.3988629815590059 ) ) ;
#259 = DIRECTION ( 'NONE',  ( -1.000000000000000000, 0.000000000000000000, 0.000000000000000000 ) ) ;
#260 = ORIENTED_EDGE ( 'NONE', *, *, #403, .F. ) ;
#261 = CARTESIAN_POINT ( 'NONE',  ( 0.000000000000000000, 143.2478055186229824, -127.3988629815590059 ) ) ;
#262 = EDGE_CURVE ( 'NONE', #457, #476, #345, .T. ) ;
#263 = CARTESIAN_POINT ( 'NONE',  ( 5.000000000000000888, 178.6478055186229881, -127.3988629815590059 ) ) ;
#264 = ORIENTED_EDGE ( 'NONE', *, *, #507, .F. ) ;
#265 = CARTESIAN_POINT ( 'NONE',  ( 2.900000000000030553, 148.2478055186229824, -127.3988629815590059 ) ) ;
#266 = PRODUCT_DEFINITION_FORMATION_WITH_SPECIFIED_SOURCE ( 'ANY', '', #68, .NOT_KNOWN. ) ;
#267 = LINE ( 'NONE', #467, #429 ) ;
#268 = EDGE_LOOP ( 'NONE', ( #373, #16 ) ) ;
#269 = DIRECTION ( 'NONE',  ( -0.000000000000000000, -0.000000000000000000, -1.000000000000000000 ) ) ;
#270 = VERTEX_POINT ( 'NONE', #514 ) ;
#271 = DIRECTION ( 'NONE',  ( -1.000000000000000000, 0.000000000000000000, 0.000000000000000000 ) ) ;
#272 = CARTESIAN_POINT ( 'NONE',  ( 2.900000000000018119, 178.6478055186229881, -127.3988629815590059 ) ) ;
#273 = ORIENTED_EDGE ( 'NONE', *, *, #444, .F. ) ;
#274 = CYLINDRICAL_SURFACE ( 'NONE', #454, 2.099999999999997868 ) ;
#275 = ADVANCED_FACE ( 'NONE', ( #615, #147 ), #421, .T. ) ;
#276 = ORIENTED_EDGE ( 'NONE', *, *, #607, .T. ) ;
#277 = VECTOR ( 'NONE', #380, 1000.000000000000000 ) ;
#278 = VECTOR ( 'NONE', #385, 1000.000000000000000 ) ;
#279 = FACE_OUTER_BOUND ( 'NONE', #116, .T. ) ;
#280 = DIRECTION ( 'NONE',  ( -0.000000000000000000, -0.000000000000000000, 1.000000000000000000 ) ) ;
#281 = PLANE ( 'NONE',  #19 ) ;
#282 = VERTEX_POINT ( 'NONE', #177 ) ;
#283 = DIRECTION ( 'NONE',  ( 0.000000000000000000, -0.000000000000000000, -1.000000000000000000 ) ) ;
#284 = DIRECTION ( 'NONE',  ( 0.000000000000000000, 0.000000000000000000, -1.000000000000000000 ) ) ;
#285 = VERTEX_POINT ( 'NONE', #97 ) ;
#286 = EDGE_CURVE ( 'NONE', #390, #559, #558, .T. ) ;
#287 = DIRECTION ( 'NONE',  ( 0.000000000000000000, -0.000000000000000000, 1.000000000000000000 ) ) ;
#288 = CARTESIAN_POINT ( 'NONE',  ( 0.000000000000000000, 0.000000000000000000, -127.3988629815590059 ) ) ;
#289 = ORIENTED_EDGE ( 'NONE', *, *, #245, .T. ) ;
#290 = AXIS2_PLACEMENT_3D ( 'NONE', #205, #493, #180 ) ;
#291 = AXIS2_PLACEMENT_3D ( 'NONE', #553, #608, #77 ) ;
#292 = AXIS2_PLACEMENT_3D ( 'NONE', #151, #341, #536 ) ;
#293 = FACE_BOUND ( 'NONE', #64, .T. ) ;
#294 = CARTESIAN_POINT ( 'NONE',  ( 0.000000000000000000, 153.4478055186229994, -135.3988629815590059 ) ) ;
#295 = EDGE_CURVE ( 'NONE', #320, #484, #482, .T. ) ;
#296 = LINE ( 'NONE', #492, #299 ) ;
#297 = FACE_BOUND ( 'NONE', #92, .T. ) ;
#298 = DIRECTION ( 'NONE',  ( -0.000000000000000000, 0.000000000000000000, 1.000000000000000000 ) ) ;
#299 = VECTOR ( 'NONE', #111, 1000.000000000000000 ) ;
#300 = CARTESIAN_POINT ( 'NONE',  ( 1.900000000000007239, 163.4478055186229710, -131.3988629815590059 ) ) ;
#301 = ORIENTED_EDGE ( 'NONE', *, *, #115, .T. ) ;
#302 = CARTESIAN_POINT ( 'NONE',  ( 10.00000000000000000, 153.4478055186229994, -135.3988629815590059 ) ) ;
#303 = FACE_OUTER_BOUND ( 'NONE', #189, .T. ) ;
#304 = ORIENTED_EDGE ( 'NONE', *, *, #245, .F. ) ;
#305 = ADVANCED_FACE ( 'NONE', ( #132 ), #534, .F. ) ;
#306 = DIRECTION ( 'NONE',  ( -0.000000000000000000, -0.000000000000000000, 1.000000000000000000 ) ) ;
#307 = EDGE_LOOP ( 'NONE', ( #450, #447 ) ) ;
#308 = CARTESIAN_POINT ( 'NONE',  ( 4.999999999999999112, 163.4478055186229710, -124.3988629815590201 ) ) ;
#309 = AXIS2_PLACEMENT_3D ( 'NONE', #59, #338, #483 ) ;
#310 = VECTOR ( 'NONE', #360, 1000.000000000000000 ) ;
#311 = DIRECTION ( 'NONE',  ( -1.000000000000000000, 0.000000000000000000, 0.000000000000000000 ) ) ;
#312 = ORIENTED_EDGE ( 'NONE', *, *, #469, .T. ) ;
#313 = CARTESIAN_POINT ( 'NONE',  ( 2.900000000000001688, 163.4478055186229710, -131.3988629815590059 ) ) ;
#314 = ADVANCED_FACE ( 'NONE', ( #58 ), #128, .F. ) ;
#315 = CARTESIAN_POINT ( 'NONE',  ( 10.00000000000000000, 0.000000000000000000, -127.3988629815590059 ) ) ;
#316 = EDGE_LOOP ( 'NONE', ( #396, #56, #34, #550, #248, #30, #604, #206 ) ) ;
#317 = FACE_OUTER_BOUND ( 'NONE', #497, .T. ) ;
#318 = DIRECTION ( 'NONE',  ( -1.000000000000000000, 0.000000000000000000, 0.000000000000000000 ) ) ;
#319 = DIRECTION ( 'NONE',  ( -1.000000000000000000, 0.000000000000000000, 0.000000000000000000 ) ) ;
#320 = VERTEX_POINT ( 'NONE', #570 ) ;
#321 =( NAMED_UNIT ( * ) SI_UNIT ( $, .STERADIAN. ) SOLID_ANGLE_UNIT ( ) );
#322 = VECTOR ( 'NONE', #451, 1000.000000000000000 ) ;
#323 = ORIENTED_EDGE ( 'NONE', *, *, #384, .T. ) ;
#324 = CIRCLE ( 'NONE', #400, 2.099999999999972111 ) ;
#325 = ORIENTED_EDGE ( 'NONE', *, *, #121, .F. ) ;
#326 = ADVANCED_FACE ( 'NONE', ( #511 ), #462, .F. ) ;
#327 = PRODUCT_CONTEXT ( 'NONE', #357, 'mechanical' ) ;
#328 = ORIENTED_EDGE ( 'NONE', *, *, #410, .F. ) ;
#329 = ADVANCED_BREP_SHAPE_REPRESENTATION ( 'piezaT', ( #576, #439 ), #190 ) ;
#330 = SURFACE_STYLE_FILL_AREA ( #139 ) ;
#331 = CARTESIAN_POINT ( 'NONE',  ( 0.000000000000000000, 0.000000000000000000, -135.3988629815590059 ) ) ;
#332 = DIRECTION ( 'NONE',  ( 0.000000000000000000, -1.000000000000000000, 0.000000000000000000 ) ) ;
#333 = PRESENTATION_LAYER_ASSIGNMENT (  '', '', ( #465 ) ) ;
#334 = AXIS2_PLACEMENT_3D ( 'NONE', #598, #589, #549 ) ;
#335 =( LENGTH_UNIT ( ) NAMED_UNIT ( * ) SI_UNIT ( .MILLI., .METRE. ) );
#336 = DIRECTION ( 'NONE',  ( -1.000000000000000000, 0.000000000000000000, -0.000000000000000000 ) ) ;
#337 = EDGE_CURVE ( 'NONE', #358, #67, #600, .T. ) ;
#338 = DIRECTION ( 'NONE',  ( 0.000000000000000000, 0.000000000000000000, -1.000000000000000000 ) ) ;
#339 = FACE_OUTER_BOUND ( 'NONE', #102, .T. ) ;
#340 = CARTESIAN_POINT ( 'NONE',  ( 5.000000000000000888, 178.6478055186229881, -127.3988629815590059 ) ) ;
#341 = DIRECTION ( 'NONE',  ( 0.000000000000000000, 1.000000000000000000, 0.000000000000000000 ) ) ;
#342 = ORIENTED_EDGE ( 'NONE', *, *, #286, .F. ) ;
#343 = DIRECTION ( 'NONE',  ( 0.000000000000000000, 1.000000000000000000, 0.000000000000000000 ) ) ;
#344 = EDGE_LOOP ( 'NONE', ( #215, #79, #418, #105 ) ) ;
#345 = CIRCLE ( 'NONE', #107, 2.099999999999997868 ) ;
#346 = VECTOR ( 'NONE', #88, 1000.000000000000000 ) ;
#347 = LINE ( 'NONE', #21, #456 ) ;
#348 = VECTOR ( 'NONE', #479, 1000.000000000000000 ) ;
#349 = LINE ( 'NONE', #485, #348 ) ;
#350 = ORIENTED_EDGE ( 'NONE', *, *, #194, .T. ) ;
#351 = ADVANCED_FACE ( 'NONE', ( #61 ), #490, .F. ) ;
#352 = ORIENTED_EDGE ( 'NONE', *, *, #369, .T. ) ;
#353 = CARTESIAN_POINT ( 'NONE',  ( 10.00000000000000000, 173.4478055186229994, -135.3988629815590059 ) ) ;
#354 = VERTEX_POINT ( 'NONE', #70 ) ;
#355 = DIRECTION ( 'NONE',  ( 1.000000000000000000, 0.000000000000000000, 0.000000000000000000 ) ) ;
#356 = ADVANCED_FACE ( 'NONE', ( #449 ), #551, .T. ) ;
#357 = APPLICATION_CONTEXT ( 'automotive_design' ) ;
#358 = VERTEX_POINT ( 'NONE', #300 ) ;
#359 = DIRECTION ( 'NONE',  ( -0.000000000000000000, -0.000000000000000000, 1.000000000000000000 ) ) ;
#360 = DIRECTION ( 'NONE',  ( -0.000000000000000000, -0.000000000000000000, -1.000000000000000000 ) ) ;
#361 = EDGE_LOOP ( 'NONE', ( #168, #49, #54, #301 ) ) ;
#362 = DIRECTION ( 'NONE',  ( -1.000000000000000000, 0.000000000000000000, 0.000000000000000000 ) ) ;
#363 = ORIENTED_EDGE ( 'NONE', *, *, #556, .F. ) ;
#364 = LINE ( 'NONE', #562, #40 ) ;
#365 = AXIS2_PLACEMENT_3D ( 'NONE', #232, #6, #259 ) ;
#366 = DIRECTION ( 'NONE',  ( -0.000000000000000000, -0.000000000000000000, 1.000000000000000000 ) ) ;
#367 = ORIENTED_EDGE ( 'NONE', *, *, #82, .F. ) ;
#368 = PLANE ( 'NONE',  #255 ) ;
#369 = EDGE_CURVE ( 'NONE', #9, #133, #347, .T. ) ;
#370 = CARTESIAN_POINT ( 'NONE',  ( 2.900000000000030553, 148.2478055186229824, -124.3988629815590201 ) ) ;
#371 = VERTEX_POINT ( 'NONE', #402 ) ;
#372 = DIRECTION ( 'NONE',  ( 1.000000000000000000, 0.000000000000000000, 0.000000000000000000 ) ) ;
#373 = ORIENTED_EDGE ( 'NONE', *, *, #169, .F. ) ;
#374 = CARTESIAN_POINT ( 'NONE',  ( 4.999999999999999112, 163.4478055186229710, -124.3988629815590201 ) ) ;
#375 = VECTOR ( 'NONE', #502, 1000.000000000000000 ) ;
#376 = EDGE_CURVE ( 'NONE', #320, #619, #544, .T. ) ;
#377 = EDGE_LOOP ( 'NONE', ( #260, #328 ) ) ;
#378 = AXIS2_PLACEMENT_3D ( 'NONE', #249, #23, #287 ) ;
#379 = VERTEX_POINT ( 'NONE', #162 ) ;
#380 = DIRECTION ( 'NONE',  ( 0.000000000000000000, 1.000000000000000000, 0.000000000000000000 ) ) ;
#381 = CARTESIAN_POINT ( 'NONE',  ( 0.000000000000000000, 173.4478055186229994, -135.3988629815590059 ) ) ;
#382 = LINE ( 'NONE', #11, #621 ) ;
#383 = ORIENTED_EDGE ( 'NONE', *, *, #15, .T. ) ;
#384 = EDGE_CURVE ( 'NONE', #390, #379, #109, .T. ) ;
#385 = DIRECTION ( 'NONE',  ( -0.000000000000000000, -0.000000000000000000, 1.000000000000000000 ) ) ;
#386 = DIRECTION ( 'NONE',  ( -1.000000000000000000, 0.000000000000000000, -0.000000000000000000 ) ) ;
#387 = CARTESIAN_POINT ( 'NONE',  ( 10.00000000000000000, 183.6478055186230165, -127.3988629815590059 ) ) ;
#388 = AXIS2_PLACEMENT_3D ( 'NONE', #41, #473, #55 ) ;
#389 = DIRECTION ( 'NONE',  ( 0.000000000000000000, 0.000000000000000000, -1.000000000000000000 ) ) ;
#390 = VERTEX_POINT ( 'NONE', #353 ) ;
#391 = DIRECTION ( 'NONE',  ( 0.000000000000000000, 0.000000000000000000, -1.000000000000000000 ) ) ;
#392 = CARTESIAN_POINT ( 'NONE',  ( 0.000000000000000000, 0.000000000000000000, -124.3988629815590201 ) ) ;
#393 = DIRECTION ( 'NONE',  ( 1.000000000000000000, 0.000000000000000000, 0.000000000000000000 ) ) ;
#394 = DIRECTION ( 'NONE',  ( -1.000000000000000000, 0.000000000000000000, 0.000000000000000000 ) ) ;
#395 = CARTESIAN_POINT ( 'NONE',  ( 10.00000000000000000, 183.6478055186230165, -124.3988629815590201 ) ) ;
#396 = ORIENTED_EDGE ( 'NONE', *, *, #496, .T. ) ;
#397 = EDGE_CURVE ( 'NONE', #405, #523, #597, .T. ) ;
#398 = CIRCLE ( 'NONE', #506, 2.099999999999982769 ) ;
#399 = PLANE ( 'NONE',  #182 ) ;
#400 = AXIS2_PLACEMENT_3D ( 'NONE', #74, #591, #157 ) ;
#401 = ORIENTED_EDGE ( 'NONE', *, *, #220, .T. ) ;
#402 = CARTESIAN_POINT ( 'NONE',  ( 8.099999999999992539, 163.4478055186229710, -131.3988629815590059 ) ) ;
#403 = EDGE_CURVE ( 'NONE', #213, #354, #605, .T. ) ;
#404 = CARTESIAN_POINT ( 'NONE',  ( 0.000000000000000000, 0.000000000000000000, -124.3988629815590201 ) ) ;
#405 = VERTEX_POINT ( 'NONE', #440 ) ;
#406 = AXIS2_PLACEMENT_3D ( 'NONE', #164, #455, #355 ) ;
#407 = PLANE ( 'NONE',  #138 ) ;
#408 = VECTOR ( 'NONE', #230, 1000.000000000000000 ) ;
#409 = CARTESIAN_POINT ( 'NONE',  ( 0.000000000000000000, 183.6478055186230165, -124.3988629815590201 ) ) ;
#410 = EDGE_CURVE ( 'NONE', #354, #213, #324, .T. ) ;
#411 = LINE ( 'NONE', #464, #595 ) ;
#412 = CARTESIAN_POINT ( 'NONE',  ( 5.000000000000000888, 178.6478055186229881, -127.3988629815590059 ) ) ;
#413 = ORIENTED_EDGE ( 'NONE', *, *, #524, .T. ) ;
#414 = PRODUCT_DEFINITION ( 'UNKNOWN', '', #266, #601 ) ;
#415 = FACE_OUTER_BOUND ( 'NONE', #192, .T. ) ;
#416 = CARTESIAN_POINT ( 'NONE',  ( 5.000000000000000888, 178.6478055186229881, -124.3988629815590201 ) ) ;
#417 = DIRECTION ( 'NONE',  ( 0.000000000000000000, 0.000000000000000000, -1.000000000000000000 ) ) ;
#418 = ORIENTED_EDGE ( 'NONE', *, *, #518, .T. ) ;
#419 = APPLICATION_PROTOCOL_DEFINITION ( 'draft international standard', 'automotive_design', 1998, #357 ) ;
#420 = DIRECTION ( 'NONE',  ( -0.000000000000000000, -0.000000000000000000, -1.000000000000000000 ) ) ;
#421 = PLANE ( 'NONE',  #229 ) ;
#422 = EDGE_LOOP ( 'NONE', ( #363, #323, #60, #503 ) ) ;
#423 = UNCERTAINTY_MEASURE_WITH_UNIT (LENGTH_MEASURE( 1.000000000000000082E-05 ), #179, 'distance_accuracy_value', 'NONE');
#424 = ADVANCED_FACE ( 'NONE', ( #150 ), #399, .F. ) ;
#425 = CARTESIAN_POINT ( 'NONE',  ( 4.999999999999999112, 163.4478055186229710, -135.3988629815590059 ) ) ;
#426 = ORIENTED_EDGE ( 'NONE', *, *, #518, .F. ) ;
#427 = DIRECTION ( 'NONE',  ( 0.000000000000000000, 0.000000000000000000, 1.000000000000000000 ) ) ;
#428 = CARTESIAN_POINT ( 'NONE',  ( 0.000000000000000000, 0.000000000000000000, -127.3988629815590059 ) ) ;
#429 = VECTOR ( 'NONE', #223, 1000.000000000000000 ) ;
#430 = VECTOR ( 'NONE', #100, 1000.000000000000000 ) ;
#431 = EDGE_LOOP ( 'NONE', ( #27, #312 ) ) ;
#432 = AXIS2_PLACEMENT_3D ( 'NONE', #416, #131, #318 ) ;
#433 = CARTESIAN_POINT ( 'NONE',  ( 4.999999999999999112, 163.4478055186229710, -131.3988629815590059 ) ) ;
#434 = EDGE_CURVE ( 'NONE', #358, #371, #585, .T. ) ;
#435 = DIRECTION ( 'NONE',  ( 0.000000000000000000, 1.000000000000000000, 0.000000000000000000 ) ) ;
#436 = CARTESIAN_POINT ( 'NONE',  ( 0.000000000000000000, 173.4478055186229994, -135.3988629815590059 ) ) ;
#437 = PLANE ( 'NONE',  #292 ) ;
#438 = DIRECTION ( 'NONE',  ( -0.000000000000000000, -0.000000000000000000, 1.000000000000000000 ) ) ;
#439 = AXIS2_PLACEMENT_3D ( 'NONE', #225, #427, #3 ) ;
#440 = CARTESIAN_POINT ( 'NONE',  ( 2.900000000000018119, 178.6478055186229881, -124.3988629815590201 ) ) ;
#441 = DIRECTION ( 'NONE',  ( -0.000000000000000000, -0.000000000000000000, 1.000000000000000000 ) ) ;
#442 = VERTEX_POINT ( 'NONE', #153 ) ;
#443 = DIRECTION ( 'NONE',  ( -0.000000000000000000, -0.000000000000000000, 1.000000000000000000 ) ) ;
#444 = EDGE_CURVE ( 'NONE', #620, #476, #296, .T. ) ;
#445 = VERTEX_POINT ( 'NONE', #253 ) ;
#446 = DIRECTION ( 'NONE',  ( -1.000000000000000000, 0.000000000000000000, -0.000000000000000000 ) ) ;
#447 = ORIENTED_EDGE ( 'NONE', *, *, #212, .F. ) ;
#448 = ADVANCED_FACE ( 'NONE', ( #207 ), #165, .F. ) ;
#449 = FACE_OUTER_BOUND ( 'NONE', #571, .T. ) ;
#450 = ORIENTED_EDGE ( 'NONE', *, *, #262, .F. ) ;
#451 = DIRECTION ( 'NONE',  ( 1.000000000000000000, 0.000000000000000000, 0.000000000000000000 ) ) ;
#452 = ORIENTED_EDGE ( 'NONE', *, *, #376, .F. ) ;
#453 = VECTOR ( 'NONE', #222, 1000.000000000000000 ) ;
#454 = AXIS2_PLACEMENT_3D ( 'NONE', #374, #269, #520 ) ;
#455 = DIRECTION ( 'NONE',  ( -0.000000000000000000, -0.000000000000000000, 1.000000000000000000 ) ) ;
#456 = VECTOR ( 'NONE', #443, 1000.000000000000000 ) ;
#457 = VERTEX_POINT ( 'NONE', #313 ) ;
#458 = DIRECTION ( 'NONE',  ( -1.000000000000000000, 0.000000000000000000, 0.000000000000000000 ) ) ;
#459 = DIRECTION ( 'NONE',  ( 0.000000000000000000, 0.000000000000000000, -1.000000000000000000 ) ) ;
#460 = EDGE_LOOP ( 'NONE', ( #73, #526 ) ) ;
#461 = CARTESIAN_POINT ( 'NONE',  ( 0.000000000000000000, 153.4478055186229994, -127.3988629815590059 ) ) ;
#462 = PLANE ( 'NONE',  #199 ) ;
#463 = ORIENTED_EDGE ( 'NONE', *, *, #155, .F. ) ;
#464 = CARTESIAN_POINT ( 'NONE',  ( 0.000000000000000000, 143.2478055186229824, -127.3988629815590059 ) ) ;
#465 = STYLED_ITEM ( 'NONE', ( #527 ), #576 ) ;
#466 = DIRECTION ( 'NONE',  ( -1.000000000000000000, 0.000000000000000000, 0.000000000000000000 ) ) ;
#467 = CARTESIAN_POINT ( 'NONE',  ( 7.099999999999983658, 178.6478055186229881, -127.3988629815590059 ) ) ;
#468 = VERTEX_POINT ( 'NONE', #261 ) ;
#469 = EDGE_CURVE ( 'NONE', #620, #282, #552, .T. ) ;
#470 = EDGE_LOOP ( 'NONE', ( #163, #120, #175, #187 ) ) ;
#471 = CARTESIAN_POINT ( 'NONE',  ( 0.000000000000000000, 173.4478055186229994, -127.3988629815590059 ) ) ;
#472 = EDGE_LOOP ( 'NONE', ( #172, #463, #452, #367, #499, #22, #568, #352 ) ) ;
#473 = DIRECTION ( 'NONE',  ( 0.000000000000000000, 0.000000000000000000, -1.000000000000000000 ) ) ;
#474 = EDGE_CURVE ( 'NONE', #282, #457, #35, .T. ) ;
#475 = AXIS2_PLACEMENT_3D ( 'NONE', #91, #477, #283 ) ;
#476 = VERTEX_POINT ( 'NONE', #119 ) ;
#477 = DIRECTION ( 'NONE',  ( 0.000000000000000000, -1.000000000000000000, 0.000000000000000000 ) ) ;
#478 = CARTESIAN_POINT ( 'NONE',  ( 10.00000000000000000, 143.2478055186229824, -124.3988629815590201 ) ) ;
#479 = DIRECTION ( 'NONE',  ( -0.000000000000000000, -0.000000000000000000, 1.000000000000000000 ) ) ;
#480 = EDGE_LOOP ( 'NONE', ( #610, #590, #142, #125 ) ) ;
#481 = EDGE_CURVE ( 'NONE', #354, #203, #31, .T. ) ;
#482 = LINE ( 'NONE', #563, #210 ) ;
#483 = DIRECTION ( 'NONE',  ( -1.000000000000000000, 0.000000000000000000, 0.000000000000000000 ) ) ;
#484 = VERTEX_POINT ( 'NONE', #461 ) ;
#485 = CARTESIAN_POINT ( 'NONE',  ( 10.00000000000000000, 143.2478055186229824, -127.3988629815590059 ) ) ;
#486 = CARTESIAN_POINT ( 'NONE',  ( 10.00000000000000000, 0.000000000000000000, -124.3988629815590201 ) ) ;
#487 = LINE ( 'NONE', #13, #375 ) ;
#488 = EDGE_CURVE ( 'NONE', #45, #484, #211, .T. ) ;
#489 = CIRCLE ( 'NONE', #309, 3.099999999999992095 ) ;
#490 = CYLINDRICAL_SURFACE ( 'NONE', #531, 3.099999999999992095 ) ;
#491 = DIRECTION ( 'NONE',  ( -1.000000000000000000, 0.000000000000000000, 0.000000000000000000 ) ) ;
#492 = CARTESIAN_POINT ( 'NONE',  ( 7.099999999999996980, 163.4478055186229710, -124.3988629815590201 ) ) ;
#493 = DIRECTION ( 'NONE',  ( 0.000000000000000000, 0.000000000000000000, -1.000000000000000000 ) ) ;
#494 = CARTESIAN_POINT ( 'NONE',  ( 0.000000000000000000, 143.2478055186229824, -124.3988629815590201 ) ) ;
#495 = DIRECTION ( 'NONE',  ( -0.000000000000000000, -0.000000000000000000, -1.000000000000000000 ) ) ;
#496 = EDGE_CURVE ( 'NONE', #270, #515, #504, .T. ) ;
#497 = EDGE_LOOP ( 'NONE', ( #350, #197, #426, #586 ) ) ;
#498 = DIRECTION ( 'NONE',  ( 0.000000000000000000, 0.000000000000000000, -1.000000000000000000 ) ) ;
#499 = ORIENTED_EDGE ( 'NONE', *, *, #384, .F. ) ;
#500 = ADVANCED_FACE ( 'NONE', ( #415 ), #603, .F. ) ;
#501 = DIRECTION ( 'NONE',  ( -0.000000000000000000, -0.000000000000000000, 1.000000000000000000 ) ) ;
#502 = DIRECTION ( 'NONE',  ( -0.000000000000000000, -0.000000000000000000, 1.000000000000000000 ) ) ;
#503 = ORIENTED_EDGE ( 'NONE', *, *, #237, .T. ) ;
#504 = LINE ( 'NONE', #404, #52 ) ;
#505 = ORIENTED_EDGE ( 'NONE', *, *, #474, .T. ) ;
#506 = AXIS2_PLACEMENT_3D ( 'NONE', #412, #218, #101 ) ;
#507 = EDGE_CURVE ( 'NONE', #282, #620, #238, .T. ) ;
#508 = VECTOR ( 'NONE', #306, 1000.000000000000000 ) ;
#509 = DIRECTION ( 'NONE',  ( 0.000000000000000000, -0.000000000000000000, 1.000000000000000000 ) ) ;
#510 = CLOSED_SHELL ( 'NONE', ( #578, #351, #448, #500, #143, #326, #548, #424, #305, #587, #47, #528, #160, #356, #176, #201, #314, #275, #538 ) ) ;
#511 = FACE_OUTER_BOUND ( 'NONE', #472, .T. ) ;
#512 = EDGE_LOOP ( 'NONE', ( #224, #521, #76, #146 ) ) ;
#513 = CARTESIAN_POINT ( 'NONE',  ( 5.000000000000000888, 178.6478055186229881, -127.3988629815590059 ) ) ;
#514 = CARTESIAN_POINT ( 'NONE',  ( 0.000000000000000000, 143.2478055186229824, -124.3988629815590201 ) ) ;
#515 = VERTEX_POINT ( 'NONE', #409 ) ;
#516 = LINE ( 'NONE', #127, #346 ) ;
#517 = LINE ( 'NONE', #42, #453 ) ;
#518 = EDGE_CURVE ( 'NONE', #619, #468, #411, .T. ) ;
#519 = ORIENTED_EDGE ( 'NONE', *, *, #32, .T. ) ;
#520 = DIRECTION ( 'NONE',  ( -1.000000000000000000, 0.000000000000000000, 0.000000000000000000 ) ) ;
#521 = ORIENTED_EDGE ( 'NONE', *, *, #524, .F. ) ;
#522 =( NAMED_UNIT ( * ) SI_UNIT ( $, .STERADIAN. ) SOLID_ANGLE_UNIT ( ) );
#523 = VERTEX_POINT ( 'NONE', #85 ) ;
#524 = EDGE_CURVE ( 'NONE', #515, #133, #614, .T. ) ;
#525 = SURFACE_STYLE_USAGE ( .BOTH. , #144 ) ;
#526 = ORIENTED_EDGE ( 'NONE', *, *, #596, .T. ) ;
#527 = PRESENTATION_STYLE_ASSIGNMENT (( #525 ) ) ;
#528 = ADVANCED_FACE ( 'NONE', ( #173, #117 ), #368, .T. ) ;
#529 = CARTESIAN_POINT ( 'NONE',  ( 0.000000000000000000, 0.000000000000000000, -131.3988629815590059 ) ) ;
#530 = FACE_BOUND ( 'NONE', #460, .T. ) ;
#531 = AXIS2_PLACEMENT_3D ( 'NONE', #196, #200, #247 ) ;
#532 = ORIENTED_EDGE ( 'NONE', *, *, #262, .T. ) ;
#533 = CARTESIAN_POINT ( 'NONE',  ( 10.00000000000000000, 143.2478055186229824, -127.3988629815590059 ) ) ;
#534 = CYLINDRICAL_SURFACE ( 'NONE', #560, 2.099999999999982769 ) ;
#535 = CYLINDRICAL_SURFACE ( 'NONE', #257, 2.099999999999971667 ) ;
#536 = DIRECTION ( 'NONE',  ( 0.000000000000000000, -0.000000000000000000, 1.000000000000000000 ) ) ;
#537 = ORIENTED_EDGE ( 'NONE', *, *, #481, .F. ) ;
#538 = ADVANCED_FACE ( 'NONE', ( #303 ), #75, .F. ) ;
#539 = CARTESIAN_POINT ( 'NONE',  ( 10.00000000000000000, 0.000000000000000000, -127.3988629815590059 ) ) ;
#540 = CARTESIAN_POINT ( 'NONE',  ( 1.900000000000007239, 163.4478055186229710, -135.3988629815590059 ) ) ;
#541 = AXIS2_PLACEMENT_3D ( 'NONE', #331, #459, #386 ) ;
#542 = AXIS2_PLACEMENT_3D ( 'NONE', #81, #167, #458 ) ;
#543 = CIRCLE ( 'NONE', #290, 2.099999999999972111 ) ;
#544 = LINE ( 'NONE', #539, #246 ) ;
#545 = FACE_OUTER_BOUND ( 'NONE', #512, .T. ) ;
#546 = ORIENTED_EDGE ( 'NONE', *, *, #397, .T. ) ;
#547 = CARTESIAN_POINT ( 'NONE',  ( 0.000000000000000000, 0.000000000000000000, -127.3988629815590059 ) ) ;
#548 = ADVANCED_FACE ( 'NONE', ( #317 ), #407, .F. ) ;
#549 = DIRECTION ( 'NONE',  ( -1.000000000000000000, 0.000000000000000000, 0.000000000000000000 ) ) ;
#550 = ORIENTED_EDGE ( 'NONE', *, *, #32, .F. ) ;
#551 = PLANE ( 'NONE',  #378 ) ;
#552 = CIRCLE ( 'NONE', #542, 2.099999999999997868 ) ;
#553 = CARTESIAN_POINT ( 'NONE',  ( 4.999999999999999112, 163.4478055186229710, -124.3988629815590201 ) ) ;
#554 = CARTESIAN_POINT ( 'NONE',  ( 0.000000000000000000, 153.4478055186229994, -135.3988629815590059 ) ) ;
#555 = ORIENTED_EDGE ( 'NONE', *, *, #410, .T. ) ;
#556 = EDGE_CURVE ( 'NONE', #390, #593, #516, .T. ) ;
#557 = DIRECTION ( 'NONE',  ( 1.000000000000000000, 0.000000000000000000, 0.000000000000000000 ) ) ;
#558 = LINE ( 'NONE', #86, #156 ) ;
#559 = VERTEX_POINT ( 'NONE', #258 ) ;
#560 = AXIS2_PLACEMENT_3D ( 'NONE', #263, #280, #372 ) ;
#561 = CIRCLE ( 'NONE', #388, 2.099999999999972111 ) ;
#562 = CARTESIAN_POINT ( 'NONE',  ( 10.00000000000000000, 0.000000000000000000, -127.3988629815590059 ) ) ;
#563 = CARTESIAN_POINT ( 'NONE',  ( 0.000000000000000000, 153.4478055186229994, -127.3988629815590059 ) ) ;
#564 = ORIENTED_EDGE ( 'NONE', *, *, #98, .T. ) ;
#565 = DIRECTION ( 'NONE',  ( -1.000000000000000000, 0.000000000000000000, -0.000000000000000000 ) ) ;
#566 = EDGE_CURVE ( 'NONE', #9, #559, #364, .T. ) ;
#567 = CARTESIAN_POINT ( 'NONE',  ( 4.999999999999999112, 163.4478055186229710, -131.3988629815590059 ) ) ;
#568 = ORIENTED_EDGE ( 'NONE', *, *, #566, .F. ) ;
#569 =( NAMED_UNIT ( * ) PLANE_ANGLE_UNIT ( ) SI_UNIT ( $, .RADIAN. ) );
#570 = CARTESIAN_POINT ( 'NONE',  ( 10.00000000000000000, 153.4478055186229994, -127.3988629815590059 ) ) ;
#571 = EDGE_LOOP ( 'NONE', ( #602, #342, #95, #519 ) ) ;
#572 = PLANE ( 'NONE',  #475 ) ;
#573 = VECTOR ( 'NONE', #359, 1000.000000000000000 ) ;
#574 = VECTOR ( 'NONE', #438, 1000.000000000000000 ) ;
#575 = ORIENTED_EDGE ( 'NONE', *, *, #252, .T. ) ;
#576 = MANIFOLD_SOLID_BREP ( 'Cortar-Extruir2', #510 ) ;
#577 = ORIENTED_EDGE ( 'NONE', *, *, #212, .T. ) ;
#578 = ADVANCED_FACE ( 'NONE', ( #279 ), #274, .F. ) ;
#579 = DIRECTION ( 'NONE',  ( -1.000000000000000000, 0.000000000000000000, 0.000000000000000000 ) ) ;
#580 =( NAMED_UNIT ( * ) PLANE_ANGLE_UNIT ( ) SI_UNIT ( $, .RADIAN. ) );
#581 = LINE ( 'NONE', #486, #26 ) ;
#582 = LINE ( 'NONE', #302, #573 ) ;
#583 = CARTESIAN_POINT ( 'NONE',  ( 0.000000000000000000, 173.4478055186229994, -127.3988629815590059 ) ) ;
#584 = PLANE ( 'NONE',  #181 ) ;
#585 = CIRCLE ( 'NONE', #334, 3.099999999999992095 ) ;
#586 = ORIENTED_EDGE ( 'NONE', *, *, #155, .T. ) ;
#587 = ADVANCED_FACE ( 'NONE', ( #221 ), #572, .F. ) ;
#588 = ORIENTED_EDGE ( 'NONE', *, *, #15, .F. ) ;
#589 = DIRECTION ( 'NONE',  ( 0.000000000000000000, 0.000000000000000000, -1.000000000000000000 ) ) ;
#590 = ORIENTED_EDGE ( 'NONE', *, *, #488, .F. ) ;
#591 = DIRECTION ( 'NONE',  ( 0.000000000000000000, 0.000000000000000000, -1.000000000000000000 ) ) ;
#592 = CARTESIAN_POINT ( 'NONE',  ( 7.099999999999974776, 148.2478055186229824, -124.3988629815590201 ) ) ;
#593 = VERTEX_POINT ( 'NONE', #381 ) ;
#594 = VECTOR ( 'NONE', #343, 1000.000000000000000 ) ;
#595 = VECTOR ( 'NONE', #362, 1000.000000000000000 ) ;
#596 = EDGE_CURVE ( 'NONE', #203, #129, #561, .T. ) ;
#597 = CIRCLE ( 'NONE', #137, 2.099999999999982769 ) ;
#598 = CARTESIAN_POINT ( 'NONE',  ( 4.999999999999999112, 163.4478055186229710, -131.3988629815590059 ) ) ;
#599 = VERTEX_POINT ( 'NONE', #471 ) ;
#600 = LINE ( 'NONE', #66, #96 ) ;
#601 = PRODUCT_DEFINITION_CONTEXT ( 'detailed design', #161, 'design' ) ;
#602 = ORIENTED_EDGE ( 'NONE', *, *, #611, .F. ) ;
#603 = CYLINDRICAL_SURFACE ( 'NONE', #228, 2.099999999999982769 ) ;
#604 = ORIENTED_EDGE ( 'NONE', *, *, #185, .F. ) ;
#605 = CIRCLE ( 'NONE', #53, 2.099999999999972111 ) ;
#606 = CARTESIAN_POINT ( 'NONE',  ( 0.000000000000000000, 143.2478055186229824, -127.3988629815590059 ) ) ;
#607 = EDGE_CURVE ( 'NONE', #213, #129, #5, .T. ) ;
#608 = DIRECTION ( 'NONE',  ( 0.000000000000000000, 0.000000000000000000, -1.000000000000000000 ) ) ;
#609 = CARTESIAN_POINT ( 'NONE',  ( 0.000000000000000000, 183.6478055186230165, -124.3988629815590201 ) ) ;
#610 = ORIENTED_EDGE ( 'NONE', *, *, #295, .T. ) ;
#611 = EDGE_CURVE ( 'NONE', #559, #599, #46, .T. ) ;
#612 = CIRCLE ( 'NONE', #140, 3.099999999999992095 ) ;
#613 = MECHANICAL_DESIGN_GEOMETRIC_PRESENTATION_REPRESENTATION (  '', ( #465 ), #71 ) ;
#614 = LINE ( 'NONE', #609, #322 ) ;
#615 = FACE_BOUND ( 'NONE', #307, .T. ) ;
#616 = ORIENTED_EDGE ( 'NONE', *, *, #434, .F. ) ;
#617 = LINE ( 'NONE', #428, #594 ) ;
#618 = CARTESIAN_POINT ( 'NONE',  ( 7.099999999999974776, 148.2478055186229824, -127.3988629815590059 ) ) ;
#619 = VERTEX_POINT ( 'NONE', #533 ) ;
#620 = VERTEX_POINT ( 'NONE', #50 ) ;
#621 = VECTOR ( 'NONE', #441, 1000.000000000000000 ) ;
ENDSEC;
END-ISO-10303-21;
