ISO-10303-21;
HEADER;
FILE_DESCRIPTION (( 'STEP AP214' ),
    '1' );
FILE_NAME ('clampC.STEP',
    '2026-03-27T02:47:50',
    ( '' ),
    ( '' ),
    'SwSTEP 2.0',
    'SolidWorks 2025',
    '' );
FILE_SCHEMA (( 'AUTOMOTIVE_DESIGN' ));
ENDSEC;

DATA;
#1 = ORIENTED_EDGE ( 'NONE', *, *, #130, .T. ) ;
#2 = VERTEX_POINT ( 'NONE', #400 ) ;
#3 = AXIS2_PLACEMENT_3D ( 'NONE', #25, #721, #583 ) ;
#4 = FACE_OUTER_BOUND ( 'NONE', #581, .T. ) ;
#5 = VECTOR ( 'NONE', #497, 1000.000000000000000 ) ;
#6 = ORIENTED_EDGE ( 'NONE', *, *, #83, .F. ) ;
#7 = ORIENTED_EDGE ( 'NONE', *, *, #112, .F. ) ;
#8 = DIRECTION ( 'NONE',  ( 0.000000000000000000, 0.000000000000000000, -1.000000000000000000 ) ) ;
#9 = PLANE ( 'NONE',  #151 ) ;
#10 = FACE_BOUND ( 'NONE', #333, .T. ) ;
#11 = PLANE ( 'NONE',  #165 ) ;
#12 = DIRECTION ( 'NONE',  ( -1.000000000000000000, -0.000000000000000000, -0.000000000000000000 ) ) ;
#13 = ORIENTED_EDGE ( 'NONE', *, *, #468, .T. ) ;
#14 = CARTESIAN_POINT ( 'NONE',  ( 0.000000000000000000, 0.000000000000000000, 0.000000000000000000 ) ) ;
#15 = EDGE_CURVE ( 'NONE', #607, #709, #519, .T. ) ;
#16 = CARTESIAN_POINT ( 'NONE',  ( 5.574639876785360215, 150.3710817613196866, -122.8657569939595788 ) ) ;
#17 = AXIS2_PLACEMENT_3D ( 'NONE', #235, #293, #805 ) ;
#18 = CARTESIAN_POINT ( 'NONE',  ( -2.525360123214641206, 160.6882390488450767, -110.9829142814849519 ) ) ;
#19 = AXIS2_PLACEMENT_3D ( 'NONE', #592, #403, #714 ) ;
#20 = ADVANCED_FACE ( 'NONE', ( #268 ), #725, .F. ) ;
#21 = AXIS2_PLACEMENT_3D ( 'NONE', #466, #713, #720 ) ;
#22 = EDGE_CURVE ( 'NONE', #199, #578, #594, .T. ) ;
#23 = ORIENTED_EDGE ( 'NONE', *, *, #376, .T. ) ;
#24 = FACE_OUTER_BOUND ( 'NONE', #474, .T. ) ;
#25 = CARTESIAN_POINT ( 'NONE',  ( -2.525360123214641206, 155.7710817613197207, -106.0657569939595533 ) ) ;
#26 = CARTESIAN_POINT ( 'NONE',  ( 7.474639876785359682, 155.3710817613196866, -125.6657569939595476 ) ) ;
#27 = EDGE_LOOP ( 'NONE', ( #775, #109, #131, #470 ) ) ;
#28 = DIRECTION ( 'NONE',  ( 0.000000000000000000, 0.000000000000000000, -1.000000000000000000 ) ) ;
#29 = EDGE_LOOP ( 'NONE', ( #325, #504, #559, #89, #70, #516, #198, #159, #716, #507, #510, #220 ) ) ;
#30 = EDGE_CURVE ( 'NONE', #392, #782, #354, .T. ) ;
#31 = EDGE_LOOP ( 'NONE', ( #668, #671, #545, #637 ) ) ;
#32 = CARTESIAN_POINT ( 'NONE',  ( 2.474639876785361015, 150.3710817613196866, -122.8657569939595788 ) ) ;
#33 = CARTESIAN_POINT ( 'NONE',  ( 7.474639876785359682, 175.7710817613209144, -1.984328450604611070E-12 ) ) ;
#34 = VECTOR ( 'NONE', #588, 1000.000000000000000 ) ;
#35 = CIRCLE ( 'NONE', #380, 0.3999999999999975797 ) ;
#36 = VERTEX_POINT ( 'NONE', #464 ) ;
#37 = CARTESIAN_POINT ( 'NONE',  ( 6.217785038075658299, 178.0973457419062527, -125.6657569939595760 ) ) ;
#38 = DIRECTION ( 'NONE',  ( -1.000000000000000000, 0.000000000000000000, 0.000000000000000000 ) ) ;
#39 = LINE ( 'NONE', #103, #701 ) ;
#40 = CARTESIAN_POINT ( 'NONE',  ( 7.474639876785359682, 175.3710817613197150, -106.0657569939595817 ) ) ;
#41 = DIRECTION ( 'NONE',  ( 0.000000000000000000, 0.000000000000000000, -1.000000000000000000 ) ) ;
#42 = LINE ( 'NONE', #357, #270 ) ;
#43 = AXIS2_PLACEMENT_3D ( 'NONE', #745, #48, #38 ) ;
#44 = CIRCLE ( 'NONE', #511, 15.31715728752541850 ) ;
#45 = EDGE_CURVE ( 'NONE', #215, #36, #416, .T. ) ;
#46 = AXIS2_PLACEMENT_3D ( 'NONE', #180, #381, #694 ) ;
#47 = SURFACE_STYLE_FILL_AREA ( #683 ) ;
#48 = DIRECTION ( 'NONE',  ( 0.000000000000000000, 0.000000000000000000, -1.000000000000000000 ) ) ;
#49 = VERTEX_POINT ( 'NONE', #75 ) ;
#50 = CARTESIAN_POINT ( 'NONE',  ( 4.997194224611433810, 148.5692161830193356, -122.8657569939595788 ) ) ;
#51 = CARTESIAN_POINT ( 'NONE',  ( -2.525360123214641206, 0.000000000000000000, -125.6657569939595476 ) ) ;
#52 = ORIENTED_EDGE ( 'NONE', *, *, #167, .F. ) ;
#53 = ADVANCED_FACE ( 'NONE', ( #473 ), #9, .F. ) ;
#54 = CARTESIAN_POINT ( 'NONE',  ( 7.474639876785359682, 185.7710817613196923, -125.6657569939595760 ) ) ;
#55 = CARTESIAN_POINT ( 'NONE',  ( 7.474639876785359682, 185.7710817613196923, 0.000000000000000000 ) ) ;
#56 = EDGE_CURVE ( 'NONE', #79, #690, #312, .T. ) ;
#57 = VERTEX_POINT ( 'NONE', #78 ) ;
#58 = CIRCLE ( 'NONE', #631, 3.099999999999989431 ) ;
#59 = DIRECTION ( 'NONE',  ( 0.000000000000000000, 0.000000000000000000, -1.000000000000000000 ) ) ;
#60 = VECTOR ( 'NONE', #598, 1000.000000000000000 ) ;
#61 = FACE_OUTER_BOUND ( 'NONE', #628, .T. ) ;
#62 = VERTEX_POINT ( 'NONE', #780 ) ;
#63 = CARTESIAN_POINT ( 'NONE',  ( -2.525360123214641206, 170.4539244737943022, -110.9829142814849945 ) ) ;
#64 = DIRECTION ( 'NONE',  ( 0.000000000000000000, -1.128927711384928074E-14, -1.000000000000000000 ) ) ;
#65 = ORIENTED_EDGE ( 'NONE', *, *, #818, .F. ) ;
#66 = ORIENTED_EDGE ( 'NONE', *, *, #652, .F. ) ;
#67 = LINE ( 'NONE', #306, #179 ) ;
#68 = CARTESIAN_POINT ( 'NONE',  ( 7.474639876785359682, 175.3710817613197150, -106.0657569939595817 ) ) ;
#69 = ORIENTED_EDGE ( 'NONE', *, *, #56, .T. ) ;
#70 = ORIENTED_EDGE ( 'NONE', *, *, #344, .F. ) ;
#71 = CARTESIAN_POINT ( 'NONE',  ( 5.866978586462768597, 181.9864163155985182, -122.8657569939595788 ) ) ;
#72 = VECTOR ( 'NONE', #105, 1000.000000000000000 ) ;
#73 = VECTOR ( 'NONE', #64, 1000.000000000000000 ) ;
#74 = PLANE ( 'NONE',  #137 ) ;
#75 = CARTESIAN_POINT ( 'NONE',  ( -0.6253601232146283051, 150.3710817613196866, -122.8657569939595788 ) ) ;
#76 = EDGE_LOOP ( 'NONE', ( #1, #275, #264, #570 ) ) ;
#77 = CARTESIAN_POINT ( 'NONE',  ( 0.000000000000000000, 0.000000000000000000, -122.8657569939595788 ) ) ;
#78 = CARTESIAN_POINT ( 'NONE',  ( -2.525360123214641206, 185.7710817613196923, -110.9829142814849945 ) ) ;
#79 = VERTEX_POINT ( 'NONE', #210 ) ;
#80 = FACE_OUTER_BOUND ( 'NONE', #76, .T. ) ;
#81 = DIRECTION ( 'NONE',  ( 1.000000000000000000, -0.000000000000000000, 0.000000000000000000 ) ) ;
#82 = CARTESIAN_POINT ( 'NONE',  ( 7.474639876785359682, 155.7710817613197207, -105.6657569939595618 ) ) ;
#83 = EDGE_CURVE ( 'NONE', #455, #733, #722, .T. ) ;
#84 = DIRECTION ( 'NONE',  ( -1.000000000000000000, 0.000000000000000000, 0.000000000000000000 ) ) ;
#85 = AXIS2_PLACEMENT_3D ( 'NONE', #738, #361, #296 ) ;
#86 = LINE ( 'NONE', #351, #539 ) ;
#87 = AXIS2_PLACEMENT_3D ( 'NONE', #481, #94, #737 ) ;
#88 = MECHANICAL_DESIGN_GEOMETRIC_PRESENTATION_REPRESENTATION (  '', ( #688 ), #620 ) ;
#89 = ORIENTED_EDGE ( 'NONE', *, *, #130, .F. ) ;
#90 = ADVANCED_FACE ( 'NONE', ( #214 ), #149, .T. ) ;
#91 = FACE_OUTER_BOUND ( 'NONE', #221, .T. ) ;
#92 = DIRECTION ( 'NONE',  ( 0.000000000000000000, -0.000000000000000000, -1.000000000000000000 ) ) ;
#93 = ORIENTED_EDGE ( 'NONE', *, *, #442, .F. ) ;
#94 = DIRECTION ( 'NONE',  ( 0.000000000000000000, 0.000000000000000000, -1.000000000000000000 ) ) ;
#95 = CYLINDRICAL_SURFACE ( 'NONE', #85, 1.499999999999999556 ) ;
#96 = VERTEX_POINT ( 'NONE', #660 ) ;
#97 = DIRECTION ( 'NONE',  ( -0.000000000000000000, -0.000000000000000000, -1.000000000000000000 ) ) ;
#98 = LINE ( 'NONE', #287, #552 ) ;
#99 = AXIS2_PLACEMENT_3D ( 'NONE', #55, #506, #772 ) ;
#100 = PRODUCT_DEFINITION_FORMATION_WITH_SPECIFIED_SOURCE ( 'ANY', '', #228, .NOT_KNOWN. ) ;
#101 = CARTESIAN_POINT ( 'NONE',  ( 6.217785038075664517, 153.0448177807331547, -125.6657569939595476 ) ) ;
#102 = DIRECTION ( 'NONE',  ( 0.000000000000000000, 0.000000000000000000, 1.000000000000000000 ) ) ;
#103 = CARTESIAN_POINT ( 'NONE',  ( 7.474639876785359682, 160.6882390488450767, -95.66575699395956178 ) ) ;
#104 = ADVANCED_FACE ( 'NONE', ( #584 ), #95, .T. ) ;
#105 = DIRECTION ( 'NONE',  ( -0.000000000000000000, -0.000000000000000000, -1.000000000000000000 ) ) ;
#106 = EDGE_CURVE ( 'NONE', #215, #455, #42, .T. ) ;
#107 = CYLINDRICAL_SURFACE ( 'NONE', #794, 3.099999999999989431 ) ;
#108 = DIRECTION ( 'NONE',  ( -0.000000000000000000, -0.000000000000000000, -1.000000000000000000 ) ) ;
#109 = ORIENTED_EDGE ( 'NONE', *, *, #353, .F. ) ;
#110 = CLOSED_SHELL ( 'NONE', ( #250, #259, #551, #314, #53, #176, #20, #225, #812, #356, #440, #801, #281, #740, #430, #667, #262, #489, #465, #590, #739, #618, #90, #829, #417, #104 ) ) ;
#111 = CARTESIAN_POINT ( 'NONE',  ( 5.866978586462769485, 149.1557472070408323, -122.8657569939595788 ) ) ;
#112 = EDGE_CURVE ( 'NONE', #513, #324, #232, .T. ) ;
#113 = DIRECTION ( 'NONE',  ( -1.000000000000000000, 0.000000000000000000, 0.000000000000000000 ) ) ;
#114 = ORIENTED_EDGE ( 'NONE', *, *, #636, .F. ) ;
#115 = DIRECTION ( 'NONE',  ( 0.000000000000000000, 0.000000000000000000, -1.000000000000000000 ) ) ;
#116 = EDGE_CURVE ( 'NONE', #224, #621, #549, .T. ) ;
#117 = CARTESIAN_POINT ( 'NONE',  ( -2.525360123214641206, 185.7710817613196923, -125.6657569939595760 ) ) ;
#118 = ORIENTED_EDGE ( 'NONE', *, *, #169, .F. ) ;
#119 = DIRECTION ( 'NONE',  ( 0.000000000000000000, 0.000000000000000000, -1.000000000000000000 ) ) ;
#120 = LINE ( 'NONE', #193, #566 ) ;
#121 = ORIENTED_EDGE ( 'NONE', *, *, #298, .F. ) ;
#122 = CIRCLE ( 'NONE', #595, 3.099999999999982769 ) ;
#123 = CARTESIAN_POINT ( 'NONE',  ( 7.474639876785359682, 185.7710817613196923, -110.9829142814849945 ) ) ;
#124 = AXIS2_PLACEMENT_3D ( 'NONE', #14, #783, #200 ) ;
#125 = DIRECTION ( 'NONE',  ( 0.000000000000000000, 0.000000000000000000, -1.000000000000000000 ) ) ;
#126 = EDGE_LOOP ( 'NONE', ( #563, #596, #203, #330, #258, #244, #642, #7, #346, #407, #729, #304 ) ) ;
#127 = EDGE_LOOP ( 'NONE', ( #456, #707, #196, #479, #719 ) ) ;
#128 = CYLINDRICAL_SURFACE ( 'NONE', #154, 0.3999999999999975797 ) ;
#129 = ORIENTED_EDGE ( 'NONE', *, *, #204, .T. ) ;
#130 = EDGE_CURVE ( 'NONE', #621, #308, #98, .T. ) ;
#131 = ORIENTED_EDGE ( 'NONE', *, *, #535, .F. ) ;
#132 = LINE ( 'NONE', #586, #60 ) ;
#133 = CARTESIAN_POINT ( 'NONE',  ( 7.474639876785359682, 170.4539244737943307, -95.66575699395956178 ) ) ;
#134 = ORIENTED_EDGE ( 'NONE', *, *, #500, .F. ) ;
#135 = ORIENTED_EDGE ( 'NONE', *, *, #478, .F. ) ;
#136 = DIRECTION ( 'NONE',  ( 0.000000000000000000, 0.000000000000000000, 1.000000000000000000 ) ) ;
#137 = AXIS2_PLACEMENT_3D ( 'NONE', #77, #328, #213 ) ;
#138 = DIRECTION ( 'NONE',  ( -1.000000000000000000, 0.000000000000000000, 0.000000000000000000 ) ) ;
#139 = EDGE_CURVE ( 'NONE', #574, #62, #378, .T. ) ;
#140 = VERTEX_POINT ( 'NONE', #223 ) ;
#141 = ORIENTED_EDGE ( 'NONE', *, *, #442, .T. ) ;
#142 =( NAMED_UNIT ( * ) PLANE_ANGLE_UNIT ( ) SI_UNIT ( $, .RADIAN. ) );
#143 = CARTESIAN_POINT ( 'NONE',  ( 7.474639876785359682, 0.000000000000000000, 0.000000000000000000 ) ) ;
#144 = EDGE_CURVE ( 'NONE', #140, #770, #485, .T. ) ;
#145 = ORIENTED_EDGE ( 'NONE', *, *, #30, .F. ) ;
#146 = ORIENTED_EDGE ( 'NONE', *, *, #414, .F. ) ;
#147 = CARTESIAN_POINT ( 'NONE',  ( 5.574639876785360215, 150.3710817613196866, -125.6657569939595476 ) ) ;
#148 = APPLICATION_CONTEXT ( 'automotive_design' ) ;
#149 = CYLINDRICAL_SURFACE ( 'NONE', #615, 1.500000000000000444 ) ;
#150 = ORIENTED_EDGE ( 'NONE', *, *, #550, .F. ) ;
#151 = AXIS2_PLACEMENT_3D ( 'NONE', #593, #412, #666 ) ;
#152 = DIRECTION ( 'NONE',  ( -1.000000000000000000, 0.000000000000000000, 0.000000000000000000 ) ) ;
#153 = DIRECTION ( 'NONE',  ( 1.000000000000000000, -1.850371707708593813E-14, 0.000000000000000000 ) ) ;
#154 = AXIS2_PLACEMENT_3D ( 'NONE', #68, #316, #569 ) ;
#155 = AXIS2_PLACEMENT_3D ( 'NONE', #746, #362, #608 ) ;
#156 = VERTEX_POINT ( 'NONE', #487 ) ;
#157 = LINE ( 'NONE', #297, #253 ) ;
#158 = CARTESIAN_POINT ( 'NONE',  ( 6.217785038075658299, 183.4448177807331604, -125.6657569939595760 ) ) ;
#159 = ORIENTED_EDGE ( 'NONE', *, *, #402, .T. ) ;
#160 = DIRECTION ( 'NONE',  ( -1.000000000000000000, -0.000000000000000000, -0.000000000000000000 ) ) ;
#161 = DIRECTION ( 'NONE',  ( -1.000000000000000000, -0.000000000000000000, -0.000000000000000000 ) ) ;
#162 = FILL_AREA_STYLE_COLOUR ( '', #256 ) ;
#163 = CARTESIAN_POINT ( 'NONE',  ( 5.866978586462770373, 181.9864163155985182, -125.6657569939595760 ) ) ;
#164 = AXIS2_PLACEMENT_3D ( 'NONE', #534, #217, #785 ) ;
#165 = AXIS2_PLACEMENT_3D ( 'NONE', #143, #81, #197 ) ;
#166 = VECTOR ( 'NONE', #698, 1000.000000000000000 ) ;
#167 = EDGE_CURVE ( 'NONE', #578, #413, #409, .T. ) ;
#168 = CARTESIAN_POINT ( 'NONE',  ( 4.997194224611424929, 182.5729473396200717, -122.8657569939595788 ) ) ;
#169 = EDGE_CURVE ( 'NONE', #751, #49, #806, .T. ) ;
#170 = DIRECTION ( 'NONE',  ( 0.000000000000000000, 0.000000000000000000, -1.000000000000000000 ) ) ;
#171 = DIRECTION ( 'NONE',  ( 1.000000000000000000, -1.850371707708593813E-14, 0.000000000000000000 ) ) ;
#172 = CARTESIAN_POINT ( 'NONE',  ( -0.6253601232146283051, 150.3710817613196866, -122.8657569939595788 ) ) ;
#173 = ORIENTED_EDGE ( 'NONE', *, *, #374, .F. ) ;
#174 = DIRECTION ( 'NONE',  ( 0.000000000000000000, 0.000000000000000000, 1.000000000000000000 ) ) ;
#175 = LINE ( 'NONE', #670, #541 ) ;
#176 = ADVANCED_FACE ( 'NONE', ( #612, #558 ), #364, .T. ) ;
#177 = ORIENTED_EDGE ( 'NONE', *, *, #823, .F. ) ;
#178 = CIRCLE ( 'NONE', #410, 1.499999999999999556 ) ;
#179 = VECTOR ( 'NONE', #186, 1000.000000000000000 ) ;
#180 = CARTESIAN_POINT ( 'NONE',  ( 7.474639876785359682, 170.4539244737943022, -110.9829142814849945 ) ) ;
#181 = DIRECTION ( 'NONE',  ( -0.000000000000000000, -0.000000000000000000, -1.000000000000000000 ) ) ;
#182 = VERTEX_POINT ( 'NONE', #803 ) ;
#183 = LINE ( 'NONE', #111, #166 ) ;
#184 = CARTESIAN_POINT ( 'NONE',  ( -2.525360123214641206, 175.7710817613209144, -1.984328450604611070E-12 ) ) ;
#185 = ORIENTED_EDGE ( 'NONE', *, *, #45, .T. ) ;
#186 = DIRECTION ( 'NONE',  ( -0.000000000000000000, -0.000000000000000000, -1.000000000000000000 ) ) ;
#187 = CARTESIAN_POINT ( 'NONE',  ( -2.525360123214641206, 155.3710817613196866, 0.000000000000000000 ) ) ;
#188 = ORIENTED_EDGE ( 'NONE', *, *, #526, .F. ) ;
#189 = EDGE_LOOP ( 'NONE', ( #93, #13, #52, #536 ) ) ;
#190 = EDGE_CURVE ( 'NONE', #513, #140, #426, .T. ) ;
#191 = DIRECTION ( 'NONE',  ( 0.000000000000000000, 0.000000000000000000, -1.000000000000000000 ) ) ;
#192 = AXIS2_PLACEMENT_3D ( 'NONE', #63, #319, #191 ) ;
#193 = CARTESIAN_POINT ( 'NONE',  ( 7.474639876785359682, 145.3710817613196866, -125.6657569939595476 ) ) ;
#194 = EDGE_CURVE ( 'NONE', #215, #774, #482, .T. ) ;
#195 = ORIENTED_EDGE ( 'NONE', *, *, #289, .T. ) ;
#196 = ORIENTED_EDGE ( 'NONE', *, *, #169, .T. ) ;
#197 = DIRECTION ( 'NONE',  ( 0.000000000000000000, 0.000000000000000000, -1.000000000000000000 ) ) ;
#198 = ORIENTED_EDGE ( 'NONE', *, *, #799, .F. ) ;
#199 = VERTEX_POINT ( 'NONE', #163 ) ;
#200 = DIRECTION ( 'NONE',  ( 1.000000000000000000, 0.000000000000000000, 0.000000000000000000 ) ) ;
#201 = EDGE_CURVE ( 'NONE', #696, #2, #238, .T. ) ;
#202 = DIRECTION ( 'NONE',  ( -1.000000000000000000, 0.000000000000000000, 0.000000000000000000 ) ) ;
#203 = ORIENTED_EDGE ( 'NONE', *, *, #535, .T. ) ;
#204 = EDGE_CURVE ( 'NONE', #703, #57, #86, .T. ) ;
#205 = ORIENTED_EDGE ( 'NONE', *, *, #702, .F. ) ;
#206 = DIRECTION ( 'NONE',  ( 0.000000000000000000, 1.000000000000000000, 0.000000000000000000 ) ) ;
#207 = CIRCLE ( 'NONE', #286, 1.250000000000004663 ) ;
#208 = CARTESIAN_POINT ( 'NONE',  ( 2.474639876785361015, 150.3710817613196866, -122.8657569939595788 ) ) ;
#209 = AXIS2_PLACEMENT_3D ( 'NONE', #266, #136, #390 ) ;
#210 = CARTESIAN_POINT ( 'NONE',  ( -2.525360123214641206, 160.6882390488450767, -95.66575699395956178 ) ) ;
#211 = ORIENTED_EDGE ( 'NONE', *, *, #248, .F. ) ;
#212 = APPLICATION_PROTOCOL_DEFINITION ( 'draft international standard', 'automotive_design', 1998, #148 ) ;
#213 = DIRECTION ( 'NONE',  ( -1.000000000000000000, 0.000000000000000000, -0.000000000000000000 ) ) ;
#214 = FACE_OUTER_BOUND ( 'NONE', #372, .T. ) ;
#215 = VERTEX_POINT ( 'NONE', #420 ) ;
#216 = PLANE ( 'NONE',  #675 ) ;
#217 = DIRECTION ( 'NONE',  ( -0.000000000000000000, -0.000000000000000000, 1.000000000000000000 ) ) ;
#218 = ORIENTED_EDGE ( 'NONE', *, *, #638, .F. ) ;
#219 = AXIS2_PLACEMENT_3D ( 'NONE', #508, #243, #113 ) ;
#220 = ORIENTED_EDGE ( 'NONE', *, *, #56, .F. ) ;
#221 = EDGE_LOOP ( 'NONE', ( #173, #134, #290, #348 ) ) ;
#222 = DIRECTION ( 'NONE',  ( 0.000000000000000000, 0.000000000000000000, 1.000000000000000000 ) ) ;
#223 = CARTESIAN_POINT ( 'NONE',  ( -2.525360123214641206, 175.7710817613197207, -106.0657569939595817 ) ) ;
#224 = VERTEX_POINT ( 'NONE', #614 ) ;
#225 = ADVANCED_FACE ( 'NONE', ( #423 ), #227, .F. ) ;
#226 = PLANE ( 'NONE',  #87 ) ;
#227 = CYLINDRICAL_SURFACE ( 'NONE', #284, 0.3999999999999975797 ) ;
#228 = PRODUCT ( 'clampC', 'clampC', '', ( #650 ) ) ;
#229 = EDGE_CURVE ( 'NONE', #49, #96, #747, .T. ) ;
#230 = DIRECTION ( 'NONE',  ( 0.000000000000000000, 0.000000000000000000, -1.000000000000000000 ) ) ;
#231 = CARTESIAN_POINT ( 'NONE',  ( 2.474639876785359238, 180.7710817613196923, -125.6657569939595760 ) ) ;
#232 = CIRCLE ( 'NONE', #406, 0.3999999999999975797 ) ;
#233 = VECTOR ( 'NONE', #285, 1000.000000000000000 ) ;
#234 = CARTESIAN_POINT ( 'NONE',  ( 7.474639876785359682, 155.7710817613197207, -105.6657569939595618 ) ) ;
#235 = CARTESIAN_POINT ( 'NONE',  ( 7.474639876785359682, 160.6882390488450767, -110.9829142814849519 ) ) ;
#236 = EDGE_CURVE ( 'NONE', #513, #224, #673, .T. ) ;
#237 = PLANE ( 'NONE',  #424 ) ;
#238 = LINE ( 'NONE', #681, #72 ) ;
#239 = ORIENTED_EDGE ( 'NONE', *, *, #405, .F. ) ;
#240 = CYLINDRICAL_SURFACE ( 'NONE', #219, 1.249999999999997558 ) ;
#241 = ORIENTED_EDGE ( 'NONE', *, *, #265, .F. ) ;
#242 = CARTESIAN_POINT ( 'NONE',  ( 0.000000000000000000, 0.000000000000000000, -122.8657569939595788 ) ) ;
#243 = DIRECTION ( 'NONE',  ( -0.000000000000000000, -0.000000000000000000, -1.000000000000000000 ) ) ;
#244 = ORIENTED_EDGE ( 'NONE', *, *, #758, .F. ) ;
#245 = CARTESIAN_POINT ( 'NONE',  ( 5.574639876785358439, 180.7710817613196923, -122.8657569939595788 ) ) ;
#246 = DIRECTION ( 'NONE',  ( -0.000000000000000000, -0.000000000000000000, -1.000000000000000000 ) ) ;
#247 = EDGE_LOOP ( 'NONE', ( #589, #639, #540, #129 ) ) ;
#248 = EDGE_CURVE ( 'NONE', #802, #603, #175, .T. ) ;
#249 = CARTESIAN_POINT ( 'NONE',  ( 7.474639876785359682, 185.7710817613196923, 0.000000000000000000 ) ) ;
#250 = ADVANCED_FACE ( 'NONE', ( #4 ), #310, .F. ) ;
#251 = CARTESIAN_POINT ( 'NONE',  ( 6.217785038075664517, 147.6973457419062470, -122.8657569939595788 ) ) ;
#252 = VERTEX_POINT ( 'NONE', #320 ) ;
#253 = VECTOR ( 'NONE', #680, 1000.000000000000000 ) ;
#254 = ORIENTED_EDGE ( 'NONE', *, *, #575, .F. ) ;
#255 = DIRECTION ( 'NONE',  ( 0.000000000000000000, -2.822319278462343457E-15, 1.000000000000000000 ) ) ;
#256 = COLOUR_RGB ( '',0.1647058823529411742, 0.9058823529411764719, 0.000000000000000000 ) ;
#257 = DIRECTION ( 'NONE',  ( 0.000000000000000000, -1.000000000000000000, 0.000000000000000000 ) ) ;
#258 = ORIENTED_EDGE ( 'NONE', *, *, #106, .T. ) ;
#259 = ADVANCED_FACE ( 'NONE', ( #515 ), #689, .F. ) ;
#260 = ORIENTED_EDGE ( 'NONE', *, *, #194, .T. ) ;
#261 = CARTESIAN_POINT ( 'NONE',  ( 7.474639876785359682, 0.000000000000000000, -125.6657569939595760 ) ) ;
#262 = ADVANCED_FACE ( 'NONE', ( #576 ), #240, .F. ) ;
#263 = LINE ( 'NONE', #332, #34 ) ;
#264 = ORIENTED_EDGE ( 'NONE', *, *, #796, .F. ) ;
#265 = EDGE_CURVE ( 'NONE', #36, #748, #368, .T. ) ;
#266 = CARTESIAN_POINT ( 'NONE',  ( 7.474639876785359682, 0.000000000000000000, -125.6657569939595760 ) ) ;
#267 = DIRECTION ( 'NONE',  ( -1.000000000000000000, 0.000000000000000000, 0.000000000000000000 ) ) ;
#268 = FACE_OUTER_BOUND ( 'NONE', #736, .T. ) ;
#269 = DIRECTION ( 'NONE',  ( -0.000000000000000000, -0.000000000000000000, -1.000000000000000000 ) ) ;
#270 = VECTOR ( 'NONE', #484, 1000.000000000000000 ) ;
#271 = CIRCLE ( 'NONE', #753, 1.250000000000004663 ) ;
#272 = CARTESIAN_POINT ( 'NONE',  ( 2.474639876785361015, 150.3710817613196866, -125.6657569939595476 ) ) ;
#273 = AXIS2_PLACEMENT_3D ( 'NONE', #804, #97, #486 ) ;
#274 = CARTESIAN_POINT ( 'NONE',  ( 7.474639876785359682, 155.3710817613196866, -106.0657569939595533 ) ) ;
#275 = ORIENTED_EDGE ( 'NONE', *, *, #318, .F. ) ;
#276 = CARTESIAN_POINT ( 'NONE',  ( 7.474639876785359682, 145.3710817613196866, -110.9829142814849661 ) ) ;
#277 = DIRECTION ( 'NONE',  ( -1.000000000000000000, 0.000000000000000000, 0.000000000000000000 ) ) ;
#278 = EDGE_LOOP ( 'NONE', ( #349, #439, #150, #146, #338 ) ) ;
#279 = ORIENTED_EDGE ( 'NONE', *, *, #22, .F. ) ;
#280 = CARTESIAN_POINT ( 'NONE',  ( -0.6253601232146235311, 180.7710817613196923, -125.6657569939595760 ) ) ;
#281 = ADVANCED_FACE ( 'NONE', ( #572 ), #565, .T. ) ;
#282 = DIRECTION ( 'NONE',  ( -0.000000000000000000, -0.000000000000000000, -1.000000000000000000 ) ) ;
#283 = ORIENTED_EDGE ( 'NONE', *, *, #112, .T. ) ;
#284 = AXIS2_PLACEMENT_3D ( 'NONE', #555, #678, #102 ) ;
#285 = DIRECTION ( 'NONE',  ( -1.000000000000000000, -0.000000000000000000, -0.000000000000000000 ) ) ;
#286 = AXIS2_PLACEMENT_3D ( 'NONE', #147, #665, #202 ) ;
#287 = CARTESIAN_POINT ( 'NONE',  ( -2.525360123214641206, 0.000000000000000000, -125.6657569939595760 ) ) ;
#288 = VECTOR ( 'NONE', #766, 1000.000000000000000 ) ;
#289 = EDGE_CURVE ( 'NONE', #156, #79, #433, .T. ) ;
#290 = ORIENTED_EDGE ( 'NONE', *, *, #587, .F. ) ;
#291 = DIRECTION ( 'NONE',  ( -0.000000000000000000, -0.000000000000000000, -1.000000000000000000 ) ) ;
#292 = EDGE_CURVE ( 'NONE', #607, #324, #451, .T. ) ;
#293 = DIRECTION ( 'NONE',  ( 1.000000000000000000, -0.000000000000000000, 0.000000000000000000 ) ) ;
#294 = EDGE_CURVE ( 'NONE', #252, #802, #769, .T. ) ;
#295 = CARTESIAN_POINT ( 'NONE',  ( 7.474639876785359682, 170.4539244737943307, -95.66575699395956178 ) ) ;
#296 = DIRECTION ( 'NONE',  ( -1.000000000000000000, 0.000000000000000000, 0.000000000000000000 ) ) ;
#297 = CARTESIAN_POINT ( 'NONE',  ( -2.525360123214641206, 145.3710817613196866, 0.000000000000000000 ) ) ;
#298 = EDGE_CURVE ( 'NONE', #57, #308, #641, .T. ) ;
#299 = DIRECTION ( 'NONE',  ( 0.000000000000000000, 0.000000000000000000, 1.000000000000000000 ) ) ;
#300 = AXIS2_PLACEMENT_3D ( 'NONE', #415, #41, #548 ) ;
#301 = AXIS2_PLACEMENT_3D ( 'NONE', #778, #255, #727 ) ;
#302 = SURFACE_STYLE_USAGE ( .BOTH. , #483 ) ;
#303 = DIRECTION ( 'NONE',  ( 1.000000000000000000, -0.000000000000000000, 0.000000000000000000 ) ) ;
#304 = ORIENTED_EDGE ( 'NONE', *, *, #437, .T. ) ;
#305 = UNCERTAINTY_MEASURE_WITH_UNIT (LENGTH_MEASURE( 1.000000000000000082E-05 ), #327, 'distance_accuracy_value', 'NONE');
#306 = CARTESIAN_POINT ( 'NONE',  ( 4.997194224611433810, 148.5692161830193356, -122.8657569939595788 ) ) ;
#307 = CARTESIAN_POINT ( 'NONE',  ( 6.217785038075658299, 178.0973457419062527, -122.8657569939595788 ) ) ;
#308 = VERTEX_POINT ( 'NONE', #117 ) ;
#309 = CARTESIAN_POINT ( 'NONE',  ( 7.474639876785359682, 155.7710817613197207, -106.0657569939595533 ) ) ;
#310 = CYLINDRICAL_SURFACE ( 'NONE', #460, 3.099999999999989431 ) ;
#311 = ORIENTED_EDGE ( 'NONE', *, *, #292, .F. ) ;
#312 = CIRCLE ( 'NONE', #793, 15.31715728752540429 ) ;
#313 = VECTOR ( 'NONE', #561, 1000.000000000000000 ) ;
#314 = ADVANCED_FACE ( 'NONE', ( #768 ), #371, .T. ) ;
#315 = CARTESIAN_POINT ( 'NONE',  ( -2.525360123214641206, 175.3710817613197150, -105.6657569939595760 ) ) ;
#316 = DIRECTION ( 'NONE',  ( -1.000000000000000000, -0.000000000000000000, -0.000000000000000000 ) ) ;
#317 = ORIENTED_EDGE ( 'NONE', *, *, #697, .F. ) ;
#318 = EDGE_CURVE ( 'NONE', #756, #308, #630, .T. ) ;
#319 = DIRECTION ( 'NONE',  ( 1.000000000000000000, -0.000000000000000000, 0.000000000000000000 ) ) ;
#320 = CARTESIAN_POINT ( 'NONE',  ( 5.866978586462770373, 179.5557472070408664, -122.8657569939595788 ) ) ;
#321 = ORIENTED_EDGE ( 'NONE', *, *, #30, .T. ) ;
#322 = ORIENTED_EDGE ( 'NONE', *, *, #550, .T. ) ;
#323 = DIRECTION ( 'NONE',  ( -1.000000000000000000, 0.000000000000000000, 0.000000000000000000 ) ) ;
#324 = VERTEX_POINT ( 'NONE', #706 ) ;
#325 = ORIENTED_EDGE ( 'NONE', *, *, #289, .F. ) ;
#326 = PRESENTATION_LAYER_ASSIGNMENT (  '', '', ( #688 ) ) ;
#327 =( LENGTH_UNIT ( ) NAMED_UNIT ( * ) SI_UNIT ( .MILLI., .METRE. ) );
#328 = DIRECTION ( 'NONE',  ( 0.000000000000000000, 0.000000000000000000, -1.000000000000000000 ) ) ;
#329 = DIRECTION ( 'NONE',  ( 0.000000000000000000, 0.000000000000000000, -1.000000000000000000 ) ) ;
#330 = ORIENTED_EDGE ( 'NONE', *, *, #194, .F. ) ;
#331 = CYLINDRICAL_SURFACE ( 'NONE', #21, 1.500000000000000444 ) ;
#332 = CARTESIAN_POINT ( 'NONE',  ( -0.6253601232146235311, 180.7710817613196923, -122.8657569939595788 ) ) ;
#333 = EDGE_LOOP ( 'NONE', ( #791, #643, #726, #469, #527 ) ) ;
#334 = EDGE_LOOP ( 'NONE', ( #591, #141, #321, #444, #735 ) ) ;
#335 = LINE ( 'NONE', #71, #501 ) ;
#336 = FACE_OUTER_BOUND ( 'NONE', #693, .T. ) ;
#337 = EDGE_LOOP ( 'NONE', ( #195, #188, #317, #449 ) ) ;
#338 = ORIENTED_EDGE ( 'NONE', *, *, #761, .T. ) ;
#339 = AXIS2_PLACEMENT_3D ( 'NONE', #231, #299, #495 ) ;
#340 = VECTOR ( 'NONE', #257, 1000.000000000000000 ) ;
#341 = LINE ( 'NONE', #599, #661 ) ;
#342 = VECTOR ( 'NONE', #206, 1000.000000000000000 ) ;
#343 = ORIENTED_EDGE ( 'NONE', *, *, #682, .T. ) ;
#344 = EDGE_CURVE ( 'NONE', #140, #621, #438, .T. ) ;
#345 = EDGE_CURVE ( 'NONE', #352, #751, #178, .T. ) ;
#346 = ORIENTED_EDGE ( 'NONE', *, *, #236, .T. ) ;
#347 = DIRECTION ( 'NONE',  ( -0.000000000000000000, 0.000000000000000000, 1.000000000000000000 ) ) ;
#348 = ORIENTED_EDGE ( 'NONE', *, *, #201, .F. ) ;
#349 = ORIENTED_EDGE ( 'NONE', *, *, #376, .F. ) ;
#350 = LINE ( 'NONE', #734, #448 ) ;
#351 = CARTESIAN_POINT ( 'NONE',  ( 7.474639876785359682, 185.7710817613196923, -110.9829142814849945 ) ) ;
#352 = VERTEX_POINT ( 'NONE', #695 ) ;
#353 = EDGE_CURVE ( 'NONE', #774, #748, #120, .T. ) ;
#354 = CIRCLE ( 'NONE', #164, 1.500000000000000444 ) ;
#355 = CARTESIAN_POINT ( 'NONE',  ( -2.525360123214641206, 175.7710817613196923, -125.6657569939595760 ) ) ;
#356 = ADVANCED_FACE ( 'NONE', ( #61 ), #128, .F. ) ;
#357 = CARTESIAN_POINT ( 'NONE',  ( 7.474639876785359682, 155.3710817613196866, 0.000000000000000000 ) ) ;
#358 = DIRECTION ( 'NONE',  ( -0.000000000000000000, -0.000000000000000000, -1.000000000000000000 ) ) ;
#359 = CARTESIAN_POINT ( 'NONE',  ( 7.474639876785359682, 175.7710817613196923, -125.6657569939595760 ) ) ;
#360 = CYLINDRICAL_SURFACE ( 'NONE', #273, 1.250000000000004663 ) ;
#361 = DIRECTION ( 'NONE',  ( -0.000000000000000000, -0.000000000000000000, -1.000000000000000000 ) ) ;
#362 = DIRECTION ( 'NONE',  ( 0.000000000000000000, 0.000000000000000000, 1.000000000000000000 ) ) ;
#363 = VECTOR ( 'NONE', #530, 1000.000000000000000 ) ;
#364 = PLANE ( 'NONE',  #509 ) ;
#365 = VECTOR ( 'NONE', #125, 1000.000000000000000 ) ;
#366 = ORIENTED_EDGE ( 'NONE', *, *, #786, .T. ) ;
#367 = FACE_OUTER_BOUND ( 'NONE', #247, .T. ) ;
#368 = LINE ( 'NONE', #51, #340 ) ;
#369 = ORIENTED_EDGE ( 'NONE', *, *, #139, .F. ) ;
#370 = CARTESIAN_POINT ( 'NONE',  ( 4.997194224611433810, 148.5692161830193356, -125.6657569939595476 ) ) ;
#371 = CYLINDRICAL_SURFACE ( 'NONE', #499, 15.31715728752539007 ) ;
#372 = EDGE_LOOP ( 'NONE', ( #145, #254, #279, #65 ) ) ;
#373 = EDGE_CURVE ( 'NONE', #36, #733, #825, .T. ) ;
#374 = EDGE_CURVE ( 'NONE', #649, #696, #647, .T. ) ;
#375 = DIRECTION ( 'NONE',  ( -1.000000000000000000, -0.000000000000000000, -0.000000000000000000 ) ) ;
#376 = EDGE_CURVE ( 'NONE', #2, #401, #207, .T. ) ;
#377 = ORIENTED_EDGE ( 'NONE', *, *, #500, .T. ) ;
#378 = CIRCLE ( 'NONE', #17, 15.31715728752540429 ) ;
#379 = AXIS2_PLACEMENT_3D ( 'NONE', #307, #816, #692 ) ;
#380 = AXIS2_PLACEMENT_3D ( 'NONE', #309, #564, #59 ) ;
#381 = DIRECTION ( 'NONE',  ( -1.000000000000000000, -0.000000000000000000, -0.000000000000000000 ) ) ;
#382 = CARTESIAN_POINT ( 'NONE',  ( 2.474639876785359238, 180.7710817613196923, -122.8657569939595788 ) ) ;
#383 = EDGE_LOOP ( 'NONE', ( #69, #177, #369, #765 ) ) ;
#384 = ORIENTED_EDGE ( 'NONE', *, *, #318, .T. ) ;
#385 = CARTESIAN_POINT ( 'NONE',  ( -2.525360123214641206, 0.000000000000000000, 0.000000000000000000 ) ) ;
#386 = PRODUCT_DEFINITION ( 'UNKNOWN', '', #100, #773 ) ;
#387 = CARTESIAN_POINT ( 'NONE',  ( -2.525360123214641206, 185.7710817613196923, 0.000000000000000000 ) ) ;
#388 = ORIENTED_EDGE ( 'NONE', *, *, #731, .F. ) ;
#389 = ORIENTED_EDGE ( 'NONE', *, *, #229, .T. ) ;
#390 = DIRECTION ( 'NONE',  ( 1.000000000000000000, 0.000000000000000000, -0.000000000000000000 ) ) ;
#391 = FACE_OUTER_BOUND ( 'NONE', #334, .T. ) ;
#392 = VERTEX_POINT ( 'NONE', #411 ) ;
#393 = AXIS2_PLACEMENT_3D ( 'NONE', #272, #602, #138 ) ;
#394 = ORIENTED_EDGE ( 'NONE', *, *, #682, .F. ) ;
#395 = APPLICATION_PROTOCOL_DEFINITION ( 'draft international standard', 'automotive_design', 1998, #664 ) ;
#396 = CYLINDRICAL_SURFACE ( 'NONE', #819, 1.499999999999999556 ) ;
#397 = DIRECTION ( 'NONE',  ( -0.000000000000000000, -0.000000000000000000, -1.000000000000000000 ) ) ;
#398 = ORIENTED_EDGE ( 'NONE', *, *, #402, .F. ) ;
#399 = CARTESIAN_POINT ( 'NONE',  ( 2.474639876785359238, 180.7710817613196923, -122.8657569939595788 ) ) ;
#400 = CARTESIAN_POINT ( 'NONE',  ( 5.866978586462766820, 151.5864163155985409, -125.6657569939595476 ) ) ;
#401 = VERTEX_POINT ( 'NONE', #655 ) ;
#402 = EDGE_CURVE ( 'NONE', #709, #733, #434, .T. ) ;
#403 = DIRECTION ( 'NONE',  ( -0.000000000000000000, -0.000000000000000000, 1.000000000000000000 ) ) ;
#404 = CARTESIAN_POINT ( 'NONE',  ( 6.217785038075658299, 183.4448177807331604, -122.8657569939595788 ) ) ;
#405 = EDGE_CURVE ( 'NONE', #696, #352, #271, .T. ) ;
#406 = AXIS2_PLACEMENT_3D ( 'NONE', #40, #303, #170 ) ;
#407 = ORIENTED_EDGE ( 'NONE', *, *, #796, .T. ) ;
#408 = SHAPE_DEFINITION_REPRESENTATION ( #679, #750 ) ;
#409 = CIRCLE ( 'NONE', #339, 3.099999999999982769 ) ;
#410 = AXIS2_PLACEMENT_3D ( 'NONE', #251, #635, #443 ) ;
#411 = CARTESIAN_POINT ( 'NONE',  ( 4.997194224611424929, 182.5729473396200717, -122.8657569939595788 ) ) ;
#412 = DIRECTION ( 'NONE',  ( -0.000000000000000000, 1.000000000000000000, 0.000000000000000000 ) ) ;
#413 = VERTEX_POINT ( 'NONE', #280 ) ;
#414 = EDGE_CURVE ( 'NONE', #704, #96, #717, .T. ) ;
#415 = CARTESIAN_POINT ( 'NONE',  ( 2.474639876785361015, 150.3710817613196866, -125.6657569939595476 ) ) ;
#416 = LINE ( 'NONE', #26, #674 ) ;
#417 = ADVANCED_FACE ( 'NONE', ( #91 ), #396, .T. ) ;
#418 = EDGE_LOOP ( 'NONE', ( #239, #633, #23, #343 ) ) ;
#419 = CARTESIAN_POINT ( 'NONE',  ( 4.997194224611424929, 178.9692161830193413, -125.6657569939595760 ) ) ;
#420 = CARTESIAN_POINT ( 'NONE',  ( 7.474639876785359682, 155.3710817613196866, -125.6657569939595476 ) ) ;
#421 = DIRECTION ( 'NONE',  ( 0.000000000000000000, 0.000000000000000000, -1.000000000000000000 ) ) ;
#422 = AXIS2_PLACEMENT_3D ( 'NONE', #399, #8, #277 ) ;
#423 = FACE_OUTER_BOUND ( 'NONE', #585, .T. ) ;
#424 = AXIS2_PLACEMENT_3D ( 'NONE', #242, #115, #494 ) ;
#425 = CARTESIAN_POINT ( 'NONE',  ( 4.997194224611433810, 152.1729473396200660, -122.8657569939595788 ) ) ;
#426 = LINE ( 'NONE', #810, #730 ) ;
#427 = PLANE ( 'NONE',  #556 ) ;
#428 = DIRECTION ( 'NONE',  ( 0.000000000000000000, 0.000000000000000000, -1.000000000000000000 ) ) ;
#429 = ORIENTED_EDGE ( 'NONE', *, *, #799, .T. ) ;
#430 = ADVANCED_FACE ( 'NONE', ( #784 ), #11, .T. ) ;
#431 = FACE_OUTER_BOUND ( 'NONE', #127, .T. ) ;
#432 = VECTOR ( 'NONE', #800, 1000.000000000000000 ) ;
#433 = LINE ( 'NONE', #759, #313 ) ;
#434 = CIRCLE ( 'NONE', #3, 0.3999999999999975797 ) ;
#435 = ORIENTED_EDGE ( 'NONE', *, *, #15, .T. ) ;
#436 = CARTESIAN_POINT ( 'NONE',  ( 5.866978586462768597, 179.5557472070408664, -122.8657569939595788 ) ) ;
#437 = EDGE_CURVE ( 'NONE', #703, #461, #44, .T. ) ;
#438 = LINE ( 'NONE', #184, #73 ) ;
#439 = ORIENTED_EDGE ( 'NONE', *, *, #587, .T. ) ;
#440 = ADVANCED_FACE ( 'NONE', ( #708 ), #216, .F. ) ;
#441 = LINE ( 'NONE', #557, #5 ) ;
#442 = EDGE_CURVE ( 'NONE', #182, #392, #781, .T. ) ;
#443 = DIRECTION ( 'NONE',  ( -1.000000000000000000, 1.850371707708594760E-14, 0.000000000000000000 ) ) ;
#444 = ORIENTED_EDGE ( 'NONE', *, *, #711, .T. ) ;
#445 = CARTESIAN_POINT ( 'NONE',  ( -2.525360123214641206, 145.3710817613196866, -110.9829142814849661 ) ) ;
#446 = DIRECTION ( 'NONE',  ( -1.000000000000000000, 0.000000000000000000, 0.000000000000000000 ) ) ;
#447 = EDGE_LOOP ( 'NONE', ( #685, #394, #787, #388 ) ) ;
#448 = VECTOR ( 'NONE', #421, 1000.000000000000000 ) ;
#449 = ORIENTED_EDGE ( 'NONE', *, *, #524, .T. ) ;
#450 = FACE_OUTER_BOUND ( 'NONE', #29, .T. ) ;
#451 = LINE ( 'NONE', #624, #525 ) ;
#452 = ORIENTED_EDGE ( 'NONE', *, *, #83, .T. ) ;
#453 = LINE ( 'NONE', #261, #342 ) ;
#454 = CARTESIAN_POINT ( 'NONE',  ( 7.474639876785359682, 170.4539244737943022, -110.9829142814849945 ) ) ;
#455 = VERTEX_POINT ( 'NONE', #776 ) ;
#456 = ORIENTED_EDGE ( 'NONE', *, *, #405, .T. ) ;
#457 = CARTESIAN_POINT ( 'NONE',  ( 7.474639876785359682, 175.7710817613209144, -1.984328450604611070E-12 ) ) ;
#458 = ORIENTED_EDGE ( 'NONE', *, *, #414, .T. ) ;
#459 = AXIS2_PLACEMENT_3D ( 'NONE', #158, #397, #153 ) ;
#460 = AXIS2_PLACEMENT_3D ( 'NONE', #627, #246, #323 ) ;
#461 = VERTEX_POINT ( 'NONE', #133 ) ;
#462 = FACE_OUTER_BOUND ( 'NONE', #712, .T. ) ;
#463 = DIRECTION ( 'NONE',  ( -0.000000000000000000, -0.000000000000000000, -1.000000000000000000 ) ) ;
#464 = CARTESIAN_POINT ( 'NONE',  ( -2.525360123214641206, 155.3710817613196866, -125.6657569939595476 ) ) ;
#465 = ADVANCED_FACE ( 'NONE', ( #391 ), #74, .T. ) ;
#466 = CARTESIAN_POINT ( 'NONE',  ( 6.217785038075658299, 178.0973457419062527, -122.8657569939595788 ) ) ;
#467 = DIRECTION ( 'NONE',  ( -1.000000000000000000, 0.000000000000000000, 0.000000000000000000 ) ) ;
#468 = EDGE_CURVE ( 'NONE', #182, #413, #263, .T. ) ;
#469 = ORIENTED_EDGE ( 'NONE', *, *, #638, .T. ) ;
#470 = ORIENTED_EDGE ( 'NONE', *, *, #823, .T. ) ;
#471 = PLANE ( 'NONE',  #301 ) ;
#472 = CYLINDRICAL_SURFACE ( 'NONE', #579, 3.099999999999982769 ) ;
#473 = FACE_OUTER_BOUND ( 'NONE', #27, .T. ) ;
#474 = EDGE_LOOP ( 'NONE', ( #520, #205, #66, #211 ) ) ;
#475 = AXIS2_PLACEMENT_3D ( 'NONE', #101, #230, #553 ) ;
#476 = AXIS2_PLACEMENT_3D ( 'NONE', #245, #626, #640 ) ;
#477 =( LENGTH_UNIT ( ) NAMED_UNIT ( * ) SI_UNIT ( .MILLI., .METRE. ) );
#478 = EDGE_CURVE ( 'NONE', #49, #649, #58, .T. ) ;
#479 = ORIENTED_EDGE ( 'NONE', *, *, #478, .T. ) ;
#480 = ORIENTED_EDGE ( 'NONE', *, *, #45, .F. ) ;
#481 = CARTESIAN_POINT ( 'NONE',  ( 7.474639876785359682, 0.000000000000000000, -95.66575699395956178 ) ) ;
#482 = LINE ( 'NONE', #813, #432 ) ;
#483 = SURFACE_SIDE_STYLE ('',( #47 ) ) ;
#484 = DIRECTION ( 'NONE',  ( -0.000000000000000000, 0.000000000000000000, 1.000000000000000000 ) ) ;
#485 = CIRCLE ( 'NONE', #699, 0.3999999999999975797 ) ;
#486 = DIRECTION ( 'NONE',  ( -1.000000000000000000, 0.000000000000000000, 0.000000000000000000 ) ) ;
#487 = CARTESIAN_POINT ( 'NONE',  ( -2.525360123214641206, 170.4539244737943307, -95.66575699395956178 ) ) ;
#488 =( GEOMETRIC_REPRESENTATION_CONTEXT ( 3 ) GLOBAL_UNCERTAINTY_ASSIGNED_CONTEXT ( ( #305 ) ) GLOBAL_UNIT_ASSIGNED_CONTEXT ( ( #327, #142, #514 ) ) REPRESENTATION_CONTEXT ( 'NONE', 'WORKASPACE' ) );
#489 = ADVANCED_FACE ( 'NONE', ( #336 ), #472, .F. ) ;
#490 = CARTESIAN_POINT ( 'NONE',  ( 7.474639876785359682, 175.3710817613197150, -105.6657569939595760 ) ) ;
#491 = EDGE_CURVE ( 'NONE', #802, #182, #122, .T. ) ;
#492 = DIRECTION ( 'NONE',  ( -1.000000000000000000, -0.000000000000000000, -0.000000000000000000 ) ) ;
#493 = ORIENTED_EDGE ( 'NONE', *, *, #731, .T. ) ;
#494 = DIRECTION ( 'NONE',  ( -1.000000000000000000, 0.000000000000000000, -0.000000000000000000 ) ) ;
#495 = DIRECTION ( 'NONE',  ( 1.000000000000000000, 0.000000000000000000, 0.000000000000000000 ) ) ;
#496 = ORIENTED_EDGE ( 'NONE', *, *, #468, .F. ) ;
#497 = DIRECTION ( 'NONE',  ( 0.000000000000000000, -1.000000000000000000, 0.000000000000000000 ) ) ;
#498 = DIRECTION ( 'NONE',  ( -1.000000000000000000, -0.000000000000000000, -0.000000000000000000 ) ) ;
#499 = AXIS2_PLACEMENT_3D ( 'NONE', #503, #498, #821 ) ;
#500 = EDGE_CURVE ( 'NONE', #826, #649, #341, .T. ) ;
#501 = VECTOR ( 'NONE', #269, 1000.000000000000000 ) ;
#502 = VERTEX_POINT ( 'NONE', #611 ) ;
#503 = CARTESIAN_POINT ( 'NONE',  ( 7.474639876785359682, 160.6882390488450767, -110.9829142814849519 ) ) ;
#504 = ORIENTED_EDGE ( 'NONE', *, *, #789, .F. ) ;
#505 = CARTESIAN_POINT ( 'NONE',  ( -2.525360123214641206, 155.3710817613196866, -106.0657569939595533 ) ) ;
#506 = DIRECTION ( 'NONE',  ( -0.000000000000000000, 1.000000000000000000, 0.000000000000000000 ) ) ;
#507 = ORIENTED_EDGE ( 'NONE', *, *, #265, .T. ) ;
#508 = CARTESIAN_POINT ( 'NONE',  ( 5.574639876785358439, 180.7710817613196923, -122.8657569939595788 ) ) ;
#509 = AXIS2_PLACEMENT_3D ( 'NONE', #609, #544, #619 ) ;
#510 = ORIENTED_EDGE ( 'NONE', *, *, #562, .F. ) ;
#511 = AXIS2_PLACEMENT_3D ( 'NONE', #454, #518, #644 ) ;
#512 = CIRCLE ( 'NONE', #528, 1.499999999999999556 ) ;
#513 = VERTEX_POINT ( 'NONE', #677 ) ;
#514 =( NAMED_UNIT ( * ) SI_UNIT ( $, .STERADIAN. ) SOLID_ANGLE_UNIT ( ) );
#515 = FACE_OUTER_BOUND ( 'NONE', #189, .T. ) ;
#516 = ORIENTED_EDGE ( 'NONE', *, *, #144, .T. ) ;
#517 = ORIENTED_EDGE ( 'NONE', *, *, #144, .F. ) ;
#518 = DIRECTION ( 'NONE',  ( 1.000000000000000000, -0.000000000000000000, 0.000000000000000000 ) ) ;
#519 = LINE ( 'NONE', #82, #715 ) ;
#520 = ORIENTED_EDGE ( 'NONE', *, *, #294, .F. ) ;
#521 = CARTESIAN_POINT ( 'NONE',  ( 4.997194224611424929, 178.9692161830193413, -122.8657569939595788 ) ) ;
#522 = DIRECTION ( 'NONE',  ( 0.000000000000000000, 0.000000000000000000, -1.000000000000000000 ) ) ;
#523 = DIRECTION ( 'NONE',  ( 1.000000000000000000, -0.000000000000000000, 0.000000000000000000 ) ) ;
#524 = EDGE_CURVE ( 'NONE', #461, #156, #798, .T. ) ;
#525 = VECTOR ( 'NONE', #700, 1000.000000000000000 ) ;
#526 = EDGE_CURVE ( 'NONE', #574, #79, #39, .T. ) ;
#527 = ORIENTED_EDGE ( 'NONE', *, *, #652, .T. ) ;
#528 = AXIS2_PLACEMENT_3D ( 'NONE', #820, #119, #634 ) ;
#529 = CARTESIAN_POINT ( 'NONE',  ( 6.217785038075664517, 153.0448177807331547, -122.8657569939595788 ) ) ;
#530 = DIRECTION ( 'NONE',  ( -1.000000000000000000, -0.000000000000000000, -0.000000000000000000 ) ) ;
#531 = ORIENTED_EDGE ( 'NONE', *, *, #190, .T. ) ;
#532 = DIRECTION ( 'NONE',  ( -1.000000000000000000, -0.000000000000000000, -0.000000000000000000 ) ) ;
#533 = DIRECTION ( 'NONE',  ( -1.000000000000000000, 0.000000000000000000, 0.000000000000000000 ) ) ;
#534 = CARTESIAN_POINT ( 'NONE',  ( 6.217785038075658299, 183.4448177807331604, -122.8657569939595788 ) ) ;
#535 = EDGE_CURVE ( 'NONE', #62, #774, #350, .T. ) ;
#536 = ORIENTED_EDGE ( 'NONE', *, *, #575, .T. ) ;
#537 = DIRECTION ( 'NONE',  ( -0.000000000000000000, -0.000000000000000000, -1.000000000000000000 ) ) ;
#538 = DIRECTION ( 'NONE',  ( -1.000000000000000000, -0.000000000000000000, -0.000000000000000000 ) ) ;
#539 = VECTOR ( 'NONE', #684, 1000.000000000000000 ) ;
#540 = ORIENTED_EDGE ( 'NONE', *, *, #437, .F. ) ;
#541 = VECTOR ( 'NONE', #755, 1000.000000000000000 ) ;
#542 = CIRCLE ( 'NONE', #476, 1.249999999999997558 ) ;
#543 = LINE ( 'NONE', #490, #718 ) ;
#544 = DIRECTION ( 'NONE',  ( 0.000000000000000000, 0.000000000000000000, -1.000000000000000000 ) ) ;
#545 = ORIENTED_EDGE ( 'NONE', *, *, #710, .F. ) ;
#546 = PRESENTATION_STYLE_ASSIGNMENT (( #302 ) ) ;
#547 = CARTESIAN_POINT ( 'NONE',  ( -2.525360123214641206, 175.3710817613197150, -106.0657569939595817 ) ) ;
#548 = DIRECTION ( 'NONE',  ( -1.000000000000000000, 0.000000000000000000, 0.000000000000000000 ) ) ;
#549 = LINE ( 'NONE', #359, #577 ) ;
#550 = EDGE_CURVE ( 'NONE', #96, #826, #616, .T. ) ;
#551 = ADVANCED_FACE ( 'NONE', ( #613 ), #226, .F. ) ;
#552 = VECTOR ( 'NONE', #742, 1000.000000000000000 ) ;
#553 = DIRECTION ( 'NONE',  ( -1.000000000000000000, 0.000000000000000000, 0.000000000000000000 ) ) ;
#554 = AXIS2_PLACEMENT_3D ( 'NONE', #382, #181, #446 ) ;
#555 = CARTESIAN_POINT ( 'NONE',  ( 7.474639876785359682, 155.7710817613197207, -106.0657569939595533 ) ) ;
#556 = AXIS2_PLACEMENT_3D ( 'NONE', #385, #815, #687 ) ;
#557 = CARTESIAN_POINT ( 'NONE',  ( 7.474639876785359682, 0.000000000000000000, -95.66575699395956178 ) ) ;
#558 = FACE_OUTER_BOUND ( 'NONE', #790, .T. ) ;
#559 = ORIENTED_EDGE ( 'NONE', *, *, #298, .T. ) ;
#560 = LINE ( 'NONE', #436, #663 ) ;
#561 = DIRECTION ( 'NONE',  ( 0.000000000000000000, -1.000000000000000000, 0.000000000000000000 ) ) ;
#562 = EDGE_CURVE ( 'NONE', #690, #748, #157, .T. ) ;
#563 = ORIENTED_EDGE ( 'NONE', *, *, #697, .T. ) ;
#564 = DIRECTION ( 'NONE',  ( 1.000000000000000000, -0.000000000000000000, 0.000000000000000000 ) ) ;
#565 = PLANE ( 'NONE',  #99 ) ;
#566 = VECTOR ( 'NONE', #375, 1000.000000000000000 ) ;
#567 = ORIENTED_EDGE ( 'NONE', *, *, #758, .T. ) ;
#568 = CARTESIAN_POINT ( 'NONE',  ( 5.866978586462770373, 181.9864163155985182, -122.8657569939595788 ) ) ;
#569 = DIRECTION ( 'NONE',  ( 0.000000000000000000, 0.000000000000000000, 1.000000000000000000 ) ) ;
#570 = ORIENTED_EDGE ( 'NONE', *, *, #116, .T. ) ;
#571 = CYLINDRICAL_SURFACE ( 'NONE', #46, 15.31715728752541850 ) ;
#572 = FACE_OUTER_BOUND ( 'NONE', #777, .T. ) ;
#573 = ORIENTED_EDGE ( 'NONE', *, *, #204, .F. ) ;
#574 = VERTEX_POINT ( 'NONE', #809 ) ;
#575 = EDGE_CURVE ( 'NONE', #578, #392, #669, .T. ) ;
#576 = FACE_OUTER_BOUND ( 'NONE', #31, .T. ) ;
#577 = VECTOR ( 'NONE', #161, 1000.000000000000000 ) ;
#578 = VERTEX_POINT ( 'NONE', #617 ) ;
#579 = AXIS2_PLACEMENT_3D ( 'NONE', #779, #463, #467 ) ;
#580 = CIRCLE ( 'NONE', #808, 1.500000000000000444 ) ;
#581 = EDGE_LOOP ( 'NONE', ( #135, #389, #322, #377 ) ) ;
#582 = CARTESIAN_POINT ( 'NONE',  ( 4.997194224611433810, 152.1729473396200660, -125.6657569939595476 ) ) ;
#583 = DIRECTION ( 'NONE',  ( 0.000000000000000000, 0.000000000000000000, -1.000000000000000000 ) ) ;
#584 = FACE_OUTER_BOUND ( 'NONE', #447, .T. ) ;
#585 = EDGE_LOOP ( 'NONE', ( #398, #771, #567, #452 ) ) ;
#586 = CARTESIAN_POINT ( 'NONE',  ( -2.525360123214641206, 2.982225030373705504E-13, -105.6657569939600165 ) ) ;
#587 = EDGE_CURVE ( 'NONE', #2, #826, #732, .T. ) ;
#588 = DIRECTION ( 'NONE',  ( -0.000000000000000000, -0.000000000000000000, -1.000000000000000000 ) ) ;
#589 = ORIENTED_EDGE ( 'NONE', *, *, #789, .T. ) ;
#590 = ADVANCED_FACE ( 'NONE', ( #605 ), #107, .F. ) ;
#591 = ORIENTED_EDGE ( 'NONE', *, *, #491, .T. ) ;
#592 = CARTESIAN_POINT ( 'NONE',  ( 6.217785038075664517, 153.0448177807331547, -122.8657569939595788 ) ) ;
#593 = CARTESIAN_POINT ( 'NONE',  ( 7.474639876785359682, 145.3710817613196866, 0.000000000000000000 ) ) ;
#594 = CIRCLE ( 'NONE', #459, 1.500000000000000444 ) ;
#595 = AXIS2_PLACEMENT_3D ( 'NONE', #788, #724, #84 ) ;
#596 = ORIENTED_EDGE ( 'NONE', *, *, #139, .T. ) ;
#597 = VECTOR ( 'NONE', #532, 1000.000000000000000 ) ;
#598 = DIRECTION ( 'NONE',  ( 0.000000000000000000, 1.000000000000000000, 2.822319278462343457E-15 ) ) ;
#599 = CARTESIAN_POINT ( 'NONE',  ( 4.997194224611433810, 152.1729473396200660, -122.8657569939595788 ) ) ;
#600 = CARTESIAN_POINT ( 'NONE',  ( 7.474639876785359682, 155.3710817613196866, 0.000000000000000000 ) ) ;
#601 = ORIENTED_EDGE ( 'NONE', *, *, #236, .F. ) ;
#602 = DIRECTION ( 'NONE',  ( 0.000000000000000000, 0.000000000000000000, -1.000000000000000000 ) ) ;
#603 = VERTEX_POINT ( 'NONE', #419 ) ;
#604 = ORIENTED_EDGE ( 'NONE', *, *, #229, .F. ) ;
#605 = FACE_OUTER_BOUND ( 'NONE', #662, .T. ) ;
#606 = DIRECTION ( 'NONE',  ( 1.000000000000000000, -0.000000000000000000, 0.000000000000000000 ) ) ;
#607 = VERTEX_POINT ( 'NONE', #234 ) ;
#608 = DIRECTION ( 'NONE',  ( 1.000000000000000000, 0.000000000000000000, 0.000000000000000000 ) ) ;
#609 = CARTESIAN_POINT ( 'NONE',  ( 7.474639876785359682, 0.000000000000000000, -125.6657569939595476 ) ) ;
#610 = PRODUCT_RELATED_PRODUCT_CATEGORY ( 'part', '', ( #228 ) ) ;
#611 = CARTESIAN_POINT ( 'NONE',  ( 5.866978586462770373, 179.5557472070408664, -125.6657569939595760 ) ) ;
#612 = FACE_BOUND ( 'NONE', #278, .T. ) ;
#613 = FACE_OUTER_BOUND ( 'NONE', #337, .T. ) ;
#614 = CARTESIAN_POINT ( 'NONE',  ( 7.474639876785359682, 175.7710817613196923, -125.6657569939595760 ) ) ;
#615 = AXIS2_PLACEMENT_3D ( 'NONE', #404, #282, #792 ) ;
#616 = CIRCLE ( 'NONE', #300, 3.099999999999989431 ) ;
#617 = CARTESIAN_POINT ( 'NONE',  ( 4.997194224611424929, 182.5729473396200717, -125.6657569939595760 ) ) ;
#618 = ADVANCED_FACE ( 'NONE', ( #741 ), #360, .F. ) ;
#619 = DIRECTION ( 'NONE',  ( -1.000000000000000000, 0.000000000000000000, -0.000000000000000000 ) ) ;
#620 =( GEOMETRIC_REPRESENTATION_CONTEXT ( 3 ) GLOBAL_UNCERTAINTY_ASSIGNED_CONTEXT ( ( #622 ) ) GLOBAL_UNIT_ASSIGNED_CONTEXT ( ( #477, #827, #705 ) ) REPRESENTATION_CONTEXT ( 'NONE', 'WORKASPACE' ) );
#621 = VERTEX_POINT ( 'NONE', #355 ) ;
#622 = UNCERTAINTY_MEASURE_WITH_UNIT (LENGTH_MEASURE( 1.000000000000000082E-05 ), #477, 'distance_accuracy_value', 'NONE');
#623 = CARTESIAN_POINT ( 'NONE',  ( -2.525360123214641206, 145.3710817613196866, -125.6657569939595476 ) ) ;
#624 = CARTESIAN_POINT ( 'NONE',  ( 7.474639876785359682, 2.982225030373705504E-13, -105.6657569939600165 ) ) ;
#625 = ORIENTED_EDGE ( 'NONE', *, *, #248, .T. ) ;
#626 = DIRECTION ( 'NONE',  ( 0.000000000000000000, 0.000000000000000000, -1.000000000000000000 ) ) ;
#627 = CARTESIAN_POINT ( 'NONE',  ( 2.474639876785361015, 150.3710817613196866, -122.8657569939595788 ) ) ;
#628 = EDGE_LOOP ( 'NONE', ( #517, #822, #283, #654 ) ) ;
#629 = DIRECTION ( 'NONE',  ( 0.000000000000000000, 0.000000000000000000, 1.000000000000000000 ) ) ;
#630 = LINE ( 'NONE', #828, #743 ) ;
#631 = AXIS2_PLACEMENT_3D ( 'NONE', #208, #522, #267 ) ;
#632 = CIRCLE ( 'NONE', #676, 1.249999999999997558 ) ;
#633 = ORIENTED_EDGE ( 'NONE', *, *, #201, .T. ) ;
#634 = DIRECTION ( 'NONE',  ( -1.000000000000000000, 0.000000000000000000, 0.000000000000000000 ) ) ;
#635 = DIRECTION ( 'NONE',  ( -0.000000000000000000, -0.000000000000000000, 1.000000000000000000 ) ) ;
#636 = EDGE_CURVE ( 'NONE', #324, #770, #543, .T. ) ;
#637 = ORIENTED_EDGE ( 'NONE', *, *, #702, .T. ) ;
#638 = EDGE_CURVE ( 'NONE', #413, #603, #648, .T. ) ;
#639 = ORIENTED_EDGE ( 'NONE', *, *, #524, .F. ) ;
#640 = DIRECTION ( 'NONE',  ( -1.000000000000000000, 0.000000000000000000, 0.000000000000000000 ) ) ;
#641 = LINE ( 'NONE', #387, #365 ) ;
#642 = ORIENTED_EDGE ( 'NONE', *, *, #292, .T. ) ;
#643 = ORIENTED_EDGE ( 'NONE', *, *, #22, .T. ) ;
#644 = DIRECTION ( 'NONE',  ( 0.000000000000000000, 0.000000000000000000, -1.000000000000000000 ) ) ;
#645 = VECTOR ( 'NONE', #108, 1000.000000000000000 ) ;
#646 = ORIENTED_EDGE ( 'NONE', *, *, #106, .F. ) ;
#647 = CIRCLE ( 'NONE', #19, 1.499999999999999556 ) ;
#648 = CIRCLE ( 'NONE', #155, 3.099999999999982769 ) ;
#649 = VERTEX_POINT ( 'NONE', #425 ) ;
#650 = PRODUCT_CONTEXT ( 'NONE', #664, 'mechanical' ) ;
#651 = DIRECTION ( 'NONE',  ( 0.000000000000000000, 1.000000000000000000, -1.128927711384928074E-14 ) ) ;
#652 = EDGE_CURVE ( 'NONE', #603, #502, #580, .T. ) ;
#653 = ORIENTED_EDGE ( 'NONE', *, *, #116, .F. ) ;
#654 = ORIENTED_EDGE ( 'NONE', *, *, #636, .T. ) ;
#655 = CARTESIAN_POINT ( 'NONE',  ( 5.866978586462766820, 149.1557472070408323, -125.6657569939595476 ) ) ;
#656 = MANIFOLD_SOLID_BREP ( 'Redondeo2', #110 ) ;
#657 = DIRECTION ( 'NONE',  ( 0.000000000000000000, -1.000000000000000000, 0.000000000000000000 ) ) ;
#658 = PLANE ( 'NONE',  #209 ) ;
#659 = DIRECTION ( 'NONE',  ( 0.000000000000000000, 1.128927711384928074E-14, 1.000000000000000000 ) ) ;
#660 = CARTESIAN_POINT ( 'NONE',  ( -0.6253601232146283051, 150.3710817613196866, -125.6657569939595476 ) ) ;
#661 = VECTOR ( 'NONE', #728, 1000.000000000000000 ) ;
#662 = EDGE_LOOP ( 'NONE', ( #604, #118, #493, #458 ) ) ;
#663 = VECTOR ( 'NONE', #629, 1000.000000000000000 ) ;
#664 = APPLICATION_CONTEXT ( 'automotive_design' ) ;
#665 = DIRECTION ( 'NONE',  ( 0.000000000000000000, 0.000000000000000000, -1.000000000000000000 ) ) ;
#666 = DIRECTION ( 'NONE',  ( 0.000000000000000000, -0.000000000000000000, 1.000000000000000000 ) ) ;
#667 = ADVANCED_FACE ( 'NONE', ( #450 ), #427, .F. ) ;
#668 = ORIENTED_EDGE ( 'NONE', *, *, #711, .F. ) ;
#669 = LINE ( 'NONE', #168, #686 ) ;
#670 = CARTESIAN_POINT ( 'NONE',  ( 4.997194224611424929, 178.9692161830193413, -122.8657569939595788 ) ) ;
#671 = ORIENTED_EDGE ( 'NONE', *, *, #818, .T. ) ;
#672 = DIRECTION ( 'NONE',  ( -1.000000000000000000, 0.000000000000000000, 0.000000000000000000 ) ) ;
#673 = LINE ( 'NONE', #33, #752 ) ;
#674 = VECTOR ( 'NONE', #538, 1000.000000000000000 ) ;
#675 = AXIS2_PLACEMENT_3D ( 'NONE', #457, #651, #659 ) ;
#676 = AXIS2_PLACEMENT_3D ( 'NONE', #811, #174, #754 ) ;
#677 = CARTESIAN_POINT ( 'NONE',  ( 7.474639876785359682, 175.7710817613197207, -106.0657569939595817 ) ) ;
#678 = DIRECTION ( 'NONE',  ( -1.000000000000000000, -0.000000000000000000, -0.000000000000000000 ) ) ;
#679 = PRODUCT_DEFINITION_SHAPE ( 'NONE', 'NONE',  #386 ) ;
#680 = DIRECTION ( 'NONE',  ( 0.000000000000000000, 0.000000000000000000, -1.000000000000000000 ) ) ;
#681 = CARTESIAN_POINT ( 'NONE',  ( 5.866978586462769485, 151.5864163155985409, -122.8657569939595788 ) ) ;
#682 = EDGE_CURVE ( 'NONE', #401, #352, #183, .T. ) ;
#683 = FILL_AREA_STYLE ('',( #162 ) ) ;
#684 = DIRECTION ( 'NONE',  ( -1.000000000000000000, -0.000000000000000000, -0.000000000000000000 ) ) ;
#685 = ORIENTED_EDGE ( 'NONE', *, *, #345, .F. ) ;
#686 = VECTOR ( 'NONE', #222, 1000.000000000000000 ) ;
#687 = DIRECTION ( 'NONE',  ( 0.000000000000000000, 0.000000000000000000, -1.000000000000000000 ) ) ;
#688 = STYLED_ITEM ( 'NONE', ( #546 ), #656 ) ;
#689 = CYLINDRICAL_SURFACE ( 'NONE', #554, 3.099999999999982769 ) ;
#690 = VERTEX_POINT ( 'NONE', #445 ) ;
#691 = CARTESIAN_POINT ( 'NONE',  ( -2.525360123214641206, 155.7710817613197207, -105.6657569939595618 ) ) ;
#692 = DIRECTION ( 'NONE',  ( -1.000000000000000000, -1.850371707708593813E-14, 0.000000000000000000 ) ) ;
#693 = EDGE_LOOP ( 'NONE', ( #496, #817, #625, #218 ) ) ;
#694 = DIRECTION ( 'NONE',  ( 0.000000000000000000, 0.000000000000000000, 1.000000000000000000 ) ) ;
#695 = CARTESIAN_POINT ( 'NONE',  ( 5.866978586462766820, 149.1557472070408323, -122.8657569939595788 ) ) ;
#696 = VERTEX_POINT ( 'NONE', #757 ) ;
#697 = EDGE_CURVE ( 'NONE', #461, #574, #441, .T. ) ;
#698 = DIRECTION ( 'NONE',  ( 0.000000000000000000, 0.000000000000000000, 1.000000000000000000 ) ) ;
#699 = AXIS2_PLACEMENT_3D ( 'NONE', #547, #606, #428 ) ;
#700 = DIRECTION ( 'NONE',  ( 0.000000000000000000, 1.000000000000000000, 2.822319278462343457E-15 ) ) ;
#701 = VECTOR ( 'NONE', #160, 1000.000000000000000 ) ;
#702 = EDGE_CURVE ( 'NONE', #502, #252, #560, .T. ) ;
#703 = VERTEX_POINT ( 'NONE', #123 ) ;
#704 = VERTEX_POINT ( 'NONE', #370 ) ;
#705 =( NAMED_UNIT ( * ) SI_UNIT ( $, .STERADIAN. ) SOLID_ANGLE_UNIT ( ) );
#706 = CARTESIAN_POINT ( 'NONE',  ( 7.474639876785359682, 175.3710817613197150, -105.6657569939595760 ) ) ;
#707 = ORIENTED_EDGE ( 'NONE', *, *, #345, .T. ) ;
#708 = FACE_OUTER_BOUND ( 'NONE', #760, .T. ) ;
#709 = VERTEX_POINT ( 'NONE', #691 ) ;
#710 = EDGE_CURVE ( 'NONE', #502, #199, #632, .T. ) ;
#711 = EDGE_CURVE ( 'NONE', #782, #252, #542, .T. ) ;
#712 = EDGE_LOOP ( 'NONE', ( #429, #114, #311, #435 ) ) ;
#713 = DIRECTION ( 'NONE',  ( -0.000000000000000000, -0.000000000000000000, -1.000000000000000000 ) ) ;
#714 = DIRECTION ( 'NONE',  ( -1.000000000000000000, 0.000000000000000000, 0.000000000000000000 ) ) ;
#715 = VECTOR ( 'NONE', #12, 1000.000000000000000 ) ;
#716 = ORIENTED_EDGE ( 'NONE', *, *, #373, .F. ) ;
#717 = CIRCLE ( 'NONE', #393, 3.099999999999989431 ) ;
#718 = VECTOR ( 'NONE', #744, 1000.000000000000000 ) ;
#719 = ORIENTED_EDGE ( 'NONE', *, *, #374, .T. ) ;
#720 = DIRECTION ( 'NONE',  ( -1.000000000000000000, 0.000000000000000000, 0.000000000000000000 ) ) ;
#721 = DIRECTION ( 'NONE',  ( 1.000000000000000000, -0.000000000000000000, 0.000000000000000000 ) ) ;
#722 = LINE ( 'NONE', #274, #363 ) ;
#723 = LINE ( 'NONE', #276, #597 ) ;
#724 = DIRECTION ( 'NONE',  ( 0.000000000000000000, 0.000000000000000000, -1.000000000000000000 ) ) ;
#725 = PLANE ( 'NONE',  #767 ) ;
#726 = ORIENTED_EDGE ( 'NONE', *, *, #167, .T. ) ;
#727 = DIRECTION ( 'NONE',  ( 0.000000000000000000, -1.000000000000000000, -2.822319278462343457E-15 ) ) ;
#728 = DIRECTION ( 'NONE',  ( 0.000000000000000000, 0.000000000000000000, 1.000000000000000000 ) ) ;
#729 = ORIENTED_EDGE ( 'NONE', *, *, #786, .F. ) ;
#730 = VECTOR ( 'NONE', #492, 1000.000000000000000 ) ;
#731 = EDGE_CURVE ( 'NONE', #751, #704, #67, .T. ) ;
#732 = CIRCLE ( 'NONE', #475, 1.499999999999999556 ) ;
#733 = VERTEX_POINT ( 'NONE', #505 ) ;
#734 = CARTESIAN_POINT ( 'NONE',  ( 7.474639876785359682, 145.3710817613196866, 0.000000000000000000 ) ) ;
#735 = ORIENTED_EDGE ( 'NONE', *, *, #294, .T. ) ;
#736 = EDGE_LOOP ( 'NONE', ( #814, #6, #646, #185 ) ) ;
#737 = DIRECTION ( 'NONE',  ( -1.000000000000000000, 0.000000000000000000, -0.000000000000000000 ) ) ;
#738 = CARTESIAN_POINT ( 'NONE',  ( 6.217785038075664517, 147.6973457419062470, -122.8657569939595788 ) ) ;
#739 = ADVANCED_FACE ( 'NONE', ( #431 ), #237, .T. ) ;
#740 = ADVANCED_FACE ( 'NONE', ( #367 ), #571, .T. ) ;
#741 = FACE_OUTER_BOUND ( 'NONE', #418, .T. ) ;
#742 = DIRECTION ( 'NONE',  ( 0.000000000000000000, 1.000000000000000000, 0.000000000000000000 ) ) ;
#743 = VECTOR ( 'NONE', #763, 1000.000000000000000 ) ;
#744 = DIRECTION ( 'NONE',  ( -1.000000000000000000, -0.000000000000000000, -0.000000000000000000 ) ) ;
#745 = CARTESIAN_POINT ( 'NONE',  ( 2.474639876785361015, 150.3710817613196866, -122.8657569939595788 ) ) ;
#746 = CARTESIAN_POINT ( 'NONE',  ( 2.474639876785359238, 180.7710817613196923, -125.6657569939595760 ) ) ;
#747 = LINE ( 'NONE', #172, #645 ) ;
#748 = VERTEX_POINT ( 'NONE', #623 ) ;
#749 = DIRECTION ( 'NONE',  ( 0.000000000000000000, -1.128927711384928074E-14, -1.000000000000000000 ) ) ;
#750 = ADVANCED_BREP_SHAPE_REPRESENTATION ( 'clampC', ( #656, #124 ), #488 ) ;
#751 = VERTEX_POINT ( 'NONE', #50 ) ;
#752 = VECTOR ( 'NONE', #749, 1000.000000000000000 ) ;
#753 = AXIS2_PLACEMENT_3D ( 'NONE', #16, #28, #152 ) ;
#754 = DIRECTION ( 'NONE',  ( 1.000000000000000000, 0.000000000000000000, 0.000000000000000000 ) ) ;
#755 = DIRECTION ( 'NONE',  ( -0.000000000000000000, -0.000000000000000000, -1.000000000000000000 ) ) ;
#756 = VERTEX_POINT ( 'NONE', #54 ) ;
#757 = CARTESIAN_POINT ( 'NONE',  ( 5.866978586462766820, 151.5864163155985409, -122.8657569939595788 ) ) ;
#758 = EDGE_CURVE ( 'NONE', #607, #455, #35, .T. ) ;
#759 = CARTESIAN_POINT ( 'NONE',  ( -2.525360123214641206, 0.000000000000000000, -95.66575699395956178 ) ) ;
#760 = EDGE_LOOP ( 'NONE', ( #764, #653, #601, #531 ) ) ;
#761 = EDGE_CURVE ( 'NONE', #704, #401, #512, .T. ) ;
#762 = LINE ( 'NONE', #249, #288 ) ;
#763 = DIRECTION ( 'NONE',  ( -1.000000000000000000, -0.000000000000000000, -0.000000000000000000 ) ) ;
#764 = ORIENTED_EDGE ( 'NONE', *, *, #344, .T. ) ;
#765 = ORIENTED_EDGE ( 'NONE', *, *, #526, .T. ) ;
#766 = DIRECTION ( 'NONE',  ( 0.000000000000000000, 0.000000000000000000, -1.000000000000000000 ) ) ;
#767 = AXIS2_PLACEMENT_3D ( 'NONE', #600, #657, #92 ) ;
#768 = FACE_OUTER_BOUND ( 'NONE', #383, .T. ) ;
#769 = CIRCLE ( 'NONE', #379, 1.500000000000000444 ) ;
#770 = VERTEX_POINT ( 'NONE', #315 ) ;
#771 = ORIENTED_EDGE ( 'NONE', *, *, #15, .F. ) ;
#772 = DIRECTION ( 'NONE',  ( 0.000000000000000000, -0.000000000000000000, 1.000000000000000000 ) ) ;
#773 = PRODUCT_DEFINITION_CONTEXT ( 'detailed design', #148, 'design' ) ;
#774 = VERTEX_POINT ( 'NONE', #824 ) ;
#775 = ORIENTED_EDGE ( 'NONE', *, *, #562, .T. ) ;
#776 = CARTESIAN_POINT ( 'NONE',  ( 7.474639876785359682, 155.3710817613196866, -106.0657569939595533 ) ) ;
#777 = EDGE_LOOP ( 'NONE', ( #121, #573, #366, #384 ) ) ;
#778 = CARTESIAN_POINT ( 'NONE',  ( 7.474639876785359682, 2.982225030373705504E-13, -105.6657569939600165 ) ) ;
#779 = CARTESIAN_POINT ( 'NONE',  ( 2.474639876785359238, 180.7710817613196923, -122.8657569939595788 ) ) ;
#780 = CARTESIAN_POINT ( 'NONE',  ( 7.474639876785359682, 145.3710817613196866, -110.9829142814849661 ) ) ;
#781 = CIRCLE ( 'NONE', #422, 3.099999999999982769 ) ;
#782 = VERTEX_POINT ( 'NONE', #568 ) ;
#783 = DIRECTION ( 'NONE',  ( 0.000000000000000000, 0.000000000000000000, 1.000000000000000000 ) ) ;
#784 = FACE_OUTER_BOUND ( 'NONE', #126, .T. ) ;
#785 = DIRECTION ( 'NONE',  ( -1.000000000000000000, 0.000000000000000000, 0.000000000000000000 ) ) ;
#786 = EDGE_CURVE ( 'NONE', #703, #756, #762, .T. ) ;
#787 = ORIENTED_EDGE ( 'NONE', *, *, #761, .F. ) ;
#788 = CARTESIAN_POINT ( 'NONE',  ( 2.474639876785359238, 180.7710817613196923, -122.8657569939595788 ) ) ;
#789 = EDGE_CURVE ( 'NONE', #57, #156, #795, .T. ) ;
#790 = EDGE_LOOP ( 'NONE', ( #241, #480, #260, #797 ) ) ;
#791 = ORIENTED_EDGE ( 'NONE', *, *, #710, .T. ) ;
#792 = DIRECTION ( 'NONE',  ( -1.000000000000000000, 0.000000000000000000, 0.000000000000000000 ) ) ;
#793 = AXIS2_PLACEMENT_3D ( 'NONE', #18, #523, #329 ) ;
#794 = AXIS2_PLACEMENT_3D ( 'NONE', #32, #358, #672 ) ;
#795 = CIRCLE ( 'NONE', #192, 15.31715728752541850 ) ;
#796 = EDGE_CURVE ( 'NONE', #224, #756, #453, .T. ) ;
#797 = ORIENTED_EDGE ( 'NONE', *, *, #353, .T. ) ;
#798 = LINE ( 'NONE', #295, #233 ) ;
#799 = EDGE_CURVE ( 'NONE', #709, #770, #132, .T. ) ;
#800 = DIRECTION ( 'NONE',  ( 0.000000000000000000, -1.000000000000000000, 0.000000000000000000 ) ) ;
#801 = ADVANCED_FACE ( 'NONE', ( #10, #80 ), #658, .F. ) ;
#802 = VERTEX_POINT ( 'NONE', #521 ) ;
#803 = CARTESIAN_POINT ( 'NONE',  ( -0.6253601232146235311, 180.7710817613196923, -122.8657569939595788 ) ) ;
#804 = CARTESIAN_POINT ( 'NONE',  ( 5.574639876785360215, 150.3710817613196866, -122.8657569939595788 ) ) ;
#805 = DIRECTION ( 'NONE',  ( 0.000000000000000000, 0.000000000000000000, -1.000000000000000000 ) ) ;
#806 = CIRCLE ( 'NONE', #43, 3.099999999999989431 ) ;
#807 = VECTOR ( 'NONE', #347, 1000.000000000000000 ) ;
#808 = AXIS2_PLACEMENT_3D ( 'NONE', #37, #291, #171 ) ;
#809 = CARTESIAN_POINT ( 'NONE',  ( 7.474639876785359682, 160.6882390488450767, -95.66575699395956178 ) ) ;
#810 = CARTESIAN_POINT ( 'NONE',  ( 7.474639876785359682, 175.7710817613197207, -106.0657569939595817 ) ) ;
#811 = CARTESIAN_POINT ( 'NONE',  ( 5.574639876785358439, 180.7710817613196923, -125.6657569939595760 ) ) ;
#812 = ADVANCED_FACE ( 'NONE', ( #462 ), #471, .F. ) ;
#813 = CARTESIAN_POINT ( 'NONE',  ( 7.474639876785359682, 0.000000000000000000, -125.6657569939595476 ) ) ;
#814 = ORIENTED_EDGE ( 'NONE', *, *, #373, .T. ) ;
#815 = DIRECTION ( 'NONE',  ( 1.000000000000000000, -0.000000000000000000, 0.000000000000000000 ) ) ;
#816 = DIRECTION ( 'NONE',  ( -0.000000000000000000, -0.000000000000000000, 1.000000000000000000 ) ) ;
#817 = ORIENTED_EDGE ( 'NONE', *, *, #491, .F. ) ;
#818 = EDGE_CURVE ( 'NONE', #782, #199, #335, .T. ) ;
#819 = AXIS2_PLACEMENT_3D ( 'NONE', #529, #537, #533 ) ;
#820 = CARTESIAN_POINT ( 'NONE',  ( 6.217785038075664517, 147.6973457419062470, -125.6657569939595476 ) ) ;
#821 = DIRECTION ( 'NONE',  ( 0.000000000000000000, 0.000000000000000000, 1.000000000000000000 ) ) ;
#822 = ORIENTED_EDGE ( 'NONE', *, *, #190, .F. ) ;
#823 = EDGE_CURVE ( 'NONE', #62, #690, #723, .T. ) ;
#824 = CARTESIAN_POINT ( 'NONE',  ( 7.474639876785359682, 145.3710817613196866, -125.6657569939595476 ) ) ;
#825 = LINE ( 'NONE', #187, #807 ) ;
#826 = VERTEX_POINT ( 'NONE', #582 ) ;
#827 =( NAMED_UNIT ( * ) PLANE_ANGLE_UNIT ( ) SI_UNIT ( $, .RADIAN. ) );
#828 = CARTESIAN_POINT ( 'NONE',  ( 7.474639876785359682, 185.7710817613196923, -125.6657569939595760 ) ) ;
#829 = ADVANCED_FACE ( 'NONE', ( #24 ), #331, .T. ) ;
ENDSEC;
END-ISO-10303-21;
