ISO-10303-21;
HEADER;
FILE_DESCRIPTION (( 'STEP AP214' ),
    '1' );
FILE_NAME ('pivot.STEP',
    '2026-03-27T03:06:25',
    ( '' ),
    ( '' ),
    'SwSTEP 2.0',
    'SolidWorks 2025',
    '' );
FILE_SCHEMA (( 'AUTOMOTIVE_DESIGN' ));
ENDSEC;

DATA;
#1 = ORIENTED_EDGE ( 'NONE', *, *, #73, .T. ) ;
#2 = LINE ( 'NONE', #300, #366 ) ;
#3 = ORIENTED_EDGE ( 'NONE', *, *, #390, .F. ) ;
#4 = CARTESIAN_POINT ( 'NONE',  ( 0.04952385606857356848, 0.000000000000000000, 0.000000000000000000 ) ) ;
#5 = AXIS2_PLACEMENT_3D ( 'NONE', #669, #539, #121 ) ;
#6 = VECTOR ( 'NONE', #336, 1.000000000000000000 ) ;
#7 = VERTEX_POINT ( 'NONE', #691 ) ;
#8 = DIRECTION ( 'NONE',  ( -1.000000000000000000, 0.000000000000000000, 0.000000000000000000 ) ) ;
#9 = AXIS2_PLACEMENT_3D ( 'NONE', #88, #496, #318 ) ;
#10 = CYLINDRICAL_SURFACE ( 'NONE', #676, 0.002100000000000004641 ) ;
#11 = EDGE_CURVE ( 'NONE', #625, #740, #155, .T. ) ;
#12 = ORIENTED_EDGE ( 'NONE', *, *, #494, .F. ) ;
#13 = CYLINDRICAL_SURFACE ( 'NONE', #623, 0.003000000000000002665 ) ;
#14 = AXIS2_PLACEMENT_3D ( 'NONE', #751, #306, #80 ) ;
#15 = DIRECTION ( 'NONE',  ( 0.000000000000000000, 0.000000000000000000, -1.000000000000000000 ) ) ;
#16 = EDGE_CURVE ( 'NONE', #411, #331, #502, .T. ) ;
#17 = FACE_OUTER_BOUND ( 'NONE', #641, .T. ) ;
#18 = VERTEX_POINT ( 'NONE', #267 ) ;
#19 = CARTESIAN_POINT ( 'NONE',  ( 0.05271532607549145322, 0.1634478055186194267, -0.1361988629815581442 ) ) ;
#20 = CIRCLE ( 'NONE', #577, 0.003000000000000002665 ) ;
#21 = DIRECTION ( 'NONE',  ( 0.000000000000000000, 0.000000000000000000, 1.000000000000000000 ) ) ;
#22 = CIRCLE ( 'NONE', #133, 0.003099999999999991651 ) ;
#23 = CARTESIAN_POINT ( 'NONE',  ( 0.05990679608240934151, 0.08844780551861930462, -0.1391988629815581469 ) ) ;
#24 = EDGE_CURVE ( 'NONE', #28, #601, #520, .T. ) ;
#25 = ORIENTED_EDGE ( 'NONE', *, *, #722, .F. ) ;
#26 = ORIENTED_EDGE ( 'NONE', *, *, #634, .T. ) ;
#27 = FACE_OUTER_BOUND ( 'NONE', #265, .T. ) ;
#28 = VERTEX_POINT ( 'NONE', #23 ) ;
#29 = CARTESIAN_POINT ( 'NONE',  ( 0.000000000000000000, 0.2354478055186192964, -0.1371988629815581451 ) ) ;
#30 = EDGE_CURVE ( 'NONE', #503, #426, #765, .T. ) ;
#31 = ORIENTED_EDGE ( 'NONE', *, *, #643, .F. ) ;
#32 = DIRECTION ( 'NONE',  ( 1.000000000000000000, -0.000000000000000000, 0.000000000000000000 ) ) ;
#33 = DIRECTION ( 'NONE',  ( -1.000000000000000000, -0.000000000000000000, -0.000000000000000000 ) ) ;
#34 = EDGE_LOOP ( 'NONE', ( #682, #237 ) ) ;
#35 = APPLICATION_PROTOCOL_DEFINITION ( 'draft international standard', 'automotive_design', 1998, #590 ) ;
#36 = EDGE_LOOP ( 'NONE', ( #112, #245, #368, #1, #736, #635, #154, #456 ) ) ;
#37 = CARTESIAN_POINT ( 'NONE',  ( 0.04952385606857356848, 0.2334478055186192946, -0.1350988629815581543 ) ) ;
#38 = VECTOR ( 'NONE', #482, 1.000000000000000000 ) ;
#39 = DIRECTION ( 'NONE',  ( 1.000000000000000000, 0.000000000000000000, 0.000000000000000000 ) ) ;
#40 = ORIENTED_EDGE ( 'NONE', *, *, #11, .T. ) ;
#41 = DIRECTION ( 'NONE',  ( 1.000000000000000000, 0.000000000000000000, 0.000000000000000000 ) ) ;
#42 = CARTESIAN_POINT ( 'NONE',  ( 0.04552385606857356493, 0.000000000000000000, -0.1361988629815581442 ) ) ;
#43 = EDGE_CURVE ( 'NONE', #629, #324, #559, .T. ) ;
#44 = LINE ( 'NONE', #713, #668 ) ;
#45 = FACE_OUTER_BOUND ( 'NONE', #782, .T. ) ;
#46 = DIRECTION ( 'NONE',  ( 0.000000000000000000, 0.000000000000000000, 1.000000000000000000 ) ) ;
#47 = AXIS2_PLACEMENT_3D ( 'NONE', #281, #636, #565 ) ;
#48 = EDGE_CURVE ( 'NONE', #503, #687, #65, .T. ) ;
#49 = DIRECTION ( 'NONE',  ( -1.000000000000000000, 0.000000000000000000, -0.000000000000000000 ) ) ;
#50 = UNCERTAINTY_MEASURE_WITH_UNIT (LENGTH_MEASURE( 1.000000000000000082E-05 ), #569, 'distance_accuracy_value', 'NONE');
#51 = VERTEX_POINT ( 'NONE', #759 ) ;
#52 = DIRECTION ( 'NONE',  ( 1.000000000000000000, -0.000000000000000000, 0.000000000000000000 ) ) ;
#53 = CARTESIAN_POINT ( 'NONE',  ( 0.05990679608240934151, 0.09344780551861930906, -0.1402988629815581367 ) ) ;
#54 = EDGE_CURVE ( 'NONE', #7, #132, #617, .T. ) ;
#55 = ORIENTED_EDGE ( 'NONE', *, *, #586, .F. ) ;
#56 = PLANE ( 'NONE',  #353 ) ;
#57 = FACE_OUTER_BOUND ( 'NONE', #747, .T. ) ;
#58 = ORIENTED_EDGE ( 'NONE', *, *, #359, .T. ) ;
#59 = CARTESIAN_POINT ( 'NONE',  ( 0.05990679608240934151, 0.09344780551861930906, -0.1381988629815581460 ) ) ;
#60 = CARTESIAN_POINT ( 'NONE',  ( 0.05481532607549145786, 0.1634478055186194267, -0.1361988629815581442 ) ) ;
#61 =( GEOMETRIC_REPRESENTATION_CONTEXT ( 3 ) GLOBAL_UNCERTAINTY_ASSIGNED_CONTEXT ( ( #405 ) ) GLOBAL_UNIT_ASSIGNED_CONTEXT ( ( #465, #278, #707 ) ) REPRESENTATION_CONTEXT ( 'NONE', 'WORKASPACE' ) );
#62 = EDGE_LOOP ( 'NONE', ( #604, #40 ) ) ;
#63 = ORIENTED_EDGE ( 'NONE', *, *, #54, .T. ) ;
#64 = DIRECTION ( 'NONE',  ( 0.000000000000000000, 1.000000000000000000, 0.000000000000000000 ) ) ;
#65 = CIRCLE ( 'NONE', #78, 0.002099999999999990763 ) ;
#66 = ORIENTED_EDGE ( 'NONE', *, *, #711, .T. ) ;
#67 = CIRCLE ( 'NONE', #658, 0.002099999999999990763 ) ;
#68 = ORIENTED_EDGE ( 'NONE', *, *, #349, .F. ) ;
#69 = PLANE ( 'NONE',  #91 ) ;
#70 = ADVANCED_FACE ( 'NONE', ( #17 ), #701, .T. ) ;
#71 = ORIENTED_EDGE ( 'NONE', *, *, #780, .F. ) ;
#72 = FACE_OUTER_BOUND ( 'NONE', #431, .T. ) ;
#73 = EDGE_CURVE ( 'NONE', #252, #601, #20, .T. ) ;
#74 = VECTOR ( 'NONE', #52, 1.000000000000000000 ) ;
#75 = PRODUCT_DEFINITION_FORMATION_WITH_SPECIFIED_SOURCE ( 'ANY', '', #735, .NOT_KNOWN. ) ;
#76 = DIRECTION ( 'NONE',  ( -1.000000000000000000, 0.000000000000000000, 0.000000000000000000 ) ) ;
#77 = CARTESIAN_POINT ( 'NONE',  ( 0.04552385606857356493, 0.08844780551861930462, -0.1391988629815581469 ) ) ;
#78 = AXIS2_PLACEMENT_3D ( 'NONE', #157, #153, #146 ) ;
#79 = ORIENTED_EDGE ( 'NONE', *, *, #87, .F. ) ;
#80 = DIRECTION ( 'NONE',  ( 0.000000000000000000, 0.000000000000000000, 1.000000000000000000 ) ) ;
#81 = AXIS2_PLACEMENT_3D ( 'NONE', #505, #442, #148 ) ;
#82 = EDGE_CURVE ( 'NONE', #132, #625, #448, .T. ) ;
#83 = CARTESIAN_POINT ( 'NONE',  ( 0.04952385606857356848, 0.09344780551861930906, -0.1381988629815581460 ) ) ;
#84 = ORIENTED_EDGE ( 'NONE', *, *, #462, .F. ) ;
#85 = ORIENTED_EDGE ( 'NONE', *, *, #135, .F. ) ;
#86 = CYLINDRICAL_SURFACE ( 'NONE', #717, 0.002099999999999990763 ) ;
#87 = EDGE_CURVE ( 'NONE', #51, #226, #239, .T. ) ;
#88 = CARTESIAN_POINT ( 'NONE',  ( 0.04952385606857356848, 0.2334478055186192946, -0.1381988629815581460 ) ) ;
#89 = ORIENTED_EDGE ( 'NONE', *, *, #574, .T. ) ;
#90 = CARTESIAN_POINT ( 'NONE',  ( 0.04952385606857356848, 0.09344780551861930906, -0.1381988629815581460 ) ) ;
#91 = AXIS2_PLACEMENT_3D ( 'NONE', #656, #64, #487 ) ;
#92 = DIRECTION ( 'NONE',  ( 0.000000000000000000, 0.000000000000000000, -1.000000000000000000 ) ) ;
#93 = LINE ( 'NONE', #508, #297 ) ;
#94 = AXIS2_PLACEMENT_3D ( 'NONE', #418, #706, #21 ) ;
#95 = DIRECTION ( 'NONE',  ( 0.000000000000000000, 0.000000000000000000, 1.000000000000000000 ) ) ;
#96 = EDGE_CURVE ( 'NONE', #367, #211, #439, .T. ) ;
#97 = FACE_BOUND ( 'NONE', #396, .T. ) ;
#98 = ORIENTED_EDGE ( 'NONE', *, *, #486, .T. ) ;
#99 = ORIENTED_EDGE ( 'NONE', *, *, #711, .F. ) ;
#100 = FACE_OUTER_BOUND ( 'NONE', #788, .T. ) ;
#101 = CARTESIAN_POINT ( 'NONE',  ( 0.05990679608240934151, 0.09144780551861930729, -0.1371988629815581451 ) ) ;
#102 = ORIENTED_EDGE ( 'NONE', *, *, #490, .F. ) ;
#103 = CYLINDRICAL_SURFACE ( 'NONE', #627, 0.004000000000000003553 ) ;
#104 = CARTESIAN_POINT ( 'NONE',  ( 0.05990679608240934151, 0.2384478055186192991, -0.1421988629815581495 ) ) ;
#105 = EDGE_CURVE ( 'NONE', #750, #285, #640, .T. ) ;
#106 = LINE ( 'NONE', #134, #38 ) ;
#107 = AXIS2_PLACEMENT_3D ( 'NONE', #220, #686, #628 ) ;
#108 = AXIS2_PLACEMENT_3D ( 'NONE', #199, #152, #95 ) ;
#109 = FACE_OUTER_BOUND ( 'NONE', #605, .T. ) ;
#110 = CARTESIAN_POINT ( 'NONE',  ( 0.04552385606857356493, 0.09144780551861930729, -0.1391988629815581469 ) ) ;
#111 = PRODUCT_DEFINITION_CONTEXT ( 'detailed design', #758, 'design' ) ;
#112 = ORIENTED_EDGE ( 'NONE', *, *, #304, .T. ) ;
#113 = DIRECTION ( 'NONE',  ( -1.000000000000000000, -0.000000000000000000, -0.000000000000000000 ) ) ;
#114 = PLANE ( 'NONE',  #647 ) ;
#115 = ORIENTED_EDGE ( 'NONE', *, *, #16, .T. ) ;
#116 = DIRECTION ( 'NONE',  ( 1.000000000000000000, -0.000000000000000000, -0.000000000000000000 ) ) ;
#117 = AXIS2_PLACEMENT_3D ( 'NONE', #754, #401, #642 ) ;
#118 = CARTESIAN_POINT ( 'NONE',  ( 0.000000000000000000, 0.2354478055186192964, -0.1421988629815581495 ) ) ;
#119 = EDGE_CURVE ( 'NONE', #693, #426, #323, .T. ) ;
#120 = ORIENTED_EDGE ( 'NONE', *, *, #390, .T. ) ;
#121 = DIRECTION ( 'NONE',  ( 0.000000000000000000, 0.000000000000000000, -1.000000000000000000 ) ) ;
#122 = VECTOR ( 'NONE', #403, 1.000000000000000000 ) ;
#123 = CIRCLE ( 'NONE', #212, 0.003099999999999991651 ) ;
#124 = CARTESIAN_POINT ( 'NONE',  ( 0.04871532607549144966, 0.1634478055186194267, -0.1421988629815581495 ) ) ;
#125 = ORIENTED_EDGE ( 'NONE', *, *, #256, .F. ) ;
#126 = DIRECTION ( 'NONE',  ( 1.000000000000000000, 0.000000000000000000, 0.000000000000000000 ) ) ;
#127 = DIRECTION ( 'NONE',  ( 1.000000000000000000, 0.000000000000000000, 0.000000000000000000 ) ) ;
#128 = ORIENTED_EDGE ( 'NONE', *, *, #454, .F. ) ;
#129 = CYLINDRICAL_SURFACE ( 'NONE', #476, 0.002100000000000004641 ) ;
#130 = ORIENTED_EDGE ( 'NONE', *, *, #544, .F. ) ;
#131 = DIRECTION ( 'NONE',  ( -1.000000000000000000, 0.000000000000000000, 0.000000000000000000 ) ) ;
#132 = VERTEX_POINT ( 'NONE', #320 ) ;
#133 = AXIS2_PLACEMENT_3D ( 'NONE', #589, #348, #266 ) ;
#134 = CARTESIAN_POINT ( 'NONE',  ( 0.04552385606857356493, 0.08844780551861930462, -0.1361988629815581442 ) ) ;
#135 = EDGE_CURVE ( 'NONE', #526, #363, #228, .T. ) ;
#136 = DIRECTION ( 'NONE',  ( 0.000000000000000000, 0.000000000000000000, 1.000000000000000000 ) ) ;
#137 = ADVANCED_FACE ( 'NONE', ( #506, #97, #566 ), #471, .T. ) ;
#138 = CIRCLE ( 'NONE', #613, 0.002100000000000004641 ) ;
#139 = DIRECTION ( 'NONE',  ( -1.000000000000000000, 0.000000000000000000, 0.000000000000000000 ) ) ;
#140 = CYLINDRICAL_SURFACE ( 'NONE', #528, 0.003099999999999991651 ) ;
#141 = CIRCLE ( 'NONE', #576, 0.002099999999999990763 ) ;
#142 = ORIENTED_EDGE ( 'NONE', *, *, #256, .T. ) ;
#143 = FACE_OUTER_BOUND ( 'NONE', #257, .T. ) ;
#144 = VECTOR ( 'NONE', #651, 1.000000000000000000 ) ;
#145 = LINE ( 'NONE', #501, #468 ) ;
#146 = DIRECTION ( 'NONE',  ( 0.000000000000000000, 0.000000000000000000, 1.000000000000000000 ) ) ;
#147 = DIRECTION ( 'NONE',  ( 0.000000000000000000, 0.000000000000000000, 1.000000000000000000 ) ) ;
#148 = DIRECTION ( 'NONE',  ( 0.000000000000000000, 0.000000000000000000, 1.000000000000000000 ) ) ;
#149 = CARTESIAN_POINT ( 'NONE',  ( 0.05271532607549145322, 0.1634478055186194267, -0.1361988629815581442 ) ) ;
#150 = ORIENTED_EDGE ( 'NONE', *, *, #43, .T. ) ;
#151 = CARTESIAN_POINT ( 'NONE',  ( 0.05990679608240934151, 0.2334478055186192946, -0.1360988629815581552 ) ) ;
#152 = DIRECTION ( 'NONE',  ( -1.000000000000000000, 0.000000000000000000, 0.000000000000000000 ) ) ;
#153 = DIRECTION ( 'NONE',  ( -1.000000000000000000, 0.000000000000000000, 0.000000000000000000 ) ) ;
#154 = ORIENTED_EDGE ( 'NONE', *, *, #105, .F. ) ;
#155 = CIRCLE ( 'NONE', #227, 0.002100000000000004641 ) ;
#156 = SURFACE_STYLE_FILL_AREA ( #523 ) ;
#157 = CARTESIAN_POINT ( 'NONE',  ( 0.05990679608240934151, 0.2334478055186192946, -0.1381988629815581460 ) ) ;
#158 = ORIENTED_EDGE ( 'NONE', *, *, #749, .T. ) ;
#159 = DIRECTION ( 'NONE',  ( -0.000000000000000000, -0.000000000000000000, 1.000000000000000000 ) ) ;
#160 = LINE ( 'NONE', #276, #272 ) ;
#161 = CARTESIAN_POINT ( 'NONE',  ( 0.04552385606857356493, 0.09144780551861930729, -0.1371988629815581451 ) ) ;
#162 = ADVANCED_FACE ( 'NONE', ( #57 ), #284, .F. ) ;
#163 = ORIENTED_EDGE ( 'NONE', *, *, #96, .T. ) ;
#164 =( NAMED_UNIT ( * ) SI_UNIT ( $, .STERADIAN. ) SOLID_ANGLE_UNIT ( ) );
#165 = DIRECTION ( 'NONE',  ( -1.000000000000000000, -0.000000000000000000, -0.000000000000000000 ) ) ;
#166 = CARTESIAN_POINT ( 'NONE',  ( 0.04552385606857356493, 0.09144780551861930729, -0.1421988629815581495 ) ) ;
#167 = VECTOR ( 'NONE', #113, 1.000000000000000000 ) ;
#168 = AXIS2_PLACEMENT_3D ( 'NONE', #210, #39, #200 ) ;
#169 = CARTESIAN_POINT ( 'NONE',  ( 0.05990679608240934151, 0.2354478055186192964, -0.1391988629815581469 ) ) ;
#170 = ORIENTED_EDGE ( 'NONE', *, *, #231, .F. ) ;
#171 = FACE_OUTER_BOUND ( 'NONE', #424, .T. ) ;
#172 = EDGE_CURVE ( 'NONE', #51, #526, #657, .T. ) ;
#173 = CARTESIAN_POINT ( 'NONE',  ( 0.04552385606857356493, 0.09344780551861930906, -0.1412988629815581376 ) ) ;
#174 = ORIENTED_EDGE ( 'NONE', *, *, #82, .T. ) ;
#175 = DIRECTION ( 'NONE',  ( -1.000000000000000000, -0.000000000000000000, -0.000000000000000000 ) ) ;
#176 = CARTESIAN_POINT ( 'NONE',  ( 0.04952385606857356848, 0.2334478055186192946, -0.1381988629815581460 ) ) ;
#177 = ORIENTED_EDGE ( 'NONE', *, *, #11, .F. ) ;
#178 = FACE_OUTER_BOUND ( 'NONE', #530, .T. ) ;
#179 = CARTESIAN_POINT ( 'NONE',  ( 0.04552385606857356493, 0.2354478055186192964, -0.1341988629815581424 ) ) ;
#180 = ORIENTED_EDGE ( 'NONE', *, *, #304, .F. ) ;
#181 = DIRECTION ( 'NONE',  ( 0.000000000000000000, 0.000000000000000000, 1.000000000000000000 ) ) ;
#182 = ADVANCED_FACE ( 'NONE', ( #527, #109 ), #781, .T. ) ;
#183 = VERTEX_POINT ( 'NONE', #524 ) ;
#184 = DIRECTION ( 'NONE',  ( -1.000000000000000000, -0.000000000000000000, -0.000000000000000000 ) ) ;
#185 = CIRCLE ( 'NONE', #525, 0.003099999999999991651 ) ;
#186 = EDGE_CURVE ( 'NONE', #273, #197, #540, .T. ) ;
#187 = CARTESIAN_POINT ( 'NONE',  ( 0.05990679608240934151, 0.2384478055186192991, -0.1371988629815581451 ) ) ;
#188 = COLOUR_RGB ( '',0.7921568627450980005, 0.8196078431372548767, 0.9333333333333333481 ) ;
#189 = VERTEX_POINT ( 'NONE', #600 ) ;
#190 = DIRECTION ( 'NONE',  ( 0.000000000000000000, 0.000000000000000000, 1.000000000000000000 ) ) ;
#191 = DIRECTION ( 'NONE',  ( -1.000000000000000000, 0.000000000000000000, 0.000000000000000000 ) ) ;
#192 = EDGE_CURVE ( 'NONE', #692, #655, #774, .T. ) ;
#193 = ORIENTED_EDGE ( 'NONE', *, *, #446, .T. ) ;
#194 = DIRECTION ( 'NONE',  ( -1.000000000000000000, 0.000000000000000000, 0.000000000000000000 ) ) ;
#195 = CARTESIAN_POINT ( 'NONE',  ( 0.04552385606857356493, 0.09344780551861930906, -0.1381988629815581460 ) ) ;
#196 = LINE ( 'NONE', #312, #406 ) ;
#197 = VERTEX_POINT ( 'NONE', #661 ) ;
#198 = DIRECTION ( 'NONE',  ( -1.000000000000000000, -0.000000000000000000, -0.000000000000000000 ) ) ;
#199 = CARTESIAN_POINT ( 'NONE',  ( 0.04952385606857356848, 0.09344780551861930906, -0.1381988629815581460 ) ) ;
#200 = DIRECTION ( 'NONE',  ( 0.000000000000000000, 0.000000000000000000, -1.000000000000000000 ) ) ;
#201 = ORIENTED_EDGE ( 'NONE', *, *, #30, .F. ) ;
#202 = DIRECTION ( 'NONE',  ( -1.000000000000000000, -0.000000000000000000, -0.000000000000000000 ) ) ;
#203 = EDGE_CURVE ( 'NONE', #687, #693, #44, .T. ) ;
#204 = DIRECTION ( 'NONE',  ( -1.000000000000000000, -0.000000000000000000, -0.000000000000000000 ) ) ;
#205 = DIRECTION ( 'NONE',  ( -1.000000000000000000, 0.000000000000000000, -0.000000000000000000 ) ) ;
#206 = ORIENTED_EDGE ( 'NONE', *, *, #186, .T. ) ;
#207 = AXIS2_PLACEMENT_3D ( 'NONE', #421, #660, #599 ) ;
#208 = EDGE_LOOP ( 'NONE', ( #376, #380, #99, #464 ) ) ;
#209 = CARTESIAN_POINT ( 'NONE',  ( 0.04952385606857356848, 0.09344780551861930906, -0.1381988629815581460 ) ) ;
#210 = CARTESIAN_POINT ( 'NONE',  ( 0.000000000000000000, 0.09144780551861930729, -0.1391988629815581469 ) ) ;
#211 = VERTEX_POINT ( 'NONE', #646 ) ;
#212 = AXIS2_PLACEMENT_3D ( 'NONE', #757, #218, #453 ) ;
#213 = LINE ( 'NONE', #408, #372 ) ;
#214 = AXIS2_PLACEMENT_3D ( 'NONE', #632, #704, #343 ) ;
#215 = EDGE_CURVE ( 'NONE', #183, #750, #467, .T. ) ;
#216 = DIRECTION ( 'NONE',  ( -0.000000000000000000, -0.000000000000000000, 1.000000000000000000 ) ) ;
#217 = ORIENTED_EDGE ( 'NONE', *, *, #384, .T. ) ;
#218 = DIRECTION ( 'NONE',  ( -1.000000000000000000, 0.000000000000000000, 0.000000000000000000 ) ) ;
#219 = EDGE_CURVE ( 'NONE', #189, #631, #591, .T. ) ;
#220 = CARTESIAN_POINT ( 'NONE',  ( 0.04952385606857356848, 0.2334478055186192946, -0.1381988629815581460 ) ) ;
#221 = VERTEX_POINT ( 'NONE', #173 ) ;
#222 = DIRECTION ( 'NONE',  ( 0.000000000000000000, 0.000000000000000000, -1.000000000000000000 ) ) ;
#223 = AXIS2_PLACEMENT_3D ( 'NONE', #90, #198, #147 ) ;
#224 = DIRECTION ( 'NONE',  ( -1.000000000000000000, -0.000000000000000000, -0.000000000000000000 ) ) ;
#225 = PRODUCT_CONTEXT ( 'NONE', #590, 'mechanical' ) ;
#226 = VERTEX_POINT ( 'NONE', #708 ) ;
#227 = AXIS2_PLACEMENT_3D ( 'NONE', #633, #329, #515 ) ;
#228 = CIRCLE ( 'NONE', #543, 0.004000000000000003553 ) ;
#229 = DIRECTION ( 'NONE',  ( -1.000000000000000000, -0.000000000000000000, -0.000000000000000000 ) ) ;
#230 = EDGE_LOOP ( 'NONE', ( #360, #234 ) ) ;
#231 = EDGE_CURVE ( 'NONE', #7, #740, #414, .T. ) ;
#232 = DIRECTION ( 'NONE',  ( -1.000000000000000000, 0.000000000000000000, 0.000000000000000000 ) ) ;
#233 = DIRECTION ( 'NONE',  ( -1.000000000000000000, 0.000000000000000000, -0.000000000000000000 ) ) ;
#234 = ORIENTED_EDGE ( 'NONE', *, *, #634, .F. ) ;
#235 = LINE ( 'NONE', #478, #497 ) ;
#236 = DIRECTION ( 'NONE',  ( 1.000000000000000000, -0.000000000000000000, 0.000000000000000000 ) ) ;
#237 = ORIENTED_EDGE ( 'NONE', *, *, #685, .T. ) ;
#238 = FACE_OUTER_BOUND ( 'NONE', #420, .T. ) ;
#239 = CIRCLE ( 'NONE', #340, 0.004000000000000003553 ) ;
#240 = AXIS2_PLACEMENT_3D ( 'NONE', #673, #378, #614 ) ;
#241 = FACE_OUTER_BOUND ( 'NONE', #697, .T. ) ;
#242 = EDGE_CURVE ( 'NONE', #750, #273, #746, .T. ) ;
#243 = ORIENTED_EDGE ( 'NONE', *, *, #498, .F. ) ;
#244 = PLANE ( 'NONE',  #558 ) ;
#245 = ORIENTED_EDGE ( 'NONE', *, *, #434, .T. ) ;
#246 = FACE_OUTER_BOUND ( 'NONE', #739, .T. ) ;
#247 = ORIENTED_EDGE ( 'NONE', *, *, #30, .T. ) ;
#248 = FACE_OUTER_BOUND ( 'NONE', #597, .T. ) ;
#249 = ORIENTED_EDGE ( 'NONE', *, *, #105, .T. ) ;
#250 = PLANE ( 'NONE',  #379 ) ;
#251 = CARTESIAN_POINT ( 'NONE',  ( 0.05271532607549145322, 0.1634478055186194267, -0.1421988629815581495 ) ) ;
#252 = VERTEX_POINT ( 'NONE', #293 ) ;
#253 = DIRECTION ( 'NONE',  ( -1.000000000000000000, 0.000000000000000000, 0.000000000000000000 ) ) ;
#254 = CIRCLE ( 'NONE', #321, 0.002099999999999990763 ) ;
#255 = CARTESIAN_POINT ( 'NONE',  ( 0.04552385606857356493, 0.2354478055186192964, -0.1341988629815581424 ) ) ;
#256 = EDGE_CURVE ( 'NONE', #197, #18, #532, .T. ) ;
#257 = EDGE_LOOP ( 'NONE', ( #499, #461 ) ) ;
#258 = ORIENTED_EDGE ( 'NONE', *, *, #462, .T. ) ;
#259 = CARTESIAN_POINT ( 'NONE',  ( 0.05990679608240934151, 0.2334478055186192946, -0.1381988629815581460 ) ) ;
#260 =( GEOMETRIC_REPRESENTATION_CONTEXT ( 3 ) GLOBAL_UNCERTAINTY_ASSIGNED_CONTEXT ( ( #50 ) ) GLOBAL_UNIT_ASSIGNED_CONTEXT ( ( #569, #279, #164 ) ) REPRESENTATION_CONTEXT ( 'NONE', 'WORKASPACE' ) );
#261 = CYLINDRICAL_SURFACE ( 'NONE', #81, 0.002099999999999990763 ) ;
#262 = DIRECTION ( 'NONE',  ( -1.000000000000000000, 0.000000000000000000, 0.000000000000000000 ) ) ;
#263 = ADVANCED_FACE ( 'NONE', ( #654, #536 ), #114, .F. ) ;
#264 = ORIENTED_EDGE ( 'NONE', *, *, #419, .F. ) ;
#265 = EDGE_LOOP ( 'NONE', ( #545, #310, #217, #393 ) ) ;
#266 = DIRECTION ( 'NONE',  ( 0.000000000000000000, 0.000000000000000000, 1.000000000000000000 ) ) ;
#267 = CARTESIAN_POINT ( 'NONE',  ( 0.04552385606857356493, 0.2384478055186192991, -0.1371988629815581451 ) ) ;
#268 = CIRCLE ( 'NONE', #510, 0.002100000000000004641 ) ;
#269 = EDGE_CURVE ( 'NONE', #197, #183, #607, .T. ) ;
#270 = CYLINDRICAL_SURFACE ( 'NONE', #616, 0.003000000000000002665 ) ;
#271 = DIRECTION ( 'NONE',  ( 1.000000000000000000, -0.000000000000000000, 0.000000000000000000 ) ) ;
#272 = VECTOR ( 'NONE', #402, 1.000000000000000000 ) ;
#273 = VERTEX_POINT ( 'NONE', #479 ) ;
#274 = CARTESIAN_POINT ( 'NONE',  ( 0.05990679608240934151, 0.2334478055186192946, -0.1381988629815581460 ) ) ;
#275 = VECTOR ( 'NONE', #216, 1.000000000000000000 ) ;
#276 = CARTESIAN_POINT ( 'NONE',  ( 0.04952385606857356848, 0.09344780551861930906, -0.1412988629815581376 ) ) ;
#277 = CARTESIAN_POINT ( 'NONE',  ( 0.05271532607549145322, 0.1634478055186194267, -0.1421988629815581495 ) ) ;
#278 =( NAMED_UNIT ( * ) PLANE_ANGLE_UNIT ( ) SI_UNIT ( $, .RADIAN. ) );
#279 =( NAMED_UNIT ( * ) PLANE_ANGLE_UNIT ( ) SI_UNIT ( $, .RADIAN. ) );
#280 = DIRECTION ( 'NONE',  ( 0.000000000000000000, 0.000000000000000000, -1.000000000000000000 ) ) ;
#281 = CARTESIAN_POINT ( 'NONE',  ( 0.04552385606857356493, 0.2334478055186192946, -0.1381988629815581460 ) ) ;
#282 = ORIENTED_EDGE ( 'NONE', *, *, #135, .T. ) ;
#283 = FACE_BOUND ( 'NONE', #373, .T. ) ;
#284 = CYLINDRICAL_SURFACE ( 'NONE', #301, 0.003099999999999991651 ) ;
#285 = VERTEX_POINT ( 'NONE', #785 ) ;
#286 = CARTESIAN_POINT ( 'NONE',  ( 0.05990679608240934151, 0.09344780551861930906, -0.1360988629815581552 ) ) ;
#287 = AXIS2_PLACEMENT_3D ( 'NONE', #388, #455, #395 ) ;
#288 = AXIS2_PLACEMENT_3D ( 'NONE', #585, #49, #475 ) ;
#289 = DIRECTION ( 'NONE',  ( -1.000000000000000000, 0.000000000000000000, -0.000000000000000000 ) ) ;
#290 = ADVANCED_FACE ( 'NONE', ( #241 ), #716, .F. ) ;
#291 = ORIENTED_EDGE ( 'NONE', *, *, #549, .F. ) ;
#292 = CARTESIAN_POINT ( 'NONE',  ( 0.000000000000000000, 0.08844780551861930462, -0.1361988629815581442 ) ) ;
#293 = CARTESIAN_POINT ( 'NONE',  ( 0.05990679608240934151, 0.09144780551861930729, -0.1341988629815581424 ) ) ;
#294 = ORIENTED_EDGE ( 'NONE', *, *, #186, .F. ) ;
#295 = FACE_OUTER_BOUND ( 'NONE', #302, .T. ) ;
#296 = EDGE_CURVE ( 'NONE', #314, #631, #551, .T. ) ;
#297 = VECTOR ( 'NONE', #522, 1.000000000000000000 ) ;
#298 = DIRECTION ( 'NONE',  ( 0.000000000000000000, 0.000000000000000000, 1.000000000000000000 ) ) ;
#299 = ORIENTED_EDGE ( 'NONE', *, *, #203, .F. ) ;
#300 = CARTESIAN_POINT ( 'NONE',  ( 0.000000000000000000, 0.08844780551861930462, -0.1371988629815581451 ) ) ;
#301 = AXIS2_PLACEMENT_3D ( 'NONE', #176, #362, #298 ) ;
#302 = EDGE_LOOP ( 'NONE', ( #644, #588, #567, #347 ) ) ;
#303 = DIRECTION ( 'NONE',  ( 0.000000000000000000, 1.000000000000000000, 0.000000000000000000 ) ) ;
#304 = EDGE_CURVE ( 'NONE', #273, #334, #145, .T. ) ;
#305 = ORIENTED_EDGE ( 'NONE', *, *, #192, .F. ) ;
#306 = DIRECTION ( 'NONE',  ( -1.000000000000000000, 0.000000000000000000, 0.000000000000000000 ) ) ;
#307 = ADVANCED_BREP_SHAPE_REPRESENTATION ( 'pivot', ( #387, #117 ), #61 ) ;
#308 = CIRCLE ( 'NONE', #705, 0.003000000000000002665 ) ;
#309 = ADVANCED_FACE ( 'NONE', ( #27 ), #261, .F. ) ;
#310 = ORIENTED_EDGE ( 'NONE', *, *, #219, .T. ) ;
#311 = CARTESIAN_POINT ( 'NONE',  ( 0.04552385606857356493, 0.2354478055186192964, -0.1371988629815581451 ) ) ;
#312 = CARTESIAN_POINT ( 'NONE',  ( 0.05990679608240934151, 0.000000000000000000, -0.1341988629815581424 ) ) ;
#313 = CIRCLE ( 'NONE', #214, 0.003000000000000002665 ) ;
#314 = VERTEX_POINT ( 'NONE', #328 ) ;
#315 = DIRECTION ( 'NONE',  ( 0.000000000000000000, 0.000000000000000000, 1.000000000000000000 ) ) ;
#316 = DIRECTION ( 'NONE',  ( -1.000000000000000000, -0.000000000000000000, -0.000000000000000000 ) ) ;
#317 = CARTESIAN_POINT ( 'NONE',  ( 0.05990679608240934151, 0.09344780551861930906, -0.1360988629815581552 ) ) ;
#318 = DIRECTION ( 'NONE',  ( 0.000000000000000000, 0.000000000000000000, 1.000000000000000000 ) ) ;
#319 = EDGE_CURVE ( 'NONE', #718, #411, #483, .T. ) ;
#320 = CARTESIAN_POINT ( 'NONE',  ( 0.05061532607549144858, 0.1634478055186194267, -0.1361988629815581442 ) ) ;
#321 = AXIS2_PLACEMENT_3D ( 'NONE', #621, #672, #190 ) ;
#322 = CARTESIAN_POINT ( 'NONE',  ( 0.05061532607549144858, 0.1634478055186194267, -0.1341988629815581424 ) ) ;
#323 = CIRCLE ( 'NONE', #107, 0.002099999999999990763 ) ;
#324 = VERTEX_POINT ( 'NONE', #447 ) ;
#325 = AXIS2_PLACEMENT_3D ( 'NONE', #169, #236, #596 ) ;
#326 = DIRECTION ( 'NONE',  ( 1.000000000000000000, -0.000000000000000000, 0.000000000000000000 ) ) ;
#327 = ORIENTED_EDGE ( 'NONE', *, *, #16, .F. ) ;
#328 = CARTESIAN_POINT ( 'NONE',  ( 0.04952385606857356848, 0.09344780551861930906, -0.1360988629815581552 ) ) ;
#329 = DIRECTION ( 'NONE',  ( 0.000000000000000000, 0.000000000000000000, -1.000000000000000000 ) ) ;
#330 = EDGE_CURVE ( 'NONE', #659, #718, #734, .T. ) ;
#331 = VERTEX_POINT ( 'NONE', #726 ) ;
#332 = ORIENTED_EDGE ( 'NONE', *, *, #73, .F. ) ;
#333 = CIRCLE ( 'NONE', #537, 0.002099999999999990763 ) ;
#334 = VERTEX_POINT ( 'NONE', #557 ) ;
#335 = DIRECTION ( 'NONE',  ( -1.000000000000000000, 0.000000000000000000, 0.000000000000000000 ) ) ;
#336 = DIRECTION ( 'NONE',  ( 0.000000000000000000, -1.000000000000000000, 0.000000000000000000 ) ) ;
#337 = CIRCLE ( 'NONE', #786, 0.002099999999999990763 ) ;
#338 = ORIENTED_EDGE ( 'NONE', *, *, #319, .T. ) ;
#339 = APPLICATION_PROTOCOL_DEFINITION ( 'draft international standard', 'automotive_design', 1998, #758 ) ;
#340 = AXIS2_PLACEMENT_3D ( 'NONE', #277, #391, #620 ) ;
#341 = MECHANICAL_DESIGN_GEOMETRIC_PRESENTATION_REPRESENTATION (  '', ( #422 ), #260 ) ;
#342 = EDGE_LOOP ( 'NONE', ( #489, #444, #125, #481, #775, #594, #258, #163 ) ) ;
#343 = DIRECTION ( 'NONE',  ( 0.000000000000000000, 0.000000000000000000, -1.000000000000000000 ) ) ;
#344 = CARTESIAN_POINT ( 'NONE',  ( 0.000000000000000000, 0.2384478055186192991, -0.1391988629815581469 ) ) ;
#345 = ORIENTED_EDGE ( 'NONE', *, *, #784, .F. ) ;
#346 = CARTESIAN_POINT ( 'NONE',  ( 0.05271532607549145322, 0.1634478055186194267, -0.1361988629815581442 ) ) ;
#347 = ORIENTED_EDGE ( 'NONE', *, *, #780, .T. ) ;
#348 = DIRECTION ( 'NONE',  ( -1.000000000000000000, 0.000000000000000000, 0.000000000000000000 ) ) ;
#349 = EDGE_CURVE ( 'NONE', #226, #51, #516, .T. ) ;
#350 = DIRECTION ( 'NONE',  ( 0.000000000000000000, 0.000000000000000000, -1.000000000000000000 ) ) ;
#351 = EDGE_LOOP ( 'NONE', ( #598, #581 ) ) ;
#352 = FACE_BOUND ( 'NONE', #469, .T. ) ;
#353 = AXIS2_PLACEMENT_3D ( 'NONE', #292, #535, #731 ) ;
#354 = ADVANCED_FACE ( 'NONE', ( #433 ), #690, .F. ) ;
#355 = DIRECTION ( 'NONE',  ( 0.000000000000000000, 0.000000000000000000, -1.000000000000000000 ) ) ;
#356 = VERTEX_POINT ( 'NONE', #77 ) ;
#357 = CARTESIAN_POINT ( 'NONE',  ( 0.04552385606857356493, 0.000000000000000000, -0.1341988629815581424 ) ) ;
#358 = DIRECTION ( 'NONE',  ( -0.000000000000000000, -0.000000000000000000, 1.000000000000000000 ) ) ;
#359 = EDGE_CURVE ( 'NONE', #252, #692, #196, .T. ) ;
#360 = ORIENTED_EDGE ( 'NONE', *, *, #119, .F. ) ;
#361 = CARTESIAN_POINT ( 'NONE',  ( 0.04871532607549144966, 0.1634478055186194267, -0.1361988629815581442 ) ) ;
#362 = DIRECTION ( 'NONE',  ( -1.000000000000000000, -0.000000000000000000, -0.000000000000000000 ) ) ;
#363 = VERTEX_POINT ( 'NONE', #738 ) ;
#364 = ADVANCED_FACE ( 'NONE', ( #677 ), #140, .F. ) ;
#365 = CYLINDRICAL_SURFACE ( 'NONE', #429, 0.003099999999999991651 ) ;
#366 = VECTOR ( 'NONE', #232, 1.000000000000000000 ) ;
#367 = VERTEX_POINT ( 'NONE', #518 ) ;
#368 = ORIENTED_EDGE ( 'NONE', *, *, #359, .F. ) ;
#369 = CARTESIAN_POINT ( 'NONE',  ( 0.05271532607549145322, 0.1634478055186194267, -0.1361988629815581442 ) ) ;
#370 = AXIS2_PLACEMENT_3D ( 'NONE', #416, #175, #181 ) ;
#371 = AXIS2_PLACEMENT_3D ( 'NONE', #624, #578, #753 ) ;
#372 = VECTOR ( 'NONE', #116, 1.000000000000000000 ) ;
#373 = EDGE_LOOP ( 'NONE', ( #71, #327 ) ) ;
#374 = LINE ( 'NONE', #664, #552 ) ;
#375 = ADVANCED_FACE ( 'NONE', ( #352, #283, #638 ), #582, .F. ) ;
#376 = ORIENTED_EDGE ( 'NONE', *, *, #349, .T. ) ;
#377 = CARTESIAN_POINT ( 'NONE',  ( 0.05271532607549145322, 0.1634478055186194267, -0.1361988629815581442 ) ) ;
#378 = DIRECTION ( 'NONE',  ( -0.000000000000000000, -0.000000000000000000, 1.000000000000000000 ) ) ;
#379 = AXIS2_PLACEMENT_3D ( 'NONE', #4, #194, #495 ) ;
#380 = ORIENTED_EDGE ( 'NONE', *, *, #172, .T. ) ;
#381 = FACE_BOUND ( 'NONE', #351, .T. ) ;
#382 = ORIENTED_EDGE ( 'NONE', *, *, #727, .T. ) ;
#383 = CARTESIAN_POINT ( 'NONE',  ( 0.04952385606857356848, 0.2334478055186192946, -0.1360988629815581552 ) ) ;
#384 = EDGE_CURVE ( 'NONE', #631, #314, #67, .T. ) ;
#385 = CARTESIAN_POINT ( 'NONE',  ( 0.05061532607549144858, 0.1634478055186194267, -0.1361988629815581442 ) ) ;
#386 = DIRECTION ( 'NONE',  ( 0.000000000000000000, 0.000000000000000000, 1.000000000000000000 ) ) ;
#387 = MANIFOLD_SOLID_BREP ( 'Redondeo2', #763 ) ;
#388 = CARTESIAN_POINT ( 'NONE',  ( 0.04552385606857356493, 0.2334478055186192946, -0.1381988629815581460 ) ) ;
#389 = VERTEX_POINT ( 'NONE', #166 ) ;
#390 = EDGE_CURVE ( 'NONE', #211, #252, #213, .T. ) ;
#391 = DIRECTION ( 'NONE',  ( 0.000000000000000000, 0.000000000000000000, -1.000000000000000000 ) ) ;
#392 = EDGE_LOOP ( 'NONE', ( #68, #79 ) ) ;
#393 = ORIENTED_EDGE ( 'NONE', *, *, #486, .F. ) ;
#394 = CARTESIAN_POINT ( 'NONE',  ( 0.04952385606857356848, 0.2334478055186192946, -0.1402988629815581367 ) ) ;
#395 = DIRECTION ( 'NONE',  ( 0.000000000000000000, 0.000000000000000000, 1.000000000000000000 ) ) ;
#396 = EDGE_LOOP ( 'NONE', ( #755, #193 ) ) ;
#397 = SURFACE_STYLE_USAGE ( .BOTH. , #712 ) ;
#398 = DIRECTION ( 'NONE',  ( 0.000000000000000000, 0.000000000000000000, -1.000000000000000000 ) ) ;
#399 = AXIS2_PLACEMENT_3D ( 'NONE', #110, #630, #703 ) ;
#400 = ORIENTED_EDGE ( 'NONE', *, *, #269, .F. ) ;
#401 = DIRECTION ( 'NONE',  ( 0.000000000000000000, 0.000000000000000000, 1.000000000000000000 ) ) ;
#402 = DIRECTION ( 'NONE',  ( -1.000000000000000000, -0.000000000000000000, -0.000000000000000000 ) ) ;
#403 = DIRECTION ( 'NONE',  ( -0.000000000000000000, -0.000000000000000000, 1.000000000000000000 ) ) ;
#404 = VECTOR ( 'NONE', #583, 1.000000000000000000 ) ;
#405 = UNCERTAINTY_MEASURE_WITH_UNIT (LENGTH_MEASURE( 1.000000000000000082E-05 ), #465, 'distance_accuracy_value', 'NONE');
#406 = VECTOR ( 'NONE', #493, 1.000000000000000000 ) ;
#407 = ADVANCED_FACE ( 'NONE', ( #171 ), #103, .F. ) ;
#408 = CARTESIAN_POINT ( 'NONE',  ( 0.000000000000000000, 0.09144780551861930729, -0.1341988629815581424 ) ) ;
#409 = CARTESIAN_POINT ( 'NONE',  ( 0.04552385606857356493, 0.2384478055186192991, -0.1361988629815581442 ) ) ;
#410 = EDGE_LOOP ( 'NONE', ( #55, #472, #611, #724 ) ) ;
#411 = VERTEX_POINT ( 'NONE', #767 ) ;
#412 = DIRECTION ( 'NONE',  ( -0.000000000000000000, -0.000000000000000000, 1.000000000000000000 ) ) ;
#413 = EDGE_CURVE ( 'NONE', #629, #477, #22, .T. ) ;
#414 = LINE ( 'NONE', #60, #670 ) ;
#415 = ORIENTED_EDGE ( 'NONE', *, *, #54, .F. ) ;
#416 = CARTESIAN_POINT ( 'NONE',  ( 0.05990679608240934151, 0.2334478055186192946, -0.1381988629815581460 ) ) ;
#417 = AXIS2_PLACEMENT_3D ( 'NONE', #684, #253, #386 ) ;
#418 = CARTESIAN_POINT ( 'NONE',  ( 0.05990679608240934151, 0.09344780551861930906, -0.1381988629815581460 ) ) ;
#419 = EDGE_CURVE ( 'NONE', #221, #324, #123, .T. ) ;
#420 = EDGE_LOOP ( 'NONE', ( #572, #247, #26, #299 ) ) ;
#421 = CARTESIAN_POINT ( 'NONE',  ( 0.04952385606857356848, 0.09344780551861930906, -0.1381988629815581460 ) ) ;
#422 = STYLED_ITEM ( 'NONE', ( #653 ), #387 ) ;
#423 = CARTESIAN_POINT ( 'NONE',  ( 0.000000000000000000, 0.000000000000000000, -0.1361988629815581442 ) ) ;
#424 = EDGE_LOOP ( 'NONE', ( #714, #450, #702, #85 ) ) ;
#425 = CARTESIAN_POINT ( 'NONE',  ( 0.04952385606857356848, 0.09344780551861930906, -0.1412988629815581376 ) ) ;
#426 = VERTEX_POINT ( 'NONE', #394 ) ;
#427 = ORIENTED_EDGE ( 'NONE', *, *, #48, .T. ) ;
#428 = DIRECTION ( 'NONE',  ( -1.000000000000000000, 0.000000000000000000, 0.000000000000000000 ) ) ;
#429 = AXIS2_PLACEMENT_3D ( 'NONE', #606, #184, #531 ) ;
#430 = LINE ( 'NONE', #286, #480 ) ;
#431 = EDGE_LOOP ( 'NONE', ( #201, #769, #663, #696 ) ) ;
#432 = DIRECTION ( 'NONE',  ( 0.000000000000000000, 0.000000000000000000, -1.000000000000000000 ) ) ;
#433 = FACE_OUTER_BOUND ( 'NONE', #208, .T. ) ;
#434 = EDGE_CURVE ( 'NONE', #334, #692, #313, .T. ) ;
#435 = DIRECTION ( 'NONE',  ( 0.000000000000000000, 0.000000000000000000, -1.000000000000000000 ) ) ;
#436 = EDGE_CURVE ( 'NONE', #659, #331, #514, .T. ) ;
#437 = ORIENTED_EDGE ( 'NONE', *, *, #685, .F. ) ;
#438 = CARTESIAN_POINT ( 'NONE',  ( 0.04952385606857356848, 0.2334478055186192946, -0.1412988629815581376 ) ) ;
#439 = CIRCLE ( 'NONE', #787, 0.003000000000000002665 ) ;
#440 = ADVANCED_FACE ( 'NONE', ( #100 ), #270, .T. ) ;
#441 = CARTESIAN_POINT ( 'NONE',  ( 0.000000000000000000, 0.2354478055186192964, -0.1391988629815581469 ) ) ;
#442 = DIRECTION ( 'NONE',  ( -1.000000000000000000, -0.000000000000000000, -0.000000000000000000 ) ) ;
#443 = DIRECTION ( 'NONE',  ( -0.000000000000000000, -0.000000000000000000, 1.000000000000000000 ) ) ;
#444 = ORIENTED_EDGE ( 'NONE', *, *, #722, .T. ) ;
#445 = FACE_BOUND ( 'NONE', #230, .T. ) ;
#446 = EDGE_CURVE ( 'NONE', #189, #652, #337, .T. ) ;
#447 = CARTESIAN_POINT ( 'NONE',  ( 0.04552385606857356493, 0.09344780551861930906, -0.1350988629815581543 ) ) ;
#448 = LINE ( 'NONE', #385, #562 ) ;
#449 = CIRCLE ( 'NONE', #207, 0.003099999999999991651 ) ;
#450 = ORIENTED_EDGE ( 'NONE', *, *, #87, .T. ) ;
#451 = SHAPE_DEFINITION_REPRESENTATION ( #748, #307 ) ;
#452 = ORIENTED_EDGE ( 'NONE', *, *, #554, .F. ) ;
#453 = DIRECTION ( 'NONE',  ( 0.000000000000000000, 0.000000000000000000, 1.000000000000000000 ) ) ;
#454 = EDGE_CURVE ( 'NONE', #477, #221, #160, .T. ) ;
#455 = DIRECTION ( 'NONE',  ( -1.000000000000000000, 0.000000000000000000, 0.000000000000000000 ) ) ;
#456 = ORIENTED_EDGE ( 'NONE', *, *, #242, .T. ) ;
#457 = CARTESIAN_POINT ( 'NONE',  ( 0.000000000000000000, 0.09144780551861930729, -0.1371988629815581451 ) ) ;
#458 = DIRECTION ( 'NONE',  ( -1.000000000000000000, -0.000000000000000000, -0.000000000000000000 ) ) ;
#459 = ORIENTED_EDGE ( 'NONE', *, *, #215, .T. ) ;
#460 = DIRECTION ( 'NONE',  ( 1.000000000000000000, 0.000000000000000000, 0.000000000000000000 ) ) ;
#461 = ORIENTED_EDGE ( 'NONE', *, *, #586, .T. ) ;
#462 = EDGE_CURVE ( 'NONE', #356, #367, #106, .T. ) ;
#463 = VECTOR ( 'NONE', #303, 1.000000000000000000 ) ;
#464 = ORIENTED_EDGE ( 'NONE', *, *, #772, .F. ) ;
#465 =( LENGTH_UNIT ( ) NAMED_UNIT ( * ) SI_UNIT ( $, .METRE. ) );
#466 = FILL_AREA_STYLE_COLOUR ( '', #188 ) ;
#467 = LINE ( 'NONE', #118, #773 ) ;
#468 = VECTOR ( 'NONE', #742, 1.000000000000000000 ) ;
#469 = EDGE_LOOP ( 'NONE', ( #728, #264 ) ) ;
#470 = DIRECTION ( 'NONE',  ( 0.000000000000000000, 0.000000000000000000, 1.000000000000000000 ) ) ;
#471 = PLANE ( 'NONE',  #645 ) ;
#472 = ORIENTED_EDGE ( 'NONE', *, *, #454, .T. ) ;
#473 = CARTESIAN_POINT ( 'NONE',  ( 0.05990679608240934151, 0.2334478055186192946, -0.1402988629815581367 ) ) ;
#474 = ADVANCED_FACE ( 'NONE', ( #238 ), #725, .F. ) ;
#475 = DIRECTION ( 'NONE',  ( 0.000000000000000000, 0.000000000000000000, -1.000000000000000000 ) ) ;
#476 = AXIS2_PLACEMENT_3D ( 'NONE', #369, #776, #126 ) ;
#477 = VERTEX_POINT ( 'NONE', #425 ) ;
#478 = CARTESIAN_POINT ( 'NONE',  ( 0.04552385606857356493, 0.08844780551861930462, -0.1421988629815581495 ) ) ;
#479 = CARTESIAN_POINT ( 'NONE',  ( 0.05990679608240934151, 0.2384478055186192991, -0.1391988629815581469 ) ) ;
#480 = VECTOR ( 'NONE', #779, 1.000000000000000000 ) ;
#481 = ORIENTED_EDGE ( 'NONE', *, *, #269, .T. ) ;
#482 = DIRECTION ( 'NONE',  ( -0.000000000000000000, -0.000000000000000000, 1.000000000000000000 ) ) ;
#483 = LINE ( 'NONE', #752, #618 ) ;
#484 = ORIENTED_EDGE ( 'NONE', *, *, #96, .F. ) ;
#485 = CARTESIAN_POINT ( 'NONE',  ( 0.000000000000000000, 0.000000000000000000, -0.1421988629815581495 ) ) ;
#486 = EDGE_CURVE ( 'NONE', #652, #314, #430, .T. ) ;
#487 = DIRECTION ( 'NONE',  ( 0.000000000000000000, -0.000000000000000000, 1.000000000000000000 ) ) ;
#488 = CIRCLE ( 'NONE', #399, 0.003000000000000002665 ) ;
#489 = ORIENTED_EDGE ( 'NONE', *, *, #549, .T. ) ;
#490 = EDGE_CURVE ( 'NONE', #356, #28, #374, .T. ) ;
#491 = FACE_OUTER_BOUND ( 'NONE', #580, .T. ) ;
#492 = CARTESIAN_POINT ( 'NONE',  ( 0.05990679608240934151, 0.2354478055186192964, -0.1341988629815581424 ) ) ;
#493 = DIRECTION ( 'NONE',  ( 0.000000000000000000, 1.000000000000000000, 0.000000000000000000 ) ) ;
#494 = EDGE_CURVE ( 'NONE', #28, #285, #592, .T. ) ;
#495 = DIRECTION ( 'NONE',  ( 0.000000000000000000, 0.000000000000000000, 1.000000000000000000 ) ) ;
#496 = DIRECTION ( 'NONE',  ( -1.000000000000000000, 0.000000000000000000, 0.000000000000000000 ) ) ;
#497 = VECTOR ( 'NONE', #720, 1.000000000000000000 ) ;
#498 = EDGE_CURVE ( 'NONE', #652, #189, #141, .T. ) ;
#499 = ORIENTED_EDGE ( 'NONE', *, *, #413, .T. ) ;
#500 = CARTESIAN_POINT ( 'NONE',  ( 0.04952385606857356848, 0.2334478055186192946, -0.1350988629815581543 ) ) ;
#501 = CARTESIAN_POINT ( 'NONE',  ( 0.05990679608240934151, 0.2384478055186192991, -0.1361988629815581442 ) ) ;
#502 = CIRCLE ( 'NONE', #287, 0.003099999999999991651 ) ;
#503 = VERTEX_POINT ( 'NONE', #473 ) ;
#504 = PLANE ( 'NONE',  #14 ) ;
#505 = CARTESIAN_POINT ( 'NONE',  ( 0.05990679608240934151, 0.09344780551861930906, -0.1381988629815581460 ) ) ;
#506 = FACE_BOUND ( 'NONE', #637, .T. ) ;
#507 = ORIENTED_EDGE ( 'NONE', *, *, #24, .T. ) ;
#508 = CARTESIAN_POINT ( 'NONE',  ( 0.05671532607549145677, 0.1634478055186194267, -0.1421988629815581495 ) ) ;
#509 = ADVANCED_FACE ( 'NONE', ( #595 ), #129, .F. ) ;
#510 = AXIS2_PLACEMENT_3D ( 'NONE', #19, #737, #8 ) ;
#511 = CARTESIAN_POINT ( 'NONE',  ( 0.04952385606857356848, 0.09344780551861930906, -0.1350988629815581543 ) ) ;
#512 = ORIENTED_EDGE ( 'NONE', *, *, #82, .F. ) ;
#513 = ORIENTED_EDGE ( 'NONE', *, *, #643, .T. ) ;
#514 = LINE ( 'NONE', #37, #167 ) ;
#515 = DIRECTION ( 'NONE',  ( -1.000000000000000000, 0.000000000000000000, 0.000000000000000000 ) ) ;
#516 = CIRCLE ( 'NONE', #579, 0.004000000000000003553 ) ;
#517 = DIRECTION ( 'NONE',  ( 0.000000000000000000, 0.000000000000000000, 1.000000000000000000 ) ) ;
#518 = CARTESIAN_POINT ( 'NONE',  ( 0.04552385606857356493, 0.08844780551861930462, -0.1371988629815581451 ) ) ;
#519 = ADVANCED_FACE ( 'NONE', ( #295 ), #365, .F. ) ;
#520 = LINE ( 'NONE', #564, #275 ) ;
#521 = ORIENTED_EDGE ( 'NONE', *, *, #242, .F. ) ;
#522 = DIRECTION ( 'NONE',  ( -0.000000000000000000, -0.000000000000000000, 1.000000000000000000 ) ) ;
#523 = FILL_AREA_STYLE ('',( #466 ) ) ;
#524 = CARTESIAN_POINT ( 'NONE',  ( 0.04552385606857356493, 0.2354478055186192964, -0.1421988629815581495 ) ) ;
#525 = AXIS2_PLACEMENT_3D ( 'NONE', #195, #608, #136 ) ;
#526 = VERTEX_POINT ( 'NONE', #361 ) ;
#527 = FACE_BOUND ( 'NONE', #719, .T. ) ;
#528 = AXIS2_PLACEMENT_3D ( 'NONE', #83, #316, #555 ) ;
#529 = ADVANCED_FACE ( 'NONE', ( #246 ), #69, .T. ) ;
#530 = EDGE_LOOP ( 'NONE', ( #507, #573, #84, #678 ) ) ;
#531 = DIRECTION ( 'NONE',  ( 0.000000000000000000, 0.000000000000000000, 1.000000000000000000 ) ) ;
#532 = LINE ( 'NONE', #409, #144 ) ;
#533 = ORIENTED_EDGE ( 'NONE', *, *, #413, .F. ) ;
#534 = PRODUCT_RELATED_PRODUCT_CATEGORY ( 'part', '', ( #735 ) ) ;
#535 = DIRECTION ( 'NONE',  ( 0.000000000000000000, 1.000000000000000000, 0.000000000000000000 ) ) ;
#536 = FACE_BOUND ( 'NONE', #62, .T. ) ;
#537 = AXIS2_PLACEMENT_3D ( 'NONE', #274, #698, #517 ) ;
#538 = ORIENTED_EDGE ( 'NONE', *, *, #727, .F. ) ;
#539 = DIRECTION ( 'NONE',  ( 1.000000000000000000, -0.000000000000000000, 0.000000000000000000 ) ) ;
#540 = LINE ( 'NONE', #344, #745 ) ;
#541 = ORIENTED_EDGE ( 'NONE', *, *, #436, .F. ) ;
#542 = FACE_BOUND ( 'NONE', #392, .T. ) ;
#543 = AXIS2_PLACEMENT_3D ( 'NONE', #149, #92, #262 ) ;
#544 = EDGE_CURVE ( 'NONE', #18, #334, #783, .T. ) ;
#545 = ORIENTED_EDGE ( 'NONE', *, *, #446, .F. ) ;
#546 = DIRECTION ( 'NONE',  ( 0.000000000000000000, 0.000000000000000000, 1.000000000000000000 ) ) ;
#547 = FACE_OUTER_BOUND ( 'NONE', #34, .T. ) ;
#548 = DIRECTION ( 'NONE',  ( -1.000000000000000000, 0.000000000000000000, -0.000000000000000000 ) ) ;
#549 = EDGE_CURVE ( 'NONE', #211, #655, #789, .T. ) ;
#550 = VECTOR ( 'NONE', #165, 1.000000000000000000 ) ;
#551 = CIRCLE ( 'NONE', #108, 0.002099999999999990763 ) ;
#552 = VECTOR ( 'NONE', #715, 1.000000000000000000 ) ;
#553 = FACE_OUTER_BOUND ( 'NONE', #778, .T. ) ;
#554 = EDGE_CURVE ( 'NONE', #601, #367, #2, .T. ) ;
#555 = DIRECTION ( 'NONE',  ( 0.000000000000000000, 0.000000000000000000, 1.000000000000000000 ) ) ;
#556 = CYLINDRICAL_SURFACE ( 'NONE', #223, 0.003099999999999991651 ) ;
#557 = CARTESIAN_POINT ( 'NONE',  ( 0.05990679608240934151, 0.2384478055186192991, -0.1371988629815581451 ) ) ;
#558 = AXIS2_PLACEMENT_3D ( 'NONE', #485, #729, #428 ) ;
#559 = LINE ( 'NONE', #511, #694 ) ;
#560 = DIRECTION ( 'NONE',  ( 0.000000000000000000, 0.000000000000000000, -1.000000000000000000 ) ) ;
#561 = AXIS2_PLACEMENT_3D ( 'NONE', #423, #355, #289 ) ;
#562 = VECTOR ( 'NONE', #443, 1.000000000000000000 ) ;
#563 = ADVANCED_FACE ( 'NONE', ( #178 ), #56, .F. ) ;
#564 = CARTESIAN_POINT ( 'NONE',  ( 0.05990679608240934151, 0.08844780551861930462, -0.1361988629815581442 ) ) ;
#565 = DIRECTION ( 'NONE',  ( 0.000000000000000000, 0.000000000000000000, 1.000000000000000000 ) ) ;
#566 = FACE_OUTER_BOUND ( 'NONE', #36, .T. ) ;
#567 = ORIENTED_EDGE ( 'NONE', *, *, #436, .T. ) ;
#568 = ORIENTED_EDGE ( 'NONE', *, *, #231, .T. ) ;
#569 =( LENGTH_UNIT ( ) NAMED_UNIT ( * ) SI_UNIT ( $, .METRE. ) );
#570 = AXIS2_PLACEMENT_3D ( 'NONE', #377, #612, #76 ) ;
#571 = DIRECTION ( 'NONE',  ( 0.000000000000000000, 0.000000000000000000, -1.000000000000000000 ) ) ;
#572 = ORIENTED_EDGE ( 'NONE', *, *, #48, .F. ) ;
#573 = ORIENTED_EDGE ( 'NONE', *, *, #554, .T. ) ;
#574 = EDGE_CURVE ( 'NONE', #389, #183, #235, .T. ) ;
#575 = DIRECTION ( 'NONE',  ( -1.000000000000000000, 0.000000000000000000, 0.000000000000000000 ) ) ;
#576 = AXIS2_PLACEMENT_3D ( 'NONE', #59, #131, #546 ) ;
#577 = AXIS2_PLACEMENT_3D ( 'NONE', #101, #271, #571 ) ;
#578 = DIRECTION ( 'NONE',  ( 0.000000000000000000, 0.000000000000000000, -1.000000000000000000 ) ) ;
#579 = AXIS2_PLACEMENT_3D ( 'NONE', #251, #15, #191 ) ;
#580 = EDGE_LOOP ( 'NONE', ( #400, #294, #521, #760 ) ) ;
#581 = ORIENTED_EDGE ( 'NONE', *, *, #384, .F. ) ;
#582 = PLANE ( 'NONE',  #764 ) ;
#583 = DIRECTION ( 'NONE',  ( -1.000000000000000000, 0.000000000000000000, 0.000000000000000000 ) ) ;
#584 = CARTESIAN_POINT ( 'NONE',  ( 0.05990679608240934151, 0.09344780551861930906, -0.1381988629815581460 ) ) ;
#585 = CARTESIAN_POINT ( 'NONE',  ( 0.04552385606857356493, 0.2354478055186192964, -0.1391988629815581469 ) ) ;
#586 = EDGE_CURVE ( 'NONE', #477, #629, #449, .T. ) ;
#587 = CIRCLE ( 'NONE', #570, 0.004000000000000003553 ) ;
#588 = ORIENTED_EDGE ( 'NONE', *, *, #330, .F. ) ;
#589 = CARTESIAN_POINT ( 'NONE',  ( 0.04952385606857356848, 0.09344780551861930906, -0.1381988629815581460 ) ) ;
#590 = APPLICATION_CONTEXT ( 'automotive_design' ) ;
#591 = LINE ( 'NONE', #53, #550 ) ;
#592 = CIRCLE ( 'NONE', #5, 0.003000000000000002665 ) ;
#593 = ADVANCED_FACE ( 'NONE', ( #602, #542 ), #244, .T. ) ;
#594 = ORIENTED_EDGE ( 'NONE', *, *, #784, .T. ) ;
#595 = FACE_OUTER_BOUND ( 'NONE', #666, .T. ) ;
#596 = DIRECTION ( 'NONE',  ( 0.000000000000000000, 0.000000000000000000, -1.000000000000000000 ) ) ;
#597 = EDGE_LOOP ( 'NONE', ( #128, #533, #150, #732 ) ) ;
#598 = ORIENTED_EDGE ( 'NONE', *, *, #296, .F. ) ;
#599 = DIRECTION ( 'NONE',  ( 0.000000000000000000, 0.000000000000000000, 1.000000000000000000 ) ) ;
#600 = CARTESIAN_POINT ( 'NONE',  ( 0.05990679608240934151, 0.09344780551861930906, -0.1402988629815581367 ) ) ;
#601 = VERTEX_POINT ( 'NONE', #667 ) ;
#602 = FACE_OUTER_BOUND ( 'NONE', #683, .T. ) ;
#603 = ADVANCED_FACE ( 'NONE', ( #72 ), #86, .F. ) ;
#604 = ORIENTED_EDGE ( 'NONE', *, *, #662, .T. ) ;
#605 = EDGE_LOOP ( 'NONE', ( #66, #282 ) ) ;
#606 = CARTESIAN_POINT ( 'NONE',  ( 0.04952385606857356848, 0.2334478055186192946, -0.1381988629815581460 ) ) ;
#607 = CIRCLE ( 'NONE', #288, 0.003000000000000002665 ) ;
#608 = DIRECTION ( 'NONE',  ( -1.000000000000000000, 0.000000000000000000, 0.000000000000000000 ) ) ;
#609 = ADVANCED_FACE ( 'NONE', ( #381, #143 ), #504, .T. ) ;
#610 = ORIENTED_EDGE ( 'NONE', *, *, #544, .T. ) ;
#611 = ORIENTED_EDGE ( 'NONE', *, *, #419, .T. ) ;
#612 = DIRECTION ( 'NONE',  ( 0.000000000000000000, 0.000000000000000000, -1.000000000000000000 ) ) ;
#613 = AXIS2_PLACEMENT_3D ( 'NONE', #741, #560, #688 ) ;
#614 = DIRECTION ( 'NONE',  ( 1.000000000000000000, 0.000000000000000000, 0.000000000000000000 ) ) ;
#615 = CARTESIAN_POINT ( 'NONE',  ( 0.05481532607549145786, 0.1634478055186194267, -0.1341988629815581424 ) ) ;
#616 = AXIS2_PLACEMENT_3D ( 'NONE', #457, #762, #699 ) ;
#617 = CIRCLE ( 'NONE', #371, 0.002100000000000004641 ) ;
#618 = VECTOR ( 'NONE', #204, 1.000000000000000000 ) ;
#619 = CARTESIAN_POINT ( 'NONE',  ( 0.04952385606857356848, 0.09344780551861930906, -0.1402988629815581367 ) ) ;
#620 = DIRECTION ( 'NONE',  ( -1.000000000000000000, 0.000000000000000000, 0.000000000000000000 ) ) ;
#621 = CARTESIAN_POINT ( 'NONE',  ( 0.04952385606857356848, 0.2334478055186192946, -0.1381988629815581460 ) ) ;
#622 = ADVANCED_FACE ( 'NONE', ( #445, #547 ), #250, .T. ) ;
#623 = AXIS2_PLACEMENT_3D ( 'NONE', #441, #733, #432 ) ;
#624 = CARTESIAN_POINT ( 'NONE',  ( 0.05271532607549145322, 0.1634478055186194267, -0.1361988629815581442 ) ) ;
#625 = VERTEX_POINT ( 'NONE', #322 ) ;
#626 = CARTESIAN_POINT ( 'NONE',  ( 0.05990679608240934151, 0.2354478055186192964, -0.1421988629815581495 ) ) ;
#627 = AXIS2_PLACEMENT_3D ( 'NONE', #650, #412, #460 ) ;
#628 = DIRECTION ( 'NONE',  ( 0.000000000000000000, 0.000000000000000000, 1.000000000000000000 ) ) ;
#629 = VERTEX_POINT ( 'NONE', #744 ) ;
#630 = DIRECTION ( 'NONE',  ( -1.000000000000000000, 0.000000000000000000, -0.000000000000000000 ) ) ;
#631 = VERTEX_POINT ( 'NONE', #619 ) ;
#632 = CARTESIAN_POINT ( 'NONE',  ( 0.05990679608240934151, 0.2354478055186192964, -0.1371988629815581451 ) ) ;
#633 = CARTESIAN_POINT ( 'NONE',  ( 0.05271532607549145322, 0.1634478055186194267, -0.1341988629815581424 ) ) ;
#634 = EDGE_CURVE ( 'NONE', #426, #693, #254, .T. ) ;
#635 = ORIENTED_EDGE ( 'NONE', *, *, #494, .T. ) ;
#636 = DIRECTION ( 'NONE',  ( -1.000000000000000000, 0.000000000000000000, 0.000000000000000000 ) ) ;
#637 = EDGE_LOOP ( 'NONE', ( #158, #427 ) ) ;
#638 = FACE_OUTER_BOUND ( 'NONE', #342, .T. ) ;
#639 = AXIS2_PLACEMENT_3D ( 'NONE', #29, #326, #761 ) ;
#640 = LINE ( 'NONE', #104, #6 ) ;
#641 = EDGE_LOOP ( 'NONE', ( #12, #102, #345, #538 ) ) ;
#642 = DIRECTION ( 'NONE',  ( 1.000000000000000000, 0.000000000000000000, 0.000000000000000000 ) ) ;
#643 = EDGE_CURVE ( 'NONE', #132, #7, #268, .T. ) ;
#644 = ORIENTED_EDGE ( 'NONE', *, *, #319, .F. ) ;
#645 = AXIS2_PLACEMENT_3D ( 'NONE', #721, #771, #280 ) ;
#646 = CARTESIAN_POINT ( 'NONE',  ( 0.04552385606857356493, 0.09144780551861930729, -0.1341988629815581424 ) ) ;
#647 = AXIS2_PLACEMENT_3D ( 'NONE', #777, #350, #233 ) ;
#648 = EDGE_LOOP ( 'NONE', ( #58, #689, #291, #120 ) ) ;
#649 = CYLINDRICAL_SURFACE ( 'NONE', #639, 0.003000000000000002665 ) ;
#650 = CARTESIAN_POINT ( 'NONE',  ( 0.05271532607549145322, 0.1634478055186194267, -0.1421988629815581495 ) ) ;
#651 = DIRECTION ( 'NONE',  ( -0.000000000000000000, -0.000000000000000000, 1.000000000000000000 ) ) ;
#652 = VERTEX_POINT ( 'NONE', #317 ) ;
#653 = PRESENTATION_STYLE_ASSIGNMENT (( #397 ) ) ;
#654 = FACE_OUTER_BOUND ( 'NONE', #648, .T. ) ;
#655 = VERTEX_POINT ( 'NONE', #255 ) ;
#656 = CARTESIAN_POINT ( 'NONE',  ( 0.000000000000000000, 0.2384478055186192991, -0.1361988629815581442 ) ) ;
#657 = LINE ( 'NONE', #124, #122 ) ;
#658 = AXIS2_PLACEMENT_3D ( 'NONE', #209, #335, #470 ) ;
#659 = VERTEX_POINT ( 'NONE', #500 ) ;
#660 = DIRECTION ( 'NONE',  ( -1.000000000000000000, 0.000000000000000000, 0.000000000000000000 ) ) ;
#661 = CARTESIAN_POINT ( 'NONE',  ( 0.04552385606857356493, 0.2384478055186192991, -0.1391988629815581469 ) ) ;
#662 = EDGE_CURVE ( 'NONE', #740, #625, #138, .T. ) ;
#663 = ORIENTED_EDGE ( 'NONE', *, *, #203, .T. ) ;
#664 = CARTESIAN_POINT ( 'NONE',  ( 0.05990679608240934151, 0.08844780551861930462, -0.1391988629815581469 ) ) ;
#665 = CIRCLE ( 'NONE', #417, 0.003099999999999991651 ) ;
#666 = EDGE_LOOP ( 'NONE', ( #512, #513, #568, #177 ) ) ;
#667 = CARTESIAN_POINT ( 'NONE',  ( 0.05990679608240934151, 0.08844780551861930462, -0.1371988629815581451 ) ) ;
#668 = VECTOR ( 'NONE', #229, 1.000000000000000000 ) ;
#669 = CARTESIAN_POINT ( 'NONE',  ( 0.05990679608240934151, 0.09144780551861930729, -0.1391988629815581469 ) ) ;
#670 = VECTOR ( 'NONE', #358, 1.000000000000000000 ) ;
#671 = ADVANCED_FACE ( 'NONE', ( #248 ), #556, .F. ) ;
#672 = DIRECTION ( 'NONE',  ( -1.000000000000000000, 0.000000000000000000, 0.000000000000000000 ) ) ;
#673 = CARTESIAN_POINT ( 'NONE',  ( 0.05271532607549145322, 0.1634478055186194267, -0.1421988629815581495 ) ) ;
#674 = PRODUCT_DEFINITION ( 'UNKNOWN', '', #75, #111 ) ;
#675 = CARTESIAN_POINT ( 'NONE',  ( 0.04552385606857356493, 0.09144780551861930729, -0.1421988629815581495 ) ) ;
#676 = AXIS2_PLACEMENT_3D ( 'NONE', #346, #159, #41 ) ;
#677 = FACE_OUTER_BOUND ( 'NONE', #410, .T. ) ;
#678 = ORIENTED_EDGE ( 'NONE', *, *, #490, .T. ) ;
#679 = ORIENTED_EDGE ( 'NONE', *, *, #296, .T. ) ;
#680 = LINE ( 'NONE', #675, #770 ) ;
#681 = PRESENTATION_LAYER_ASSIGNMENT (  '', '', ( #422 ) ) ;
#682 = ORIENTED_EDGE ( 'NONE', *, *, #330, .T. ) ;
#683 = EDGE_LOOP ( 'NONE', ( #89, #459, #249, #382 ) ) ;
#684 = CARTESIAN_POINT ( 'NONE',  ( 0.04952385606857356848, 0.2334478055186192946, -0.1381988629815581460 ) ) ;
#685 = EDGE_CURVE ( 'NONE', #718, #659, #665, .T. ) ;
#686 = DIRECTION ( 'NONE',  ( -1.000000000000000000, 0.000000000000000000, 0.000000000000000000 ) ) ;
#687 = VERTEX_POINT ( 'NONE', #151 ) ;
#688 = DIRECTION ( 'NONE',  ( -1.000000000000000000, 0.000000000000000000, 0.000000000000000000 ) ) ;
#689 = ORIENTED_EDGE ( 'NONE', *, *, #192, .T. ) ;
#690 = CYLINDRICAL_SURFACE ( 'NONE', #240, 0.004000000000000003553 ) ;
#691 = CARTESIAN_POINT ( 'NONE',  ( 0.05481532607549145786, 0.1634478055186194267, -0.1361988629815581442 ) ) ;
#692 = VERTEX_POINT ( 'NONE', #492 ) ;
#693 = VERTEX_POINT ( 'NONE', #383 ) ;
#694 = VECTOR ( 'NONE', #33, 1.000000000000000000 ) ;
#695 = ADVANCED_FACE ( 'NONE', ( #491 ), #13, .T. ) ;
#696 = ORIENTED_EDGE ( 'NONE', *, *, #119, .T. ) ;
#697 = EDGE_LOOP ( 'NONE', ( #710, #243, #98, #679 ) ) ;
#698 = DIRECTION ( 'NONE',  ( -1.000000000000000000, 0.000000000000000000, 0.000000000000000000 ) ) ;
#699 = DIRECTION ( 'NONE',  ( 0.000000000000000000, 0.000000000000000000, 1.000000000000000000 ) ) ;
#700 = EDGE_CURVE ( 'NONE', #324, #221, #185, .T. ) ;
#701 = CYLINDRICAL_SURFACE ( 'NONE', #168, 0.003000000000000002665 ) ;
#702 = ORIENTED_EDGE ( 'NONE', *, *, #772, .T. ) ;
#703 = DIRECTION ( 'NONE',  ( 0.000000000000000000, 0.000000000000000000, -1.000000000000000000 ) ) ;
#704 = DIRECTION ( 'NONE',  ( 1.000000000000000000, -0.000000000000000000, 0.000000000000000000 ) ) ;
#705 = AXIS2_PLACEMENT_3D ( 'NONE', #311, #548, #435 ) ;
#706 = DIRECTION ( 'NONE',  ( -1.000000000000000000, -0.000000000000000000, -0.000000000000000000 ) ) ;
#707 =( NAMED_UNIT ( * ) SI_UNIT ( $, .STERADIAN. ) SOLID_ANGLE_UNIT ( ) );
#708 = CARTESIAN_POINT ( 'NONE',  ( 0.05671532607549145677, 0.1634478055186194267, -0.1421988629815581495 ) ) ;
#709 = ORIENTED_EDGE ( 'NONE', *, *, #434, .F. ) ;
#710 = ORIENTED_EDGE ( 'NONE', *, *, #219, .F. ) ;
#711 = EDGE_CURVE ( 'NONE', #363, #526, #587, .T. ) ;
#712 = SURFACE_SIDE_STYLE ('',( #156 ) ) ;
#713 = CARTESIAN_POINT ( 'NONE',  ( 0.05990679608240934151, 0.2334478055186192946, -0.1360988629815581552 ) ) ;
#714 = ORIENTED_EDGE ( 'NONE', *, *, #172, .F. ) ;
#715 = DIRECTION ( 'NONE',  ( 1.000000000000000000, -0.000000000000000000, -0.000000000000000000 ) ) ;
#716 = CYLINDRICAL_SURFACE ( 'NONE', #94, 0.002099999999999990763 ) ;
#717 = AXIS2_PLACEMENT_3D ( 'NONE', #259, #202, #315 ) ;
#718 = VERTEX_POINT ( 'NONE', #438 ) ;
#719 = EDGE_LOOP ( 'NONE', ( #415, #31 ) ) ;
#720 = DIRECTION ( 'NONE',  ( 0.000000000000000000, 1.000000000000000000, 0.000000000000000000 ) ) ;
#721 = CARTESIAN_POINT ( 'NONE',  ( 0.05990679608240934151, 0.000000000000000000, -0.1361988629815581442 ) ) ;
#722 = EDGE_CURVE ( 'NONE', #655, #18, #308, .T. ) ;
#723 = VECTOR ( 'NONE', #458, 1.000000000000000000 ) ;
#724 = ORIENTED_EDGE ( 'NONE', *, *, #43, .F. ) ;
#725 = CYLINDRICAL_SURFACE ( 'NONE', #370, 0.002099999999999990763 ) ;
#726 = CARTESIAN_POINT ( 'NONE',  ( 0.04552385606857356493, 0.2334478055186192946, -0.1350988629815581543 ) ) ;
#727 = EDGE_CURVE ( 'NONE', #285, #389, #680, .T. ) ;
#728 = ORIENTED_EDGE ( 'NONE', *, *, #700, .F. ) ;
#729 = DIRECTION ( 'NONE',  ( -0.000000000000000000, 0.000000000000000000, -1.000000000000000000 ) ) ;
#730 = CIRCLE ( 'NONE', #47, 0.003099999999999991651 ) ;
#731 = DIRECTION ( 'NONE',  ( 0.000000000000000000, -0.000000000000000000, 1.000000000000000000 ) ) ;
#732 = ORIENTED_EDGE ( 'NONE', *, *, #700, .T. ) ;
#733 = DIRECTION ( 'NONE',  ( 1.000000000000000000, 0.000000000000000000, 0.000000000000000000 ) ) ;
#734 = CIRCLE ( 'NONE', #9, 0.003099999999999991651 ) ;
#735 = PRODUCT ( 'pivot', 'pivot', '', ( #225 ) ) ;
#736 = ORIENTED_EDGE ( 'NONE', *, *, #24, .F. ) ;
#737 = DIRECTION ( 'NONE',  ( 0.000000000000000000, 0.000000000000000000, -1.000000000000000000 ) ) ;
#738 = CARTESIAN_POINT ( 'NONE',  ( 0.05671532607549145677, 0.1634478055186194267, -0.1361988629815581442 ) ) ;
#739 = EDGE_LOOP ( 'NONE', ( #142, #610, #180, #206 ) ) ;
#740 = VERTEX_POINT ( 'NONE', #615 ) ;
#741 = CARTESIAN_POINT ( 'NONE',  ( 0.05271532607549145322, 0.1634478055186194267, -0.1341988629815581424 ) ) ;
#742 = DIRECTION ( 'NONE',  ( -0.000000000000000000, -0.000000000000000000, 1.000000000000000000 ) ) ;
#743 = ADVANCED_FACE ( 'NONE', ( #553 ), #10, .F. ) ;
#744 = CARTESIAN_POINT ( 'NONE',  ( 0.04952385606857356848, 0.09344780551861930906, -0.1350988629815581543 ) ) ;
#745 = VECTOR ( 'NONE', #224, 1.000000000000000000 ) ;
#746 = CIRCLE ( 'NONE', #325, 0.003000000000000002665 ) ;
#747 = EDGE_LOOP ( 'NONE', ( #437, #338, #115, #541 ) ) ;
#748 = PRODUCT_DEFINITION_SHAPE ( 'NONE', 'NONE',  #674 ) ;
#749 = EDGE_CURVE ( 'NONE', #687, #503, #333, .T. ) ;
#750 = VERTEX_POINT ( 'NONE', #626 ) ;
#751 = CARTESIAN_POINT ( 'NONE',  ( 0.04952385606857356848, 0.000000000000000000, 0.000000000000000000 ) ) ;
#752 = CARTESIAN_POINT ( 'NONE',  ( 0.04952385606857356848, 0.2334478055186192946, -0.1412988629815581376 ) ) ;
#753 = DIRECTION ( 'NONE',  ( -1.000000000000000000, 0.000000000000000000, 0.000000000000000000 ) ) ;
#754 = CARTESIAN_POINT ( 'NONE',  ( 0.000000000000000000, 0.000000000000000000, 0.000000000000000000 ) ) ;
#755 = ORIENTED_EDGE ( 'NONE', *, *, #498, .T. ) ;
#756 = ADVANCED_FACE ( 'NONE', ( #45 ), #649, .T. ) ;
#757 = CARTESIAN_POINT ( 'NONE',  ( 0.04552385606857356493, 0.09344780551861930906, -0.1381988629815581460 ) ) ;
#758 = APPLICATION_CONTEXT ( 'automotive_design' ) ;
#759 = CARTESIAN_POINT ( 'NONE',  ( 0.04871532607549144966, 0.1634478055186194267, -0.1421988629815581495 ) ) ;
#760 = ORIENTED_EDGE ( 'NONE', *, *, #215, .F. ) ;
#761 = DIRECTION ( 'NONE',  ( 0.000000000000000000, 0.000000000000000000, -1.000000000000000000 ) ) ;
#762 = DIRECTION ( 'NONE',  ( -1.000000000000000000, 0.000000000000000000, 0.000000000000000000 ) ) ;
#763 = CLOSED_SHELL ( 'NONE', ( #474, #309, #364, #162, #354, #743, #182, #563, #375, #529, #137, #509, #263, #593, #407, #519, #622, #671, #609, #290, #603, #756, #695, #440, #70 ) ) ;
#764 = AXIS2_PLACEMENT_3D ( 'NONE', #42, #32, #222 ) ;
#765 = LINE ( 'NONE', #768, #723 ) ;
#766 = ORIENTED_EDGE ( 'NONE', *, *, #662, .F. ) ;
#767 = CARTESIAN_POINT ( 'NONE',  ( 0.04552385606857356493, 0.2334478055186192946, -0.1412988629815581376 ) ) ;
#768 = CARTESIAN_POINT ( 'NONE',  ( 0.05990679608240934151, 0.2334478055186192946, -0.1402988629815581367 ) ) ;
#769 = ORIENTED_EDGE ( 'NONE', *, *, #749, .F. ) ;
#770 = VECTOR ( 'NONE', #139, 1.000000000000000000 ) ;
#771 = DIRECTION ( 'NONE',  ( 1.000000000000000000, -0.000000000000000000, 0.000000000000000000 ) ) ;
#772 = EDGE_CURVE ( 'NONE', #226, #363, #93, .T. ) ;
#773 = VECTOR ( 'NONE', #127, 1.000000000000000000 ) ;
#774 = LINE ( 'NONE', #179, #404 ) ;
#775 = ORIENTED_EDGE ( 'NONE', *, *, #574, .F. ) ;
#776 = DIRECTION ( 'NONE',  ( -0.000000000000000000, -0.000000000000000000, 1.000000000000000000 ) ) ;
#777 = CARTESIAN_POINT ( 'NONE',  ( 0.000000000000000000, 0.000000000000000000, -0.1341988629815581424 ) ) ;
#778 = EDGE_LOOP ( 'NONE', ( #63, #174, #766, #170 ) ) ;
#779 = DIRECTION ( 'NONE',  ( -1.000000000000000000, -0.000000000000000000, -0.000000000000000000 ) ) ;
#780 = EDGE_CURVE ( 'NONE', #331, #411, #730, .T. ) ;
#781 = PLANE ( 'NONE',  #561 ) ;
#782 = EDGE_LOOP ( 'NONE', ( #709, #130, #25, #305 ) ) ;
#783 = LINE ( 'NONE', #187, #74 ) ;
#784 = EDGE_CURVE ( 'NONE', #389, #356, #488, .T. ) ;
#785 = CARTESIAN_POINT ( 'NONE',  ( 0.05990679608240934151, 0.09144780551861930729, -0.1421988629815581495 ) ) ;
#786 = AXIS2_PLACEMENT_3D ( 'NONE', #584, #575, #46 ) ;
#787 = AXIS2_PLACEMENT_3D ( 'NONE', #161, #205, #398 ) ;
#788 = EDGE_LOOP ( 'NONE', ( #332, #3, #484, #452 ) ) ;
#789 = LINE ( 'NONE', #357, #463 ) ;
ENDSEC;
END-ISO-10303-21;
